<?xml version="1.0" encoding="UTF-8"?>
<svg width="1200pt" height="1200pt" version="1.1" viewBox="0 0 1200 1200" xmlns="http://www.w3.org/2000/svg">
 <path d="m694.46 363.84c0-51.957-42.508-94.465-94.465-94.465-51.957 0-94.465 42.508-94.465 94.465 0 51.957 42.508 94.465 94.465 94.465 51.957 0 94.465-42.508 94.465-94.465zm0 236.16c0-51.957-42.508-94.465-94.465-94.465-51.957 0-94.465 42.508-94.465 94.465s42.508 94.465 94.465 94.465c51.957 0 94.465-42.508 94.465-94.465zm0 236.16c0-51.957-42.508-94.465-94.465-94.465-51.957 0-94.465 42.508-94.465 94.465 0 51.957 42.508 94.465 94.465 94.465 51.957 0 94.465-42.508 94.465-94.465z" fill="#666"/>
</svg>
