<?xml version="1.0" encoding="utf-8"?><svg xmlns="http://www.w3.org/2000/svg" version="1.1" xmlns:xlink="http://www.w3.org/1999/xlink" viewBox="0 0 248 248"><rect width="248" height="248" fill="#ffffff"></rect><rect width="8" height="8" fill="#000000" stroke="#000000" x="8" y="8"></rect><rect width="8" height="8" fill="#000000" stroke="#000000" x="16" y="8"></rect><rect width="8" height="8" fill="#000000" stroke="#000000" x="24" y="8"></rect><rect width="8" height="8" fill="#000000" stroke="#000000" x="32" y="8"></rect><rect width="8" height="8" fill="#000000" stroke="#000000" x="40" y="8"></rect><rect width="8" height="8" fill="#000000" stroke="#000000" x="48" y="8"></rect><rect width="8" height="8" fill="#000000" stroke="#000000" x="56" y="8"></rect><rect width="8" height="8" fill="#000000" stroke="#000000" x="96" y="8"></rect><rect width="8" height="8" fill="#000000" stroke="#000000" x="136" y="8"></rect><rect width="8" height="8" fill="#000000" stroke="#000000" x="184" y="8"></rect><rect width="8" height="8" fill="#000000" stroke="#000000" x="192" y="8"></rect><rect width="8" height="8" fill="#000000" stroke="#000000" x="200" y="8"></rect><rect width="8" height="8" fill="#000000" stroke="#000000" x="208" y="8"></rect><rect width="8" height="8" fill="#000000" stroke="#000000" x="216" y="8"></rect><rect width="8" height="8" fill="#000000" stroke="#000000" x="224" y="8"></rect><rect width="8" height="8" fill="#000000" stroke="#000000" x="232" y="8"></rect><rect width="8" height="8" fill="#000000" stroke="#000000" x="8" y="16"></rect><rect width="8" height="8" fill="#000000" stroke="#000000" x="56" y="16"></rect><rect width="8" height="8" fill="#000000" stroke="#000000" x="72" y="16"></rect><rect width="8" height="8" fill="#000000" stroke="#000000" x="88" y="16"></rect><rect width="8" height="8" fill="#000000" stroke="#000000" x="120" y="16"></rect><rect width="8" height="8" fill="#000000" stroke="#000000" x="128" y="16"></rect><rect width="8" height="8" fill="#000000" stroke="#000000" x="136" y="16"></rect><rect width="8" height="8" fill="#000000" stroke="#000000" x="144" y="16"></rect><rect width="8" height="8" fill="#000000" stroke="#000000" x="160" y="16"></rect><rect width="8" height="8" fill="#000000" stroke="#000000" x="168" y="16"></rect><rect width="8" height="8" fill="#000000" stroke="#000000" x="184" y="16"></rect><rect width="8" height="8" fill="#000000" stroke="#000000" x="232" y="16"></rect><rect width="8" height="8" fill="#000000" stroke="#000000" x="8" y="24"></rect><rect width="8" height="8" fill="#000000" stroke="#000000" x="24" y="24"></rect><rect width="8" height="8" fill="#000000" stroke="#000000" x="32" y="24"></rect><rect width="8" height="8" fill="#000000" stroke="#000000" x="40" y="24"></rect><rect width="8" height="8" fill="#000000" stroke="#000000" x="56" y="24"></rect><rect width="8" height="8" fill="#000000" stroke="#000000" x="80" y="24"></rect><rect width="8" height="8" fill="#000000" stroke="#000000" x="96" y="24"></rect><rect width="8" height="8" fill="#000000" stroke="#000000" x="104" y="24"></rect><rect width="8" height="8" fill="#000000" stroke="#000000" x="112" y="24"></rect><rect width="8" height="8" fill="#000000" stroke="#000000" x="120" y="24"></rect><rect width="8" height="8" fill="#000000" stroke="#000000" x="128" y="24"></rect><rect width="8" height="8" fill="#000000" stroke="#000000" x="152" y="24"></rect><rect width="8" height="8" fill="#000000" stroke="#000000" x="160" y="24"></rect><rect width="8" height="8" fill="#000000" stroke="#000000" x="184" y="24"></rect><rect width="8" height="8" fill="#000000" stroke="#000000" x="200" y="24"></rect><rect width="8" height="8" fill="#000000" stroke="#000000" x="208" y="24"></rect><rect width="8" height="8" fill="#000000" stroke="#000000" x="216" y="24"></rect><rect width="8" height="8" fill="#000000" stroke="#000000" x="232" y="24"></rect><rect width="8" height="8" fill="#000000" stroke="#000000" x="8" y="32"></rect><rect width="8" height="8" fill="#000000" stroke="#000000" x="24" y="32"></rect><rect width="8" height="8" fill="#000000" stroke="#000000" x="32" y="32"></rect><rect width="8" height="8" fill="#000000" stroke="#000000" x="40" y="32"></rect><rect width="8" height="8" fill="#000000" stroke="#000000" x="56" y="32"></rect><rect width="8" height="8" fill="#000000" stroke="#000000" x="72" y="32"></rect><rect width="8" height="8" fill="#000000" stroke="#000000" x="104" y="32"></rect><rect width="8" height="8" fill="#000000" stroke="#000000" x="112" y="32"></rect><rect width="8" height="8" fill="#000000" stroke="#000000" x="136" y="32"></rect><rect width="8" height="8" fill="#000000" stroke="#000000" x="144" y="32"></rect><rect width="8" height="8" fill="#000000" stroke="#000000" x="168" y="32"></rect><rect width="8" height="8" fill="#000000" stroke="#000000" x="184" y="32"></rect><rect width="8" height="8" fill="#000000" stroke="#000000" x="200" y="32"></rect><rect width="8" height="8" fill="#000000" stroke="#000000" x="208" y="32"></rect><rect width="8" height="8" fill="#000000" stroke="#000000" x="216" y="32"></rect><rect width="8" height="8" fill="#000000" stroke="#000000" x="232" y="32"></rect><rect width="8" height="8" fill="#000000" stroke="#000000" x="8" y="40"></rect><rect width="8" height="8" fill="#000000" stroke="#000000" x="24" y="40"></rect><rect width="8" height="8" fill="#000000" stroke="#000000" x="32" y="40"></rect><rect width="8" height="8" fill="#000000" stroke="#000000" x="40" y="40"></rect><rect width="8" height="8" fill="#000000" stroke="#000000" x="56" y="40"></rect><rect width="8" height="8" fill="#000000" stroke="#000000" x="72" y="40"></rect><rect width="8" height="8" fill="#000000" stroke="#000000" x="80" y="40"></rect><rect width="8" height="8" fill="#000000" stroke="#000000" x="96" y="40"></rect><rect width="8" height="8" fill="#000000" stroke="#000000" x="144" y="40"></rect><rect width="8" height="8" fill="#000000" stroke="#000000" x="152" y="40"></rect><rect width="8" height="8" fill="#000000" stroke="#000000" x="160" y="40"></rect><rect width="8" height="8" fill="#000000" stroke="#000000" x="184" y="40"></rect><rect width="8" height="8" fill="#000000" stroke="#000000" x="200" y="40"></rect><rect width="8" height="8" fill="#000000" stroke="#000000" x="208" y="40"></rect><rect width="8" height="8" fill="#000000" stroke="#000000" x="216" y="40"></rect><rect width="8" height="8" fill="#000000" stroke="#000000" x="232" y="40"></rect><rect width="8" height="8" fill="#000000" stroke="#000000" x="8" y="48"></rect><rect width="8" height="8" fill="#000000" stroke="#000000" x="56" y="48"></rect><rect width="8" height="8" fill="#000000" stroke="#000000" x="80" y="48"></rect><rect width="8" height="8" fill="#000000" stroke="#000000" x="96" y="48"></rect><rect width="8" height="8" fill="#000000" stroke="#000000" x="104" y="48"></rect><rect width="8" height="8" fill="#000000" stroke="#000000" x="112" y="48"></rect><rect width="8" height="8" fill="#000000" stroke="#000000" x="136" y="48"></rect><rect width="8" height="8" fill="#000000" stroke="#000000" x="144" y="48"></rect><rect width="8" height="8" fill="#000000" stroke="#000000" x="152" y="48"></rect><rect width="8" height="8" fill="#000000" stroke="#000000" x="168" y="48"></rect><rect width="8" height="8" fill="#000000" stroke="#000000" x="184" y="48"></rect><rect width="8" height="8" fill="#000000" stroke="#000000" x="232" y="48"></rect><rect width="8" height="8" fill="#000000" stroke="#000000" x="8" y="56"></rect><rect width="8" height="8" fill="#000000" stroke="#000000" x="16" y="56"></rect><rect width="8" height="8" fill="#000000" stroke="#000000" x="24" y="56"></rect><rect width="8" height="8" fill="#000000" stroke="#000000" x="32" y="56"></rect><rect width="8" height="8" fill="#000000" stroke="#000000" x="40" y="56"></rect><rect width="8" height="8" fill="#000000" stroke="#000000" x="48" y="56"></rect><rect width="8" height="8" fill="#000000" stroke="#000000" x="56" y="56"></rect><rect width="8" height="8" fill="#000000" stroke="#000000" x="72" y="56"></rect><rect width="8" height="8" fill="#000000" stroke="#000000" x="88" y="56"></rect><rect width="8" height="8" fill="#000000" stroke="#000000" x="104" y="56"></rect><rect width="8" height="8" fill="#000000" stroke="#000000" x="120" y="56"></rect><rect width="8" height="8" fill="#000000" stroke="#000000" x="136" y="56"></rect><rect width="8" height="8" fill="#000000" stroke="#000000" x="152" y="56"></rect><rect width="8" height="8" fill="#000000" stroke="#000000" x="168" y="56"></rect><rect width="8" height="8" fill="#000000" stroke="#000000" x="184" y="56"></rect><rect width="8" height="8" fill="#000000" stroke="#000000" x="192" y="56"></rect><rect width="8" height="8" fill="#000000" stroke="#000000" x="200" y="56"></rect><rect width="8" height="8" fill="#000000" stroke="#000000" x="208" y="56"></rect><rect width="8" height="8" fill="#000000" stroke="#000000" x="216" y="56"></rect><rect width="8" height="8" fill="#000000" stroke="#000000" x="224" y="56"></rect><rect width="8" height="8" fill="#000000" stroke="#000000" x="232" y="56"></rect><rect width="8" height="8" fill="#000000" stroke="#000000" x="72" y="64"></rect><rect width="8" height="8" fill="#000000" stroke="#000000" x="88" y="64"></rect><rect width="8" height="8" fill="#000000" stroke="#000000" x="96" y="64"></rect><rect width="8" height="8" fill="#000000" stroke="#000000" x="112" y="64"></rect><rect width="8" height="8" fill="#000000" stroke="#000000" x="120" y="64"></rect><rect width="8" height="8" fill="#000000" stroke="#000000" x="152" y="64"></rect><rect width="8" height="8" fill="#000000" stroke="#000000" x="160" y="64"></rect><rect width="8" height="8" fill="#000000" stroke="#000000" x="168" y="64"></rect><rect width="8" height="8" fill="#000000" stroke="#000000" x="16" y="72"></rect><rect width="8" height="8" fill="#000000" stroke="#000000" x="32" y="72"></rect><rect width="8" height="8" fill="#000000" stroke="#000000" x="40" y="72"></rect><rect width="8" height="8" fill="#000000" stroke="#000000" x="48" y="72"></rect><rect width="8" height="8" fill="#000000" stroke="#000000" x="56" y="72"></rect><rect width="8" height="8" fill="#000000" stroke="#000000" x="72" y="72"></rect><rect width="8" height="8" fill="#000000" stroke="#000000" x="80" y="72"></rect><rect width="8" height="8" fill="#000000" stroke="#000000" x="96" y="72"></rect><rect width="8" height="8" fill="#000000" stroke="#000000" x="104" y="72"></rect><rect width="8" height="8" fill="#000000" stroke="#000000" x="120" y="72"></rect><rect width="8" height="8" fill="#000000" stroke="#000000" x="128" y="72"></rect><rect width="8" height="8" fill="#000000" stroke="#000000" x="144" y="72"></rect><rect width="8" height="8" fill="#000000" stroke="#000000" x="168" y="72"></rect><rect width="8" height="8" fill="#000000" stroke="#000000" x="176" y="72"></rect><rect width="8" height="8" fill="#000000" stroke="#000000" x="184" y="72"></rect><rect width="8" height="8" fill="#000000" stroke="#000000" x="200" y="72"></rect><rect width="8" height="8" fill="#000000" stroke="#000000" x="208" y="72"></rect><rect width="8" height="8" fill="#000000" stroke="#000000" x="224" y="72"></rect><rect width="8" height="8" fill="#000000" stroke="#000000" x="8" y="80"></rect><rect width="8" height="8" fill="#000000" stroke="#000000" x="40" y="80"></rect><rect width="8" height="8" fill="#000000" stroke="#000000" x="48" y="80"></rect><rect width="8" height="8" fill="#000000" stroke="#000000" x="64" y="80"></rect><rect width="8" height="8" fill="#000000" stroke="#000000" x="88" y="80"></rect><rect width="8" height="8" fill="#000000" stroke="#000000" x="96" y="80"></rect><rect width="8" height="8" fill="#000000" stroke="#000000" x="104" y="80"></rect><rect width="8" height="8" fill="#000000" stroke="#000000" x="112" y="80"></rect><rect width="8" height="8" fill="#000000" stroke="#000000" x="120" y="80"></rect><rect width="8" height="8" fill="#000000" stroke="#000000" x="152" y="80"></rect><rect width="8" height="8" fill="#000000" stroke="#000000" x="160" y="80"></rect><rect width="8" height="8" fill="#000000" stroke="#000000" x="192" y="80"></rect><rect width="8" height="8" fill="#000000" stroke="#000000" x="200" y="80"></rect><rect width="8" height="8" fill="#000000" stroke="#000000" x="208" y="80"></rect><rect width="8" height="8" fill="#000000" stroke="#000000" x="216" y="80"></rect><rect width="8" height="8" fill="#000000" stroke="#000000" x="224" y="80"></rect><rect width="8" height="8" fill="#000000" stroke="#000000" x="16" y="88"></rect><rect width="8" height="8" fill="#000000" stroke="#000000" x="24" y="88"></rect><rect width="8" height="8" fill="#000000" stroke="#000000" x="32" y="88"></rect><rect width="8" height="8" fill="#000000" stroke="#000000" x="40" y="88"></rect><rect width="8" height="8" fill="#000000" stroke="#000000" x="48" y="88"></rect><rect width="8" height="8" fill="#000000" stroke="#000000" x="56" y="88"></rect><rect width="8" height="8" fill="#000000" stroke="#000000" x="88" y="88"></rect><rect width="8" height="8" fill="#000000" stroke="#000000" x="96" y="88"></rect><rect width="8" height="8" fill="#000000" stroke="#000000" x="136" y="88"></rect><rect width="8" height="8" fill="#000000" stroke="#000000" x="144" y="88"></rect><rect width="8" height="8" fill="#000000" stroke="#000000" x="152" y="88"></rect><rect width="8" height="8" fill="#000000" stroke="#000000" x="176" y="88"></rect><rect width="8" height="8" fill="#000000" stroke="#000000" x="184" y="88"></rect><rect width="8" height="8" fill="#000000" stroke="#000000" x="216" y="88"></rect><rect width="8" height="8" fill="#000000" stroke="#000000" x="32" y="96"></rect><rect width="8" height="8" fill="#000000" stroke="#000000" x="40" y="96"></rect><rect width="8" height="8" fill="#000000" stroke="#000000" x="48" y="96"></rect><rect width="8" height="8" fill="#000000" stroke="#000000" x="64" y="96"></rect><rect width="8" height="8" fill="#000000" stroke="#000000" x="72" y="96"></rect><rect width="8" height="8" fill="#000000" stroke="#000000" x="88" y="96"></rect><rect width="8" height="8" fill="#000000" stroke="#000000" x="120" y="96"></rect><rect width="8" height="8" fill="#000000" stroke="#000000" x="144" y="96"></rect><rect width="8" height="8" fill="#000000" stroke="#000000" x="192" y="96"></rect><rect width="8" height="8" fill="#000000" stroke="#000000" x="200" y="96"></rect><rect width="8" height="8" fill="#000000" stroke="#000000" x="208" y="96"></rect><rect width="8" height="8" fill="#000000" stroke="#000000" x="232" y="96"></rect><rect width="8" height="8" fill="#000000" stroke="#000000" x="16" y="104"></rect><rect width="8" height="8" fill="#000000" stroke="#000000" x="32" y="104"></rect><rect width="8" height="8" fill="#000000" stroke="#000000" x="48" y="104"></rect><rect width="8" height="8" fill="#000000" stroke="#000000" x="56" y="104"></rect><rect width="8" height="8" fill="#000000" stroke="#000000" x="88" y="104"></rect><rect width="8" height="8" fill="#000000" stroke="#000000" x="104" y="104"></rect><rect width="8" height="8" fill="#000000" stroke="#000000" x="128" y="104"></rect><rect width="8" height="8" fill="#000000" stroke="#000000" x="136" y="104"></rect><rect width="8" height="8" fill="#000000" stroke="#000000" x="160" y="104"></rect><rect width="8" height="8" fill="#000000" stroke="#000000" x="168" y="104"></rect><rect width="8" height="8" fill="#000000" stroke="#000000" x="176" y="104"></rect><rect width="8" height="8" fill="#000000" stroke="#000000" x="184" y="104"></rect><rect width="8" height="8" fill="#000000" stroke="#000000" x="208" y="104"></rect><rect width="8" height="8" fill="#000000" stroke="#000000" x="224" y="104"></rect><rect width="8" height="8" fill="#000000" stroke="#000000" x="8" y="112"></rect><rect width="8" height="8" fill="#000000" stroke="#000000" x="16" y="112"></rect><rect width="8" height="8" fill="#000000" stroke="#000000" x="32" y="112"></rect><rect width="8" height="8" fill="#000000" stroke="#000000" x="64" y="112"></rect><rect width="8" height="8" fill="#000000" stroke="#000000" x="72" y="112"></rect><rect width="8" height="8" fill="#000000" stroke="#000000" x="80" y="112"></rect><rect width="8" height="8" fill="#000000" stroke="#000000" x="88" y="112"></rect><rect width="8" height="8" fill="#000000" stroke="#000000" x="96" y="112"></rect><rect width="8" height="8" fill="#000000" stroke="#000000" x="112" y="112"></rect><rect width="8" height="8" fill="#000000" stroke="#000000" x="128" y="112"></rect><rect width="8" height="8" fill="#000000" stroke="#000000" x="136" y="112"></rect><rect width="8" height="8" fill="#000000" stroke="#000000" x="144" y="112"></rect><rect width="8" height="8" fill="#000000" stroke="#000000" x="152" y="112"></rect><rect width="8" height="8" fill="#000000" stroke="#000000" x="184" y="112"></rect><rect width="8" height="8" fill="#000000" stroke="#000000" x="200" y="112"></rect><rect width="8" height="8" fill="#000000" stroke="#000000" x="216" y="112"></rect><rect width="8" height="8" fill="#000000" stroke="#000000" x="224" y="112"></rect><rect width="8" height="8" fill="#000000" stroke="#000000" x="232" y="112"></rect><rect width="8" height="8" fill="#000000" stroke="#000000" x="8" y="120"></rect><rect width="8" height="8" fill="#000000" stroke="#000000" x="16" y="120"></rect><rect width="8" height="8" fill="#000000" stroke="#000000" x="24" y="120"></rect><rect width="8" height="8" fill="#000000" stroke="#000000" x="40" y="120"></rect><rect width="8" height="8" fill="#000000" stroke="#000000" x="56" y="120"></rect><rect width="8" height="8" fill="#000000" stroke="#000000" x="80" y="120"></rect><rect width="8" height="8" fill="#000000" stroke="#000000" x="88" y="120"></rect><rect width="8" height="8" fill="#000000" stroke="#000000" x="104" y="120"></rect><rect width="8" height="8" fill="#000000" stroke="#000000" x="112" y="120"></rect><rect width="8" height="8" fill="#000000" stroke="#000000" x="136" y="120"></rect><rect width="8" height="8" fill="#000000" stroke="#000000" x="160" y="120"></rect><rect width="8" height="8" fill="#000000" stroke="#000000" x="192" y="120"></rect><rect width="8" height="8" fill="#000000" stroke="#000000" x="208" y="120"></rect><rect width="8" height="8" fill="#000000" stroke="#000000" x="232" y="120"></rect><rect width="8" height="8" fill="#000000" stroke="#000000" x="8" y="128"></rect><rect width="8" height="8" fill="#000000" stroke="#000000" x="16" y="128"></rect><rect width="8" height="8" fill="#000000" stroke="#000000" x="24" y="128"></rect><rect width="8" height="8" fill="#000000" stroke="#000000" x="64" y="128"></rect><rect width="8" height="8" fill="#000000" stroke="#000000" x="80" y="128"></rect><rect width="8" height="8" fill="#000000" stroke="#000000" x="88" y="128"></rect><rect width="8" height="8" fill="#000000" stroke="#000000" x="96" y="128"></rect><rect width="8" height="8" fill="#000000" stroke="#000000" x="112" y="128"></rect><rect width="8" height="8" fill="#000000" stroke="#000000" x="128" y="128"></rect><rect width="8" height="8" fill="#000000" stroke="#000000" x="136" y="128"></rect><rect width="8" height="8" fill="#000000" stroke="#000000" x="152" y="128"></rect><rect width="8" height="8" fill="#000000" stroke="#000000" x="168" y="128"></rect><rect width="8" height="8" fill="#000000" stroke="#000000" x="176" y="128"></rect><rect width="8" height="8" fill="#000000" stroke="#000000" x="200" y="128"></rect><rect width="8" height="8" fill="#000000" stroke="#000000" x="208" y="128"></rect><rect width="8" height="8" fill="#000000" stroke="#000000" x="216" y="128"></rect><rect width="8" height="8" fill="#000000" stroke="#000000" x="232" y="128"></rect><rect width="8" height="8" fill="#000000" stroke="#000000" x="16" y="136"></rect><rect width="8" height="8" fill="#000000" stroke="#000000" x="48" y="136"></rect><rect width="8" height="8" fill="#000000" stroke="#000000" x="56" y="136"></rect><rect width="8" height="8" fill="#000000" stroke="#000000" x="64" y="136"></rect><rect width="8" height="8" fill="#000000" stroke="#000000" x="80" y="136"></rect><rect width="8" height="8" fill="#000000" stroke="#000000" x="88" y="136"></rect><rect width="8" height="8" fill="#000000" stroke="#000000" x="136" y="136"></rect><rect width="8" height="8" fill="#000000" stroke="#000000" x="168" y="136"></rect><rect width="8" height="8" fill="#000000" stroke="#000000" x="192" y="136"></rect><rect width="8" height="8" fill="#000000" stroke="#000000" x="208" y="136"></rect><rect width="8" height="8" fill="#000000" stroke="#000000" x="232" y="136"></rect><rect width="8" height="8" fill="#000000" stroke="#000000" x="8" y="144"></rect><rect width="8" height="8" fill="#000000" stroke="#000000" x="16" y="144"></rect><rect width="8" height="8" fill="#000000" stroke="#000000" x="24" y="144"></rect><rect width="8" height="8" fill="#000000" stroke="#000000" x="64" y="144"></rect><rect width="8" height="8" fill="#000000" stroke="#000000" x="96" y="144"></rect><rect width="8" height="8" fill="#000000" stroke="#000000" x="104" y="144"></rect><rect width="8" height="8" fill="#000000" stroke="#000000" x="112" y="144"></rect><rect width="8" height="8" fill="#000000" stroke="#000000" x="136" y="144"></rect><rect width="8" height="8" fill="#000000" stroke="#000000" x="152" y="144"></rect><rect width="8" height="8" fill="#000000" stroke="#000000" x="160" y="144"></rect><rect width="8" height="8" fill="#000000" stroke="#000000" x="168" y="144"></rect><rect width="8" height="8" fill="#000000" stroke="#000000" x="200" y="144"></rect><rect width="8" height="8" fill="#000000" stroke="#000000" x="216" y="144"></rect><rect width="8" height="8" fill="#000000" stroke="#000000" x="8" y="152"></rect><rect width="8" height="8" fill="#000000" stroke="#000000" x="16" y="152"></rect><rect width="8" height="8" fill="#000000" stroke="#000000" x="24" y="152"></rect><rect width="8" height="8" fill="#000000" stroke="#000000" x="40" y="152"></rect><rect width="8" height="8" fill="#000000" stroke="#000000" x="56" y="152"></rect><rect width="8" height="8" fill="#000000" stroke="#000000" x="72" y="152"></rect><rect width="8" height="8" fill="#000000" stroke="#000000" x="88" y="152"></rect><rect width="8" height="8" fill="#000000" stroke="#000000" x="112" y="152"></rect><rect width="8" height="8" fill="#000000" stroke="#000000" x="128" y="152"></rect><rect width="8" height="8" fill="#000000" stroke="#000000" x="144" y="152"></rect><rect width="8" height="8" fill="#000000" stroke="#000000" x="160" y="152"></rect><rect width="8" height="8" fill="#000000" stroke="#000000" x="192" y="152"></rect><rect width="8" height="8" fill="#000000" stroke="#000000" x="208" y="152"></rect><rect width="8" height="8" fill="#000000" stroke="#000000" x="216" y="152"></rect><rect width="8" height="8" fill="#000000" stroke="#000000" x="232" y="152"></rect><rect width="8" height="8" fill="#000000" stroke="#000000" x="8" y="160"></rect><rect width="8" height="8" fill="#000000" stroke="#000000" x="16" y="160"></rect><rect width="8" height="8" fill="#000000" stroke="#000000" x="24" y="160"></rect><rect width="8" height="8" fill="#000000" stroke="#000000" x="32" y="160"></rect><rect width="8" height="8" fill="#000000" stroke="#000000" x="80" y="160"></rect><rect width="8" height="8" fill="#000000" stroke="#000000" x="88" y="160"></rect><rect width="8" height="8" fill="#000000" stroke="#000000" x="112" y="160"></rect><rect width="8" height="8" fill="#000000" stroke="#000000" x="120" y="160"></rect><rect width="8" height="8" fill="#000000" stroke="#000000" x="152" y="160"></rect><rect width="8" height="8" fill="#000000" stroke="#000000" x="176" y="160"></rect><rect width="8" height="8" fill="#000000" stroke="#000000" x="184" y="160"></rect><rect width="8" height="8" fill="#000000" stroke="#000000" x="192" y="160"></rect><rect width="8" height="8" fill="#000000" stroke="#000000" x="216" y="160"></rect><rect width="8" height="8" fill="#000000" stroke="#000000" x="232" y="160"></rect><rect width="8" height="8" fill="#000000" stroke="#000000" x="8" y="168"></rect><rect width="8" height="8" fill="#000000" stroke="#000000" x="16" y="168"></rect><rect width="8" height="8" fill="#000000" stroke="#000000" x="40" y="168"></rect><rect width="8" height="8" fill="#000000" stroke="#000000" x="56" y="168"></rect><rect width="8" height="8" fill="#000000" stroke="#000000" x="64" y="168"></rect><rect width="8" height="8" fill="#000000" stroke="#000000" x="72" y="168"></rect><rect width="8" height="8" fill="#000000" stroke="#000000" x="112" y="168"></rect><rect width="8" height="8" fill="#000000" stroke="#000000" x="120" y="168"></rect><rect width="8" height="8" fill="#000000" stroke="#000000" x="128" y="168"></rect><rect width="8" height="8" fill="#000000" stroke="#000000" x="136" y="168"></rect><rect width="8" height="8" fill="#000000" stroke="#000000" x="168" y="168"></rect><rect width="8" height="8" fill="#000000" stroke="#000000" x="176" y="168"></rect><rect width="8" height="8" fill="#000000" stroke="#000000" x="184" y="168"></rect><rect width="8" height="8" fill="#000000" stroke="#000000" x="192" y="168"></rect><rect width="8" height="8" fill="#000000" stroke="#000000" x="200" y="168"></rect><rect width="8" height="8" fill="#000000" stroke="#000000" x="216" y="168"></rect><rect width="8" height="8" fill="#000000" stroke="#000000" x="72" y="176"></rect><rect width="8" height="8" fill="#000000" stroke="#000000" x="88" y="176"></rect><rect width="8" height="8" fill="#000000" stroke="#000000" x="112" y="176"></rect><rect width="8" height="8" fill="#000000" stroke="#000000" x="120" y="176"></rect><rect width="8" height="8" fill="#000000" stroke="#000000" x="128" y="176"></rect><rect width="8" height="8" fill="#000000" stroke="#000000" x="152" y="176"></rect><rect width="8" height="8" fill="#000000" stroke="#000000" x="160" y="176"></rect><rect width="8" height="8" fill="#000000" stroke="#000000" x="168" y="176"></rect><rect width="8" height="8" fill="#000000" stroke="#000000" x="200" y="176"></rect><rect width="8" height="8" fill="#000000" stroke="#000000" x="208" y="176"></rect><rect width="8" height="8" fill="#000000" stroke="#000000" x="216" y="176"></rect><rect width="8" height="8" fill="#000000" stroke="#000000" x="8" y="184"></rect><rect width="8" height="8" fill="#000000" stroke="#000000" x="16" y="184"></rect><rect width="8" height="8" fill="#000000" stroke="#000000" x="24" y="184"></rect><rect width="8" height="8" fill="#000000" stroke="#000000" x="32" y="184"></rect><rect width="8" height="8" fill="#000000" stroke="#000000" x="40" y="184"></rect><rect width="8" height="8" fill="#000000" stroke="#000000" x="48" y="184"></rect><rect width="8" height="8" fill="#000000" stroke="#000000" x="56" y="184"></rect><rect width="8" height="8" fill="#000000" stroke="#000000" x="104" y="184"></rect><rect width="8" height="8" fill="#000000" stroke="#000000" x="112" y="184"></rect><rect width="8" height="8" fill="#000000" stroke="#000000" x="128" y="184"></rect><rect width="8" height="8" fill="#000000" stroke="#000000" x="136" y="184"></rect><rect width="8" height="8" fill="#000000" stroke="#000000" x="144" y="184"></rect><rect width="8" height="8" fill="#000000" stroke="#000000" x="168" y="184"></rect><rect width="8" height="8" fill="#000000" stroke="#000000" x="184" y="184"></rect><rect width="8" height="8" fill="#000000" stroke="#000000" x="200" y="184"></rect><rect width="8" height="8" fill="#000000" stroke="#000000" x="216" y="184"></rect><rect width="8" height="8" fill="#000000" stroke="#000000" x="8" y="192"></rect><rect width="8" height="8" fill="#000000" stroke="#000000" x="56" y="192"></rect><rect width="8" height="8" fill="#000000" stroke="#000000" x="72" y="192"></rect><rect width="8" height="8" fill="#000000" stroke="#000000" x="88" y="192"></rect><rect width="8" height="8" fill="#000000" stroke="#000000" x="112" y="192"></rect><rect width="8" height="8" fill="#000000" stroke="#000000" x="144" y="192"></rect><rect width="8" height="8" fill="#000000" stroke="#000000" x="160" y="192"></rect><rect width="8" height="8" fill="#000000" stroke="#000000" x="168" y="192"></rect><rect width="8" height="8" fill="#000000" stroke="#000000" x="200" y="192"></rect><rect width="8" height="8" fill="#000000" stroke="#000000" x="208" y="192"></rect><rect width="8" height="8" fill="#000000" stroke="#000000" x="224" y="192"></rect><rect width="8" height="8" fill="#000000" stroke="#000000" x="232" y="192"></rect><rect width="8" height="8" fill="#000000" stroke="#000000" x="8" y="200"></rect><rect width="8" height="8" fill="#000000" stroke="#000000" x="24" y="200"></rect><rect width="8" height="8" fill="#000000" stroke="#000000" x="32" y="200"></rect><rect width="8" height="8" fill="#000000" stroke="#000000" x="40" y="200"></rect><rect width="8" height="8" fill="#000000" stroke="#000000" x="56" y="200"></rect><rect width="8" height="8" fill="#000000" stroke="#000000" x="72" y="200"></rect><rect width="8" height="8" fill="#000000" stroke="#000000" x="80" y="200"></rect><rect width="8" height="8" fill="#000000" stroke="#000000" x="88" y="200"></rect><rect width="8" height="8" fill="#000000" stroke="#000000" x="96" y="200"></rect><rect width="8" height="8" fill="#000000" stroke="#000000" x="104" y="200"></rect><rect width="8" height="8" fill="#000000" stroke="#000000" x="112" y="200"></rect><rect width="8" height="8" fill="#000000" stroke="#000000" x="128" y="200"></rect><rect width="8" height="8" fill="#000000" stroke="#000000" x="136" y="200"></rect><rect width="8" height="8" fill="#000000" stroke="#000000" x="144" y="200"></rect><rect width="8" height="8" fill="#000000" stroke="#000000" x="152" y="200"></rect><rect width="8" height="8" fill="#000000" stroke="#000000" x="160" y="200"></rect><rect width="8" height="8" fill="#000000" stroke="#000000" x="168" y="200"></rect><rect width="8" height="8" fill="#000000" stroke="#000000" x="176" y="200"></rect><rect width="8" height="8" fill="#000000" stroke="#000000" x="184" y="200"></rect><rect width="8" height="8" fill="#000000" stroke="#000000" x="192" y="200"></rect><rect width="8" height="8" fill="#000000" stroke="#000000" x="200" y="200"></rect><rect width="8" height="8" fill="#000000" stroke="#000000" x="224" y="200"></rect><rect width="8" height="8" fill="#000000" stroke="#000000" x="232" y="200"></rect><rect width="8" height="8" fill="#000000" stroke="#000000" x="8" y="208"></rect><rect width="8" height="8" fill="#000000" stroke="#000000" x="24" y="208"></rect><rect width="8" height="8" fill="#000000" stroke="#000000" x="32" y="208"></rect><rect width="8" height="8" fill="#000000" stroke="#000000" x="40" y="208"></rect><rect width="8" height="8" fill="#000000" stroke="#000000" x="56" y="208"></rect><rect width="8" height="8" fill="#000000" stroke="#000000" x="72" y="208"></rect><rect width="8" height="8" fill="#000000" stroke="#000000" x="80" y="208"></rect><rect width="8" height="8" fill="#000000" stroke="#000000" x="104" y="208"></rect><rect width="8" height="8" fill="#000000" stroke="#000000" x="112" y="208"></rect><rect width="8" height="8" fill="#000000" stroke="#000000" x="136" y="208"></rect><rect width="8" height="8" fill="#000000" stroke="#000000" x="144" y="208"></rect><rect width="8" height="8" fill="#000000" stroke="#000000" x="152" y="208"></rect><rect width="8" height="8" fill="#000000" stroke="#000000" x="192" y="208"></rect><rect width="8" height="8" fill="#000000" stroke="#000000" x="208" y="208"></rect><rect width="8" height="8" fill="#000000" stroke="#000000" x="224" y="208"></rect><rect width="8" height="8" fill="#000000" stroke="#000000" x="8" y="216"></rect><rect width="8" height="8" fill="#000000" stroke="#000000" x="24" y="216"></rect><rect width="8" height="8" fill="#000000" stroke="#000000" x="32" y="216"></rect><rect width="8" height="8" fill="#000000" stroke="#000000" x="40" y="216"></rect><rect width="8" height="8" fill="#000000" stroke="#000000" x="56" y="216"></rect><rect width="8" height="8" fill="#000000" stroke="#000000" x="96" y="216"></rect><rect width="8" height="8" fill="#000000" stroke="#000000" x="136" y="216"></rect><rect width="8" height="8" fill="#000000" stroke="#000000" x="152" y="216"></rect><rect width="8" height="8" fill="#000000" stroke="#000000" x="168" y="216"></rect><rect width="8" height="8" fill="#000000" stroke="#000000" x="176" y="216"></rect><rect width="8" height="8" fill="#000000" stroke="#000000" x="192" y="216"></rect><rect width="8" height="8" fill="#000000" stroke="#000000" x="200" y="216"></rect><rect width="8" height="8" fill="#000000" stroke="#000000" x="224" y="216"></rect><rect width="8" height="8" fill="#000000" stroke="#000000" x="232" y="216"></rect><rect width="8" height="8" fill="#000000" stroke="#000000" x="8" y="224"></rect><rect width="8" height="8" fill="#000000" stroke="#000000" x="56" y="224"></rect><rect width="8" height="8" fill="#000000" stroke="#000000" x="72" y="224"></rect><rect width="8" height="8" fill="#000000" stroke="#000000" x="80" y="224"></rect><rect width="8" height="8" fill="#000000" stroke="#000000" x="88" y="224"></rect><rect width="8" height="8" fill="#000000" stroke="#000000" x="96" y="224"></rect><rect width="8" height="8" fill="#000000" stroke="#000000" x="112" y="224"></rect><rect width="8" height="8" fill="#000000" stroke="#000000" x="128" y="224"></rect><rect width="8" height="8" fill="#000000" stroke="#000000" x="152" y="224"></rect><rect width="8" height="8" fill="#000000" stroke="#000000" x="176" y="224"></rect><rect width="8" height="8" fill="#000000" stroke="#000000" x="200" y="224"></rect><rect width="8" height="8" fill="#000000" stroke="#000000" x="216" y="224"></rect><rect width="8" height="8" fill="#000000" stroke="#000000" x="232" y="224"></rect><rect width="8" height="8" fill="#000000" stroke="#000000" x="8" y="232"></rect><rect width="8" height="8" fill="#000000" stroke="#000000" x="16" y="232"></rect><rect width="8" height="8" fill="#000000" stroke="#000000" x="24" y="232"></rect><rect width="8" height="8" fill="#000000" stroke="#000000" x="32" y="232"></rect><rect width="8" height="8" fill="#000000" stroke="#000000" x="40" y="232"></rect><rect width="8" height="8" fill="#000000" stroke="#000000" x="48" y="232"></rect><rect width="8" height="8" fill="#000000" stroke="#000000" x="56" y="232"></rect><rect width="8" height="8" fill="#000000" stroke="#000000" x="96" y="232"></rect><rect width="8" height="8" fill="#000000" stroke="#000000" x="104" y="232"></rect><rect width="8" height="8" fill="#000000" stroke="#000000" x="112" y="232"></rect><rect width="8" height="8" fill="#000000" stroke="#000000" x="168" y="232"></rect><rect width="8" height="8" fill="#000000" stroke="#000000" x="192" y="232"></rect><rect width="8" height="8" fill="#000000" stroke="#000000" x="200" y="232"></rect></svg>