<?xml version="1.0" encoding="UTF-8"?>
<svg width="1200pt" height="1200pt" version="1.1" viewBox="0 0 1200 1200" xmlns="http://www.w3.org/2000/svg">
 <g fill="#666">
  <path d="m643.2 952.8v-774l166.8 154.8 58.801-63.602-240-222c-16.801-15.602-42-15.602-58.801 0l-237.6 222 58.801 63.602 166.8-154.8v774z"/>
  <path d="m122.4 486v592.8c0 46.801 38.398 86.398 86.398 86.398h782.4c46.801 0 86.398-38.398 86.398-86.398l0.007812-592.8c0-46.801-38.398-86.398-86.398-86.398h-190.8v86.398h190.8v592.8h-782.4v-592.8h190.8v-86.398h-190.8c-48 0-86.402 38.398-86.402 86.398z"/>
 </g>
</svg>
