<svg id="logo_horizontal" data-name="logo horizontal" xmlns="http://www.w3.org/2000/svg" viewBox="0 0 805.38 301.43"><defs><style>.cls-1{fill:#666;}.cls-2{fill:#fbc606;}.cls-3{fill:#fb8706;}.cls-3,.cls-4{fill-rule:evenodd;}.cls-4{fill:#3682ad;}</style></defs><g id="name_and_tagline" data-name="name and tagline"><path class="cls-1" d="M1237.18,555.08h-28.24v25.28h-5.52V526.44h5.52V550h28.24v-23.6h5.52v53.92h-5.52Z" transform="translate(-947.64 -332.87)"/><path class="cls-1" d="M1257.74,563.4q.48,6.4,4,9.92t10,3.52a27.64,27.64,0,0,0,5.32-.52,20.54,20.54,0,0,0,4.92-1.56l1.2,3.84a28.54,28.54,0,0,1-11.92,2.48q-9.36,0-14-5.44t-4.6-14.64a29.22,29.22,0,0,1,1-7.92,18.08,18.08,0,0,1,3.16-6.36,14.66,14.66,0,0,1,5.4-4.2,18.58,18.58,0,0,1,7.84-1.52q7.44,0,11.28,4.24t3.84,11.68a28.33,28.33,0,0,1-.2,3.44,20.2,20.2,0,0,1-.6,3Zm12.32-18.4a12.51,12.51,0,0,0-5.4,1.08,10.08,10.08,0,0,0-3.76,3,14,14,0,0,0-2.24,4.64,26.42,26.42,0,0,0-.92,5.88h22.32a4.25,4.25,0,0,0,.16-1.44v-1.28c0-3.84-.77-6.78-2.32-8.84S1273.74,545,1270.06,545Z" transform="translate(-947.64 -332.87)"/><path class="cls-1" d="M1317.1,554.84q0-5.19-2.64-7.4a10.69,10.69,0,0,0-7-2.2,25.6,25.6,0,0,0-6.64.8,34.53,34.53,0,0,0-5.36,1.92,18.38,18.38,0,0,0-.68-1.88c-.24-.56-.47-1.16-.68-1.8a24.55,24.55,0,0,1,5.68-2.28,28.93,28.93,0,0,1,7.84-1q7.44,0,11,3.72t3.6,10.2v25.44h-4l-1.28-7.52a23.17,23.17,0,0,1-2.16,3.16,14,14,0,0,1-2.84,2.64,12.59,12.59,0,0,1-3.76,1.8,17.26,17.26,0,0,1-5,.64,14.22,14.22,0,0,1-4.6-.72,10.64,10.64,0,0,1-3.72-2.16,10,10,0,0,1-2.52-3.56,12.3,12.3,0,0,1-.92-4.92q0-6.48,4.44-9.68t12.44-3.2h8.8Zm0,5.92h-8.88c-3.84,0-6.73.78-8.68,2.32a8,8,0,0,0-2.92,6.64,6.74,6.74,0,0,0,2.16,5.44,8,8,0,0,0,5.36,1.84,12.93,12.93,0,0,0,5.36-1.08,12.76,12.76,0,0,0,4.08-2.84,12.6,12.6,0,0,0,2.6-4,11.74,11.74,0,0,0,.92-4.48Z" transform="translate(-947.64 -332.87)"/><path class="cls-1" d="M1339.74,580.36h-5.44V526.2h5.44Z" transform="translate(-947.64 -332.87)"/><path class="cls-1" d="M1358.94,570a9.82,9.82,0,0,0,1.08,5.16c.72,1.15,2.15,1.72,4.28,1.72a14.07,14.07,0,0,0,3.32-.36,12.73,12.73,0,0,0,2.76-1c.21.7.43,1.31.64,1.84s.43,1.15.64,1.84a12.43,12.43,0,0,1-3.44,1.4,19.09,19.09,0,0,1-4.8.52q-4.87,0-7.28-2.64t-2.4-8.4V546h-6.24v-4.24h6.24l1.6-11.2h3.6v11.2h12.16V546h-12.16Z" transform="translate(-947.64 -332.87)"/><path class="cls-1" d="M1385.1,580.36h-5.36V526.2h5.36v22.16a21.06,21.06,0,0,1,2.4-2.48,20.72,20.72,0,0,1,7.32-4.16,14.71,14.71,0,0,1,4.6-.72q6.16,0,9.6,4t3.44,11.08v24.32h-5.2V556a11.27,11.27,0,0,0-2.36-7.56,8,8,0,0,0-6.44-2.76,15.07,15.07,0,0,0-7.68,2,17.82,17.82,0,0,0-5.68,5.08Z" transform="translate(-947.64 -332.87)"/><path class="cls-1" d="M1450.38,571.8a22.32,22.32,0,0,1-2.16,2.92,18.14,18.14,0,0,1-3,2.76,15.17,15.17,0,0,1-3.88,2.08,13.33,13.33,0,0,1-4.72.8q-5.92,0-9.32-3.6t-3.4-11.44v-23.6h5.2v23.6q0,5,2.16,7.68a7.31,7.31,0,0,0,6.08,2.72,12.11,12.11,0,0,0,4.2-.72,15,15,0,0,0,3.6-1.88,17.31,17.31,0,0,0,3-2.64,19.9,19.9,0,0,0,2.28-3.08V541.72h5.44v36q0,9.6-4.52,14.28t-12.76,4.68a28.42,28.42,0,0,1-7.36-1,19.49,19.49,0,0,1-5.76-2.4c.21-.69.47-1.41.76-2.16s.55-1.44.76-2.08a21.64,21.64,0,0,0,5.16,2.08,22.83,22.83,0,0,0,6.12.8,17,17,0,0,0,5.2-.72,8.87,8.87,0,0,0,3.8-2.36,10.45,10.45,0,0,0,2.36-4.4,25.07,25.07,0,0,0,.8-6.84Z" transform="translate(-947.64 -332.87)"/><path class="cls-1" d="M1519,576.36a24.32,24.32,0,0,1-15.12,4.72,23.76,23.76,0,0,1-7.88-1.16,15.53,15.53,0,0,1-5.52-3.2,12.49,12.49,0,0,1-3.24-4.72,15.7,15.7,0,0,1-1-5.72,14.08,14.08,0,0,1,.92-5.2,17.33,17.33,0,0,1,2.4-4.24,21.56,21.56,0,0,1,3.44-3.52,49.72,49.72,0,0,1,4-3l-1-1.52-.64-.88a62.38,62.38,0,0,1-3.48-5.24,11.2,11.2,0,0,1-1.48-5.8,10.53,10.53,0,0,1,3.36-8.08q3.36-3.12,9.52-3.12a16.29,16.29,0,0,1,5.64.88,10.42,10.42,0,0,1,3.88,2.44,9.8,9.8,0,0,1,2.24,3.6,13,13,0,0,1,.72,4.36,9.39,9.39,0,0,1-1,4.36,15,15,0,0,1-2.64,3.64,28.89,28.89,0,0,1-3.8,3.24q-2.16,1.56-4.56,3.08l15.12,18a21.37,21.37,0,0,0,2.6-6,25.71,25.71,0,0,0,.84-6.56v-3.6h5.36v3.6a28.23,28.23,0,0,1-1.4,9,24.8,24.8,0,0,1-4,7.52l5.84,7h-5.76Zm-14.8-.24a21.57,21.57,0,0,0,6.28-.88,14.51,14.51,0,0,0,5.16-2.72l-15.52-18.72a30.46,30.46,0,0,0-5.84,5.44,10.62,10.62,0,0,0-2.32,6.88,9.06,9.06,0,0,0,3.16,7.32C1497.25,575.23,1500.27,576.12,1504.22,576.12Zm-8.64-39q0,4.89,4.48,9.68v-.08l1,1.2q1.92-1.2,3.68-2.44a20.91,20.91,0,0,0,3-2.56,11.84,11.84,0,0,0,2-2.8,6.76,6.76,0,0,0,.76-3.16,7.08,7.08,0,0,0-1.76-5q-1.76-1.92-5.6-1.92a8.55,8.55,0,0,0-5.4,1.72A6.33,6.33,0,0,0,1495.58,537.08Z" transform="translate(-947.64 -332.87)"/><path class="cls-1" d="M1587.1,565.4h-23.76l-5.44,15h-5.6l20.08-53.92h5.68q5,13.6,10,27t10,27h-5.6Zm-21.92-4.88h20.08L1579.1,544q-.88-2.79-1.88-6t-1.88-5.92c-.7,1.76-1.39,3.74-2.08,5.92l-1.92,6Z" transform="translate(-947.64 -332.87)"/><path class="cls-1" d="M1621.1,545.24a13.72,13.72,0,0,0-6,1.2,11.55,11.55,0,0,0-4.16,3.28,13.79,13.79,0,0,0-2.44,5,25.36,25.36,0,0,0,0,12.64,13.88,13.88,0,0,0,2.48,5,11.51,11.51,0,0,0,4.24,3.32,14.4,14.4,0,0,0,6.16,1.2,22.13,22.13,0,0,0,5-.56,23,23,0,0,0,4.72-1.6l1.2,3.84a23.89,23.89,0,0,1-5.2,1.92,26.2,26.2,0,0,1-6.16.64,19.94,19.94,0,0,1-8.16-1.52,15.67,15.67,0,0,1-5.76-4.24,17.42,17.42,0,0,1-3.44-6.4,28.56,28.56,0,0,1,0-15.84,17.16,17.16,0,0,1,3.44-6.36,16,16,0,0,1,5.84-4.2,20.68,20.68,0,0,1,8.24-1.52,24.7,24.7,0,0,1,5.8.64,28,28,0,0,1,5,1.76,19.83,19.83,0,0,1-.6,2c-.24.67-.44,1.3-.6,1.88a29.59,29.59,0,0,0-4.44-1.44A22.61,22.61,0,0,0,1621.1,545.24Z" transform="translate(-947.64 -332.87)"/><path class="cls-1" d="M1647.9,570a9.82,9.82,0,0,0,1.08,5.16c.72,1.15,2.14,1.72,4.28,1.72a14.13,14.13,0,0,0,3.32-.36,13.13,13.13,0,0,0,2.76-1,19.32,19.32,0,0,0,.64,1.84c.21.54.42,1.15.64,1.84a12.43,12.43,0,0,1-3.44,1.4,19.2,19.2,0,0,1-4.8.52c-3.26,0-5.68-.88-7.28-2.64s-2.4-4.56-2.4-8.4V546h-6.24v-4.24h6.24l1.6-11.2h3.6v11.2h12.16V546H1647.9Z" transform="translate(-947.64 -332.87)"/><path class="cls-1" d="M1667.82,529.16a3.79,3.79,0,0,1,1-2.68,4.33,4.33,0,0,1,5.72,0,4.22,4.22,0,0,1,0,5.36,4.33,4.33,0,0,1-5.72,0A3.77,3.77,0,0,1,1667.82,529.16Zm6.56,51.2h-5.44V541.72h5.44Z" transform="translate(-947.64 -332.87)"/><path class="cls-1" d="M1696.3,580.36l-14.08-38.64h5.52q1.68,4.89,3.52,9.88t3.52,9.88l1.44,4.72,2.8,9.44c.42-1.38.92-3,1.48-4.72s1-3.33,1.48-4.72l1.44-4.72,7-19.76h5.44l-14,38.64Z" transform="translate(-947.64 -332.87)"/><path class="cls-1" d="M1725.58,563.4c.32,4.27,1.63,7.58,4,9.92s5.63,3.52,10,3.52a27.71,27.71,0,0,0,5.32-.52,20.83,20.83,0,0,0,4.92-1.56l1.2,3.84a28.54,28.54,0,0,1-11.92,2.48q-9.36,0-14-5.44T1720.46,561a28.83,28.83,0,0,1,1-7.92,17.91,17.91,0,0,1,3.16-6.36,14.71,14.71,0,0,1,5.39-4.2,18.63,18.63,0,0,1,7.85-1.52q7.44,0,11.27,4.24t3.85,11.68a28.33,28.33,0,0,1-.2,3.44,21.51,21.51,0,0,1-.61,3ZM1737.9,545a12.51,12.51,0,0,0-5.4,1.08,10,10,0,0,0-3.76,3,13.82,13.82,0,0,0-2.24,4.64,25.86,25.86,0,0,0-.92,5.88h22.32a4.61,4.61,0,0,0,.15-1.44v-1.28c0-3.84-.77-6.78-2.31-8.84S1741.58,545,1737.9,545Z" transform="translate(-947.64 -332.87)"/><path class="cls-1" d="M1203.42,382.43h58.83q19.21,0,28.79,9.14t9.57,26q0,17.34-10.43,27.11t-31.84,9.76H1239V497h-35.55ZM1239,431.26h8.67q10.23,0,14.37-3.56a11.45,11.45,0,0,0,4.14-9.1,12.74,12.74,0,0,0-3.59-9.14q-3.6-3.75-13.52-3.75H1239Z" transform="translate(-947.64 -332.87)"/><path class="cls-1" d="M1318.13,382.43h35.47V497h-35.47Z" transform="translate(-947.64 -332.87)"/><path class="cls-1" d="M1374.1,382.43h33.05l43.12,63.36V382.43h33.36V497h-33.36l-42.89-62.88V497H1374.1Z" transform="translate(-947.64 -332.87)"/><path class="cls-1" d="M1577.76,478.05h-40.18L1532,497h-36.14l43.05-114.53h38.6l43,114.53h-37.06Zm-7.34-24.76-12.64-41.17-12.51,41.17Z" transform="translate(-947.64 -332.87)"/><path class="cls-1" d="M1637.4,382.43h35.39v86.33H1728V497H1637.4Z" transform="translate(-947.64 -332.87)"/></g><g id="logo"><path id="orange_peel" data-name="orange peel" class="cls-2" d="M1159.93,505.66a109.43,109.43,0,0,1-11.27,74.46A103.67,103.67,0,0,1,1006,620.58v0a109.52,109.52,0,0,1-48.7-57.45L968.55,560a97.84,97.84,0,0,0,43.22,50.47v0a92.08,92.08,0,0,0,126.66-36,97.84,97.84,0,0,0,10.27-65.66Z" transform="translate(-947.64 -332.87)"/><path id="orange_slices" data-name="orange slices" class="cls-3" d="M1008.14,595.05a74.88,74.88,0,0,1-27.37-38.6c70.93-20.13,63.29-25.8,27.37,38.6m64,14.11a82.27,82.27,0,0,1-51.24-6.42C1060.22,532.32,1050.17,531.59,1072.18,609.16Zm54.57-37a82.22,82.22,0,0,1-40.22,32.88C1064.39,527,1055.92,532.65,1126.75,572.17Zm9.44-59.82a74.67,74.67,0,0,1-2.72,46.48C1070.13,523.49,1066.42,532.14,1136.19,512.35Z" transform="translate(-947.64 -332.87)"/><path id="biker" class="cls-4" d="M1020.58,333.69a21.5,21.5,0,1,1-14.82,26.56,21.5,21.5,0,0,1,14.82-26.56Zm31.13,120.69,13.4-24-16.71,4.74-4.31-6.56,24.7-7-7.18-12-23.82,2.82a10.44,10.44,0,0,1-6.93-1.79l-11.36-7.42-8.08,19.72,23.87,9.38c3.93,1.54,7.35,4.28,8.29,8.61l8.56,39.66c3,14.14-15.36,19-19.15,5l-9.14-33.74L988.5,441.71c-7.67-2.19-15.14-9.65-10-22.32l13.11-32c4.86-11.88,19.92-13.35,28.66-5.89l19.57,16.71,21.94-1.78c6.71-.55,9.36,6,6.69,10l16.8,28.13a39.48,39.48,0,1,1-6.43,3.83l-5-8.39-19.77,35.42-2.39-11.08Zm43.82,11.94-11.92-20a29.94,29.94,0,1,0,6.43-3.84l11.92,20a7.83,7.83,0,1,1-6.43,3.84ZM988.65,492.64l10-17.79a30.35,30.35,0,1,0,18.57,23.49l-19.62,5.57a10.42,10.42,0,1,1-13.23-11,10.28,10.28,0,0,1,4.32-.3Zm14.46-25.85,7.39-13.22,7.27,2.25-8.15,14.6a39.61,39.61,0,1,1-6.51-3.63Zm2,11.69-9.93,17.81.33.42,19.61-5.57a30.16,30.16,0,0,0-10-12.66Z" transform="translate(-947.64 -332.87)"/></g></svg>