<svg id="logo_white_horizontal" data-name="logo white horizontal" xmlns="http://www.w3.org/2000/svg" viewBox="0 0 805.38 301.43"><defs><style>.cls-1,.cls-2{fill:#fff;}.cls-2{fill-rule:evenodd;}</style></defs><g id="name_and_tagline" data-name="name and tagline"><path class="cls-1" d="M1230.11,1452h-28.24v25.28h-5.52v-53.92h5.52v23.6h28.24v-23.6h5.52v53.92h-5.52Z" transform="translate(-940.57 -1229.74)"/><path class="cls-1" d="M1250.67,1460.27q.48,6.4,4,9.92t10,3.52a27.56,27.56,0,0,0,5.32-.52,20.54,20.54,0,0,0,4.92-1.56l1.2,3.84a28.22,28.22,0,0,1-5.44,1.8,28.52,28.52,0,0,1-6.48.68q-9.36,0-14-5.44t-4.6-14.64a29.22,29.22,0,0,1,1-7.92,18.25,18.25,0,0,1,3.16-6.36,14.82,14.82,0,0,1,5.4-4.2,18.58,18.58,0,0,1,7.84-1.52q7.44,0,11.28,4.24t3.84,11.68a26.45,26.45,0,0,1-.2,3.44,20.2,20.2,0,0,1-.6,3Zm12.32-18.4a12.51,12.51,0,0,0-5.4,1.08,10.08,10.08,0,0,0-3.76,3,14.2,14.2,0,0,0-2.24,4.64,27,27,0,0,0-.92,5.88H1273a4.25,4.25,0,0,0,.16-1.44v-1.28c0-3.84-.77-6.78-2.32-8.84S1266.67,1441.87,1263,1441.87Z" transform="translate(-940.57 -1229.74)"/><path class="cls-1" d="M1310,1451.71q0-5.19-2.64-7.4a10.67,10.67,0,0,0-7-2.2,25.66,25.66,0,0,0-6.64.8,34.53,34.53,0,0,0-5.36,1.92,18.38,18.38,0,0,0-.68-1.88c-.24-.56-.46-1.16-.68-1.8a24.73,24.73,0,0,1,5.68-2.28,28.93,28.93,0,0,1,7.84-1q7.44,0,11,3.72t3.6,10.2v25.44h-4l-1.28-7.52a23.17,23.17,0,0,1-2.16,3.16,13.78,13.78,0,0,1-2.84,2.64,12.48,12.48,0,0,1-3.76,1.8,17.26,17.26,0,0,1-5,.64,14.26,14.26,0,0,1-4.6-.72,10.64,10.64,0,0,1-3.72-2.16,10.26,10.26,0,0,1-2.52-3.56,12.3,12.3,0,0,1-.92-4.92q0-6.48,4.44-9.68t12.44-3.2h8.8Zm0,5.92h-8.88c-3.84,0-6.73.78-8.68,2.32a8,8,0,0,0-2.92,6.64,6.74,6.74,0,0,0,2.16,5.44,8,8,0,0,0,5.36,1.84,12.9,12.9,0,0,0,5.36-1.08,12.76,12.76,0,0,0,4.08-2.84,12.6,12.6,0,0,0,2.6-4,11.55,11.55,0,0,0,.92-4.48Z" transform="translate(-940.57 -1229.74)"/><path class="cls-1" d="M1332.67,1477.23h-5.44v-54.16h5.44Z" transform="translate(-940.57 -1229.74)"/><path class="cls-1" d="M1351.87,1466.83A9.82,9.82,0,0,0,1353,1472c.72,1.15,2.15,1.72,4.28,1.72a14,14,0,0,0,3.32-.36,12.73,12.73,0,0,0,2.76-1c.22.7.43,1.31.64,1.84s.43,1.15.64,1.84a12.3,12.3,0,0,1-3.44,1.4,19.09,19.09,0,0,1-4.8.52q-4.87,0-7.28-2.64t-2.4-8.4v-24.08h-6.24v-4.24h6.24l1.6-11.2h3.6v11.2H1364v4.24h-12.16Z" transform="translate(-940.57 -1229.74)"/><path class="cls-1" d="M1378,1477.23h-5.36v-54.16H1378v22.16a20.82,20.82,0,0,1,9.72-6.64,14.71,14.71,0,0,1,4.6-.72q6.17,0,9.6,4t3.44,11.08v24.32h-5.2v-24.32a11.22,11.22,0,0,0-2.36-7.56,8,8,0,0,0-6.44-2.76,15.07,15.07,0,0,0-7.68,2,17.92,17.92,0,0,0-5.68,5.08Z" transform="translate(-940.57 -1229.74)"/><path class="cls-1" d="M1443.31,1468.67a21.44,21.44,0,0,1-2.16,2.92,18.14,18.14,0,0,1-3,2.76,15.17,15.17,0,0,1-3.88,2.08,13.33,13.33,0,0,1-4.72.8q-5.91,0-9.32-3.6t-3.4-11.44v-23.6h5.2v23.6q0,5,2.16,7.68a7.31,7.31,0,0,0,6.08,2.72,12.07,12.07,0,0,0,4.2-.72,15,15,0,0,0,3.6-1.88,16.94,16.94,0,0,0,3-2.64,19.9,19.9,0,0,0,2.28-3.08v-25.68h5.44v36q0,9.6-4.52,14.28t-12.76,4.68a28.42,28.42,0,0,1-7.36-1,19.49,19.49,0,0,1-5.76-2.4c.22-.69.47-1.41.76-2.16s.55-1.44.76-2.08A22.24,22.24,0,0,0,1425,1488a22.83,22.83,0,0,0,6.12.8,17,17,0,0,0,5.2-.72,9,9,0,0,0,3.8-2.36,10.45,10.45,0,0,0,2.36-4.4,25.07,25.07,0,0,0,.8-6.84Z" transform="translate(-940.57 -1229.74)"/><path class="cls-1" d="M1512,1473.23a24.32,24.32,0,0,1-15.12,4.72,23.76,23.76,0,0,1-7.88-1.16,15.53,15.53,0,0,1-5.52-3.2,12.49,12.49,0,0,1-3.24-4.72,15.7,15.7,0,0,1-1-5.72,14.08,14.08,0,0,1,.92-5.2,17.33,17.33,0,0,1,2.4-4.24,21.56,21.56,0,0,1,3.44-3.52,49.72,49.72,0,0,1,4-3l-1-1.52-.64-.88a62.38,62.38,0,0,1-3.48-5.24,11.2,11.2,0,0,1-1.48-5.8,10.53,10.53,0,0,1,3.36-8.08q3.36-3.12,9.52-3.12a16.29,16.29,0,0,1,5.64.88,10.42,10.42,0,0,1,3.88,2.44,9.8,9.8,0,0,1,2.24,3.6,13,13,0,0,1,.72,4.36,9.39,9.39,0,0,1-1,4.36,15,15,0,0,1-2.64,3.64,28.89,28.89,0,0,1-3.8,3.24q-2.16,1.56-4.56,3.08l15.12,18a21.37,21.37,0,0,0,2.6-6,25.71,25.71,0,0,0,.84-6.56V1450h5.36v3.6a28.23,28.23,0,0,1-1.4,9,24.8,24.8,0,0,1-4,7.52l5.84,7h-5.76Zm-14.8-.24a21.57,21.57,0,0,0,6.28-.88,14.51,14.51,0,0,0,5.16-2.72l-15.52-18.72a30.46,30.46,0,0,0-5.84,5.44,10.62,10.62,0,0,0-2.32,6.88,9.06,9.06,0,0,0,3.16,7.32C1490.18,1472.1,1493.2,1473,1497.15,1473Zm-8.64-39q0,4.89,4.48,9.68v-.08l1,1.2q1.92-1.2,3.68-2.44a20.91,20.91,0,0,0,3-2.56,11.84,11.84,0,0,0,2-2.8,6.76,6.76,0,0,0,.76-3.16,7.08,7.08,0,0,0-1.76-5q-1.76-1.92-5.6-1.92a8.55,8.55,0,0,0-5.4,1.72A6.33,6.33,0,0,0,1488.51,1434Z" transform="translate(-940.57 -1229.74)"/><path class="cls-1" d="M1580,1462.27h-23.76l-5.44,15h-5.6l20.08-53.92H1571q5,13.61,10,27t10,27h-5.6Zm-21.92-4.88h20.08l-6.16-16.56c-.59-1.86-1.21-3.86-1.88-6s-1.29-4.1-1.88-5.92c-.69,1.76-1.39,3.74-2.08,5.92s-1.33,4.19-1.92,6Z" transform="translate(-940.57 -1229.74)"/><path class="cls-1" d="M1614,1442.11a13.75,13.75,0,0,0-6,1.2,11.55,11.55,0,0,0-4.16,3.28,14,14,0,0,0-2.44,5,25.36,25.36,0,0,0,0,12.64,13.88,13.88,0,0,0,2.48,5,11.51,11.51,0,0,0,4.24,3.32,14.43,14.43,0,0,0,6.16,1.2,22.06,22.06,0,0,0,5-.56,22.82,22.82,0,0,0,4.72-1.6l1.2,3.84a23.89,23.89,0,0,1-5.2,1.92,26.14,26.14,0,0,1-6.16.64,19.94,19.94,0,0,1-8.16-1.52,15.83,15.83,0,0,1-5.76-4.24,17.57,17.57,0,0,1-3.44-6.4,28.56,28.56,0,0,1,0-15.84,17.31,17.31,0,0,1,3.44-6.36,16.11,16.11,0,0,1,5.84-4.2,20.71,20.71,0,0,1,8.24-1.52,24.64,24.64,0,0,1,5.8.64,28,28,0,0,1,5,1.76,19.83,19.83,0,0,1-.6,2c-.24.67-.44,1.3-.6,1.88a29.59,29.59,0,0,0-4.44-1.44A22.48,22.48,0,0,0,1614,1442.11Z" transform="translate(-940.57 -1229.74)"/><path class="cls-1" d="M1640.83,1466.83a9.82,9.82,0,0,0,1.08,5.16c.72,1.15,2.15,1.72,4.28,1.72a14.07,14.07,0,0,0,3.32-.36,12.73,12.73,0,0,0,2.76-1c.21.7.43,1.31.64,1.84s.42,1.15.64,1.84a12.43,12.43,0,0,1-3.44,1.4,19.15,19.15,0,0,1-4.8.52q-4.87,0-7.28-2.64t-2.4-8.4v-24.08h-6.24v-4.24h6.24l1.6-11.2h3.6v11.2H1653v4.24h-12.16Z" transform="translate(-940.57 -1229.74)"/><path class="cls-1" d="M1660.75,1426a3.79,3.79,0,0,1,1-2.68,4.33,4.33,0,0,1,5.72,0,4.22,4.22,0,0,1,0,5.36,4.33,4.33,0,0,1-5.72,0A3.77,3.77,0,0,1,1660.75,1426Zm6.56,51.2h-5.44v-38.64h5.44Z" transform="translate(-940.57 -1229.74)"/><path class="cls-1" d="M1689.23,1477.23l-14.08-38.64h5.52q1.68,4.89,3.52,9.88t3.52,9.88l1.44,4.72,2.8,9.44c.43-1.38.92-3,1.48-4.72s1-3.33,1.48-4.72l1.44-4.72,7-19.76h5.44l-14,38.64Z" transform="translate(-940.57 -1229.74)"/><path class="cls-1" d="M1718.51,1460.27q.48,6.4,4,9.92t10,3.52a27.64,27.64,0,0,0,5.32-.52,20.83,20.83,0,0,0,4.92-1.56l1.2,3.84A28.54,28.54,0,0,1,1732,1478q-9.36,0-14-5.44t-4.6-14.64a28.83,28.83,0,0,1,1-7.92,17.91,17.91,0,0,1,3.16-6.36,14.66,14.66,0,0,1,5.4-4.2,18.55,18.55,0,0,1,7.84-1.52q7.44,0,11.28,4.24t3.84,11.68a28.33,28.33,0,0,1-.2,3.44,23,23,0,0,1-.6,3Zm12.32-18.4a12.51,12.51,0,0,0-5.4,1.08,10,10,0,0,0-3.76,3,13.82,13.82,0,0,0-2.24,4.64,25.86,25.86,0,0,0-.92,5.88h22.32a4.53,4.53,0,0,0,.16-1.44v-1.28c0-3.84-.78-6.78-2.32-8.84S1734.51,1441.87,1730.83,1441.87Z" transform="translate(-940.57 -1229.74)"/><path class="cls-1" d="M1196.35,1279.3h58.83q19.21,0,28.79,9.14t9.57,26q0,17.35-10.43,27.11t-31.84,9.77H1231.9v42.5h-35.55Zm35.55,48.83h8.67q10.23,0,14.38-3.56a11.45,11.45,0,0,0,4.14-9.1,12.71,12.71,0,0,0-3.6-9.14q-3.59-3.75-13.51-3.75H1231.9Z" transform="translate(-940.57 -1229.74)"/><path class="cls-1" d="M1311.06,1279.3h35.47v114.53h-35.47Z" transform="translate(-940.57 -1229.74)"/><path class="cls-1" d="M1367,1279.3h33l43.13,63.36V1279.3h33.36v114.53h-33.36l-42.89-62.89v62.89H1367Z" transform="translate(-940.57 -1229.74)"/><path class="cls-1" d="M1570.69,1374.92h-40.18l-5.58,18.91h-36.14l43-114.53h38.61l43,114.53h-37.06Zm-7.34-24.76L1550.71,1309l-12.51,41.17Z" transform="translate(-940.57 -1229.74)"/><path class="cls-1" d="M1630.33,1279.3h35.39v86.33H1721v28.2h-90.63Z" transform="translate(-940.57 -1229.74)"/></g><g id="logo"><path id="orange_peel" data-name="orange peel" class="cls-1" d="M1152.86,1402.53a109.43,109.43,0,0,1-11.27,74.46A103.67,103.67,0,0,1,999,1517.45h0A109.44,109.44,0,0,1,950.26,1460l11.23-3.19a97.82,97.82,0,0,0,43.22,50.48v0a92.06,92.06,0,0,0,126.66-36,97.81,97.81,0,0,0,10.27-65.65Z" transform="translate(-940.57 -1229.74)"/><path id="orange_slices" data-name="orange slices" class="cls-2" d="M1001.07,1491.91a74.81,74.81,0,0,1-27.37-38.59c70.93-20.13,63.3-25.8,27.37,38.59m64,14.12a82.24,82.24,0,0,1-51.25-6.43C1053.16,1429.19,1043.1,1428.46,1065.12,1506Zm54.56-37a82.17,82.17,0,0,1-40.22,32.88C1057.32,1423.89,1048.86,1429.52,1119.68,1469Zm9.45-59.82a74.7,74.7,0,0,1-2.73,46.49C1063.06,1420.36,1059.35,1429,1129.13,1409.21Z" transform="translate(-940.57 -1229.74)"/><path id="biker" class="cls-2" d="M1013.51,1230.56a21.5,21.5,0,1,1-14.82,26.55,21.51,21.51,0,0,1,14.82-26.55Zm31.13,120.69,13.4-24-16.71,4.75-4.31-6.56,24.71-7-7.19-12-23.81,2.82a10.45,10.45,0,0,1-6.94-1.79l-11.36-7.42-8.08,19.72,23.87,9.37c3.93,1.55,7.35,4.28,8.29,8.62l8.56,39.66c3.06,14.14-15.36,19-19.14,5l-9.15-33.73-35.35-10.08c-7.67-2.19-15.14-9.66-9.95-22.32l13.1-32c4.87-11.89,19.93-13.35,28.66-5.9l19.58,16.72,21.94-1.78c6.71-.55,9.35,6,6.69,10l16.79,28.12a41.72,41.72,0,0,1,6.17-2.32,39.52,39.52,0,1,1-12.6,6.16l-5-8.39L1047,1362.33l-2.4-11.08Zm43.82,11.94-11.91-20a30.34,30.34,0,1,0,10.37-5.26,31.73,31.73,0,0,0-3.94,1.42l11.91,20a7.83,7.83,0,1,1-6.43,3.84Zm-106.87,26.32,9.95-17.8a30.35,30.35,0,1,0,18.57,23.5l-19.62,5.57a10.42,10.42,0,1,1-8.9-11.27ZM996,1363.66l7.39-13.22,7.27,2.25-8.15,14.6a39.61,39.61,0,1,1-6.51-3.63Zm2,11.69-9.94,17.81.33.41,19.62-5.56a30.32,30.32,0,0,0-10-12.66Z" transform="translate(-940.57 -1229.74)"/></g></svg>