<svg xmlns="http://www.w3.org/2000/svg" viewBox="0 0 181.87 276.03"><defs><style>.cls-1{isolation:isolate;}.cls-14,.cls-2{fill:#90278e;}.cls-3{fill:#b9d432;mix-blend-mode:darken;}.cls-13,.cls-4,.cls-9{fill:#26a9e0;}.cls-10,.cls-12,.cls-14,.cls-15,.cls-4,.cls-8{mix-blend-mode:multiply;}.cls-15,.cls-5{fill:#faaf40;}.cls-13,.cls-5{mix-blend-mode:overlay;}.cls-6{fill:#506fb5;}.cls-7,.cls-8{fill:#db256b;}.cls-10{fill:#652d90;}.cls-11{fill:#7f3f97;}.cls-12{fill:#742776;}.cls-16{fill:#fff;}</style></defs><g class="cls-1"><g id="Layer_1" data-name="Layer 1"><rect class="cls-2" x="139.52" y="95.77" width="11.34" height="11.34"/><rect class="cls-3" x="151.9" y="25.9" width="14.32" height="14.32"/><path class="cls-4" d="M304.31,210.23h12.2V195.9h-7.38A111.1,111.1,0,0,1,304.31,210.23Z" transform="translate(-162.12 -130.47)"/><path class="cls-5" d="M300.59,152.29c1,1.49,1.9,3,2.73,4.39h4V141.3H291.94v.79A58.66,58.66,0,0,1,300.59,152.29Z" transform="translate(-162.12 -130.47)"/><rect class="cls-6" x="159.98" y="47.92" width="12.49" height="12.49"/><rect class="cls-7" x="154.9" y="5.75" width="10.17" height="10.17"/><polygon class="cls-6" points="108.71 64.45 108.71 72.78 137.51 72.78 137.51 43.97 114.32 43.97 114.32 64.45 108.71 64.45"/><polygon class="cls-8" points="103.44 64.45 108.71 64.45 108.71 43.97 114.32 43.97 114.32 40.22 90.09 40.22 90.09 49.85 103.44 49.85 103.44 64.45"/><rect class="cls-6" x="108.71" y="43.97" width="5.61" height="20.48"/><rect class="cls-8" x="108.71" y="43.97" width="5.61" height="20.48"/><polygon class="cls-9" points="106.35 19.33 99.48 19.33 99.48 33.06 118.86 33.06 118.86 13.67 106.35 13.67 106.35 19.33"/><path class="cls-4" d="M302.18,195.9v14.33h2.13a111.1,111.1,0,0,0,4.82-14.33Z" transform="translate(-162.12 -130.47)"/><path class="cls-5" d="M303.32,156.68c-.83-1.44-1.73-2.9-2.73-4.39a58.66,58.66,0,0,0-8.65-10.2v14.59Z" transform="translate(-162.12 -130.47)"/><polygon class="cls-10" points="106.35 13.67 106.35 0 87.03 0 87.03 19.33 99.48 19.33 99.48 13.67 106.35 13.67"/><rect class="cls-9" x="99.48" y="13.67" width="6.88" height="5.66"/><rect class="cls-10" x="99.48" y="13.67" width="6.88" height="5.66"/><path class="cls-11" d="M206.79,264.38V237.94H184.7a2.43,2.43,0,0,0,.16.37c1.11,2.08-.42,2.63.42,4.71s3,4.15,4.15,7.06-3.93,8,.54,15c2.81,4.38,7.77,3.17,18,3.31,1.69,0,3.17,0,4.48,0v-4Z" transform="translate(-162.12 -130.47)"/><polygon class="cls-12" points="57.01 107.47 57.01 127.33 76.55 127.33 76.55 112.47 82.81 112.47 82.81 101.6 57.01 101.6 57.01 107.47"/><polygon class="cls-11" points="44.67 133.91 50.35 133.91 50.35 127.33 57.01 127.33 57.01 107.47 44.67 107.47 44.67 133.91"/><polygon class="cls-12" points="44.67 133.91 50.35 133.91 50.35 127.33 57.01 127.33 57.01 107.47 44.67 107.47 44.67 133.91"/><path class="cls-8" d="M206.79,226.24h7V197.61H186.11c-3.39,5.92-11.28,19.85-11.5,21.59-.27,2.22.28,4.71,3.6,5.54s7.76,1.24,7.62,3.6a26,26,0,0,1-1.52,5.95,5.83,5.83,0,0,0,.39,3.65h22.09Z" transform="translate(-162.12 -130.47)"/><polygon class="cls-12" points="51.7 95.77 44.67 95.77 44.67 107.47 57.01 107.47 57.01 101.6 51.7 101.6 51.7 95.77"/><polygon class="cls-8" points="51.7 95.77 44.67 95.77 44.67 107.47 57.01 107.47 57.01 101.6 51.7 101.6 51.7 95.77"/><polygon class="cls-9" points="61.96 30.05 61.96 49.85 84.03 49.85 84.03 39.3 83.29 39.3 83.29 26.81 84.03 26.81 84.03 22.83 63.15 22.83 63.15 30.05 61.96 30.05"/><polygon class="cls-5" points="61.96 59.61 61.96 67.14 57.01 67.14 57.01 95.77 82.81 95.77 82.81 101.6 103.44 101.6 103.44 99.85 99.48 99.85 99.48 75.57 103.44 75.57 103.44 64.45 90.09 64.45 90.09 49.85 84.03 49.85 84.03 59.61 61.96 59.61"/><rect class="cls-8" x="90.09" y="49.86" width="13.35" height="14.6"/><rect class="cls-5" x="90.09" y="49.86" width="13.35" height="14.6"/><rect class="cls-12" x="57.01" y="95.77" width="25.8" height="5.83"/><rect class="cls-5" x="57.01" y="95.77" width="25.8" height="5.83"/><rect class="cls-8" x="51.7" y="67.14" width="5.31" height="28.63"/><rect class="cls-5" x="51.7" y="67.14" width="5.31" height="28.63"/><rect class="cls-12" x="51.7" y="95.77" width="5.31" height="5.83"/><rect class="cls-8" x="51.7" y="95.77" width="5.31" height="5.83"/><rect class="cls-5" x="51.7" y="95.77" width="5.31" height="5.83"/><rect class="cls-9" x="61.96" y="49.86" width="22.07" height="9.75"/><rect class="cls-5" x="61.96" y="49.86" width="22.07" height="9.75"/><polygon class="cls-13" points="96.48 127.33 96.48 135.16 103.54 135.16 103.54 112.47 82.81 112.47 82.81 127.33 96.48 127.33"/><rect class="cls-12" x="76.55" y="112.47" width="6.26" height="14.86"/><rect class="cls-13" x="76.55" y="112.47" width="6.26" height="14.86"/><rect class="cls-7" x="110.07" y="105.94" width="20.12" height="20.13"/><rect class="cls-9" x="103.44" y="75.57" width="20.32" height="24.28"/><rect class="cls-5" x="99.48" y="75.57" width="3.96" height="24.28"/><rect class="cls-9" x="99.48" y="75.57" width="3.96" height="24.28"/><path class="cls-3" d="M209.37,160.52H193.5c-2.79,6.31-7.66,20.28-7.33,24.29a11,11,0,0,0,.42,2.14h22.78Z" transform="translate(-162.12 -130.47)"/><path class="cls-8" d="M213.82,190.08h-4.45V187H186.59c.93,3.07,2.83,4.89,1,8l-1.52,2.64h27.71Z" transform="translate(-162.12 -130.47)"/><path class="cls-3" d="M213.82,190.08h-4.45V187H186.59c.93,3.07,2.83,4.89,1,8l-1.52,2.64h27.71Z" transform="translate(-162.12 -130.47)"/><polygon class="cls-9" points="47.25 56.48 51.7 56.48 51.7 49.85 61.96 49.85 61.96 30.05 47.25 30.05 47.25 56.48"/><polygon class="cls-3" points="47.25 56.48 51.7 56.48 51.7 49.85 61.96 49.85 61.96 30.05 47.25 30.05 47.25 56.48"/><rect class="cls-8" x="47.25" y="56.48" width="4.45" height="3.13"/><rect class="cls-9" x="47.25" y="56.48" width="4.45" height="3.13"/><rect class="cls-3" x="47.25" y="56.48" width="4.45" height="3.13"/><rect class="cls-5" x="57.01" y="59.61" width="4.95" height="7.53"/><rect class="cls-3" x="57.01" y="59.61" width="4.95" height="7.53"/><rect class="cls-8" x="51.7" y="59.61" width="5.31" height="7.53"/><rect class="cls-5" x="51.7" y="59.61" width="5.31" height="7.53"/><rect class="cls-3" x="51.7" y="59.61" width="5.31" height="7.53"/><polygon class="cls-9" points="51.7 56.48 57.01 56.48 57.01 59.61 61.96 59.61 61.96 49.85 51.7 49.85 51.7 56.48"/><polygon class="cls-5" points="51.7 56.48 57.01 56.48 57.01 59.61 61.96 59.61 61.96 49.85 51.7 49.85 51.7 56.48"/><polygon class="cls-3" points="51.7 56.48 57.01 56.48 57.01 59.61 61.96 59.61 61.96 49.85 51.7 49.85 51.7 56.48"/><rect class="cls-8" x="51.7" y="56.48" width="5.31" height="3.13"/><rect class="cls-9" x="51.7" y="56.48" width="5.31" height="3.13"/><rect class="cls-5" x="51.7" y="56.48" width="5.31" height="3.13"/><rect class="cls-3" x="51.7" y="56.48" width="5.31" height="3.13"/><path class="cls-4" d="M195.13,157.34h14.24v-4h15.9V133.17C209,138.91,198.45,151.94,195.13,157.34Z" transform="translate(-162.12 -130.47)"/><polygon class="cls-9" points="47.25 26.87 61.96 26.87 61.96 30.05 63.15 30.05 63.15 22.83 47.25 22.83 47.25 26.87"/><polygon class="cls-4" points="47.25 26.87 61.96 26.87 61.96 30.05 63.15 30.05 63.15 22.83 47.25 22.83 47.25 26.87"/><path class="cls-3" d="M209.37,157.34H195.13c-.29.47-.53.89-.71,1.23-.27.51-.58,1.18-.92,2h15.87Z" transform="translate(-162.12 -130.47)"/><path class="cls-4" d="M209.37,157.34H195.13c-.29.47-.53.89-.71,1.23-.27.51-.58,1.18-.92,2h15.87Z" transform="translate(-162.12 -130.47)"/><rect class="cls-9" x="47.25" y="26.87" width="14.71" height="3.17"/><rect class="cls-3" x="47.25" y="26.87" width="14.71" height="3.17"/><rect class="cls-4" x="47.25" y="26.87" width="14.71" height="3.17"/><rect class="cls-6" x="84.03" y="26.81" width="11.75" height="12.49"/><rect class="cls-6" x="83.29" y="26.81" width="0.74" height="12.49"/><path class="cls-14" d="M258.6,289.87h-6.39V269.93H238.67v-5.55H219.13v4.79c2.16,1,3.74,3.19,5.75,7.91,3.12,7.35,7,20.31,8.84,26.85H258.6Z" transform="translate(-162.12 -130.47)"/><path class="cls-11" d="M212.47,268.35c2.9,0,5,0,6.66.82v-4.79h-6.66Z" transform="translate(-162.12 -130.47)"/><path class="cls-14" d="M212.47,268.35c2.9,0,5,0,6.66.82v-4.79h-6.66Z" transform="translate(-162.12 -130.47)"/><rect class="cls-12" x="57.01" y="127.33" width="19.54" height="6.57"/><rect class="cls-14" x="57.01" y="127.33" width="19.54" height="6.57"/><rect class="cls-11" x="50.35" y="127.33" width="6.66" height="6.57"/><rect class="cls-12" x="50.35" y="127.33" width="6.66" height="6.57"/><rect class="cls-14" x="50.35" y="127.33" width="6.66" height="6.57"/><polygon class="cls-13" points="96.48 135.16 96.48 127.33 82.81 127.33 82.81 133.91 76.55 133.91 76.55 139.46 90.09 139.46 90.09 135.16 96.48 135.16"/><polygon class="cls-14" points="96.48 135.16 96.48 127.33 82.81 127.33 82.81 133.91 76.55 133.91 76.55 139.46 90.09 139.46 90.09 135.16 96.48 135.16"/><rect class="cls-12" x="76.55" y="127.33" width="6.26" height="6.57"/><rect class="cls-13" x="76.55" y="127.33" width="6.26" height="6.57"/><rect class="cls-14" x="76.55" y="127.33" width="6.26" height="6.57"/><polygon class="cls-15" points="96.48 139.46 96.48 159.4 114.32 159.4 114.32 135.16 103.54 135.16 103.54 139.46 96.48 139.46"/><rect class="cls-13" x="96.48" y="135.16" width="7.06" height="4.3"/><rect class="cls-15" x="96.48" y="135.16" width="7.06" height="4.3"/><rect class="cls-14" x="90.09" y="139.46" width="6.39" height="19.94"/><rect class="cls-15" x="90.09" y="139.46" width="6.39" height="19.94"/><rect class="cls-13" x="90.09" y="135.16" width="6.39" height="4.3"/><rect class="cls-14" x="90.09" y="135.16" width="6.39" height="4.3"/><rect class="cls-15" x="90.09" y="135.16" width="6.39" height="4.3"/><path class="cls-16" d="M178.34,368.94H170.9l-8.78-25.83h7.44l5,15.6,5-15.6h7l5,15.6,5-15.6h7.49l-8.79,25.83H187.9l-4.76-14.07Z" transform="translate(-162.12 -130.47)"/><path class="cls-16" d="M230.33,365.19a14.42,14.42,0,0,1-10.25,4.13,13.62,13.62,0,0,1-9.72-3.62,12.74,12.74,0,0,1-3.84-9.72,12.53,12.53,0,0,1,3.91-9.7,13.2,13.2,0,0,1,9.24-3.6,13.34,13.34,0,0,1,9.05,3.22,11,11,0,0,1,3.72,8.83v3.84H213.62a5.12,5.12,0,0,0,2.21,3.45,7.05,7.05,0,0,0,4.22,1.35,8.27,8.27,0,0,0,6.24-2.55Zm-6.92-15.31a5.46,5.46,0,0,0-3.62-1.25,6.45,6.45,0,0,0-3.91,1.3,5,5,0,0,0-2.07,3.5h11.33A5.08,5.08,0,0,0,223.41,349.88Z" transform="translate(-162.12 -130.47)"/><path class="cls-16" d="M256.49,364.57a10.94,10.94,0,0,1-8.47,3.79,11.7,11.7,0,0,1-8.55-3.43,12.31,12.31,0,0,1-3.48-9.17,12.92,12.92,0,0,1,3.58-9.41,11.1,11.1,0,0,1,8.18-3.67,9.38,9.38,0,0,1,7.63,3.79v-3.41h7.2v22.52a14.92,14.92,0,0,1-1.2,6.14,10.61,10.61,0,0,1-3.21,4.22,14.62,14.62,0,0,1-9.41,3.17,19.8,19.8,0,0,1-5.88-.93,17,17,0,0,1-5.26-2.67l2.79-5.42a12.24,12.24,0,0,0,7.51,2.69,9.32,9.32,0,0,0,6.26-2Q256.49,368.85,256.49,364.57Zm-1-9.1a6.71,6.71,0,0,0-1.73-4.87,5.74,5.74,0,0,0-4.27-1.78,6.13,6.13,0,0,0-4.39,1.78,6.39,6.39,0,0,0-1.85,4.85,6.93,6.93,0,0,0,1.8,5,5.83,5.83,0,0,0,4.39,1.89,5.62,5.62,0,0,0,4.32-1.87A7,7,0,0,0,255.48,355.47Z" transform="translate(-162.12 -130.47)"/><path class="cls-16" d="M276.36,354.54v14.4h-7.2V343.11h7.2V346a10.05,10.05,0,0,1,7.34-3.31,9.09,9.09,0,0,1,6.84,2.88,10.64,10.64,0,0,1,2.76,7.68v15.7h-7.2v-14.6c0-4-1.45-5.95-4.37-5.95A5.22,5.22,0,0,0,278,350,6.08,6.08,0,0,0,276.36,354.54Z" transform="translate(-162.12 -130.47)"/><path class="cls-16" d="M322,365.19a14.41,14.41,0,0,1-10.25,4.13A13.62,13.62,0,0,1,302,365.7a12.74,12.74,0,0,1-3.84-9.72,12.53,12.53,0,0,1,3.91-9.7,13.2,13.2,0,0,1,9.24-3.6,13.34,13.34,0,0,1,9.05,3.22,11,11,0,0,1,3.72,8.83v3.84H305.25a5.12,5.12,0,0,0,2.21,3.45,7.06,7.06,0,0,0,4.23,1.35,8.3,8.3,0,0,0,6.24-2.55Zm-6.91-15.31a5.48,5.48,0,0,0-3.63-1.25,6.45,6.45,0,0,0-3.91,1.3,5,5,0,0,0-2.06,3.5h11.32A5.12,5.12,0,0,0,315.05,349.88Z" transform="translate(-162.12 -130.47)"/><path class="cls-16" d="M342.6,349.45a5.44,5.44,0,0,0-4.8,2.28,10.33,10.33,0,0,0-1.59,6v11.19H329V343.11h7.2v3.41a12.16,12.16,0,0,1,3.48-2.69,9.54,9.54,0,0,1,4.25-1.15l.05,6.77Z" transform="translate(-162.12 -130.47)"/><path class="cls-16" d="M189.65,400.91a7.26,7.26,0,0,1-7.54,5.59c-5.72,0-8.67-4.45-8.67-10,0-5.29,2.92-10.09,8.73-10.09,4.39,0,6.89,2.47,7.5,5.74h-2a5.33,5.33,0,0,0-5.59-4c-4.62,0-6.53,4.2-6.53,8.3s1.86,8.27,6.64,8.27a5.42,5.42,0,0,0,5.46-3.85Z" transform="translate(-162.12 -130.47)"/><path class="cls-16" d="M200.74,397.38v8.89h-2V386.73H206c3.93,0,6,2.11,6,5.17a4.44,4.44,0,0,1-3.51,4.59c1.82.46,3.18,1.71,3.18,5.07v.79a13.2,13.2,0,0,0,.26,3.92h-2a13.19,13.19,0,0,1-.3-4.13v-.47c0-3-.88-4.29-4.51-4.29Zm0-1.75h4.51c3.23,0,4.7-1.22,4.7-3.62,0-2.25-1.47-3.53-4.34-3.53h-4.87Z" transform="translate(-162.12 -130.47)"/><path class="cls-16" d="M233.5,396.88h-9.86v7.62h10.81l-.27,1.77H221.67V386.73H234v1.76H223.64v6.62h9.86Z" transform="translate(-162.12 -130.47)"/><path class="cls-16" d="M246,399.92l-2.32,6.35h-2l7.07-19.54h2.43l7.38,19.54h-2.15L254,399.92Zm7.46-1.77c-2-5.51-3.11-8.27-3.52-9.66h0c-.47,1.56-1.68,4.95-3.32,9.66Z" transform="translate(-162.12 -130.47)"/><path class="cls-16" d="M268.43,388.49H262v-1.76h14.94v1.76h-6.47v17.78h-2Z" transform="translate(-162.12 -130.47)"/><path class="cls-16" d="M286.8,386.73v19.54h-2V386.73Z" transform="translate(-162.12 -130.47)"/><path class="cls-16" d="M302.07,406.27l-7.2-19.54H297l3.63,10c1.06,2.92,2.18,6,2.61,7.73h.05c.42-1.52,1.66-4.77,2.72-7.63l3.77-10.1h2.09l-7.46,19.54Z" transform="translate(-162.12 -130.47)"/><path class="cls-16" d="M331.92,396.88h-9.86v7.62h10.81l-.27,1.77H320.09V386.73H332.4v1.76H322.06v6.62h9.86Z" transform="translate(-162.12 -130.47)"/></g></g></svg>