<svg xmlns="http://www.w3.org/2000/svg" viewBox="0 0 611 173.46"><defs><style>.cls-1{isolation:isolate;}.cls-14,.cls-2{fill:#90278e;}.cls-3{fill:#b9d432;mix-blend-mode:darken;}.cls-13,.cls-4,.cls-9{fill:#26a9e0;}.cls-10,.cls-12,.cls-14,.cls-15,.cls-4,.cls-8{mix-blend-mode:multiply;}.cls-15,.cls-5{fill:#faaf40;}.cls-13,.cls-5{mix-blend-mode:overlay;}.cls-6{fill:#506fb5;}.cls-7,.cls-8{fill:#db256b;}.cls-10{fill:#652d90;}.cls-11{fill:#7f3f97;}.cls-12{fill:#742776;}.cls-16{font-size:48px;font-family:Montserrat-Bold, Montserrat;font-weight:700;letter-spacing:-0.01em;}</style></defs><g class="cls-1"><g id="Layer_1" data-name="Layer 1"><rect class="cls-2" x="127.09" y="95.77" width="11.34" height="11.34"/><rect class="cls-3" x="139.47" y="25.9" width="14.32" height="14.32"/><path class="cls-4" d="M194.31,109.72h12.2V95.39h-7.38A110.59,110.59,0,0,1,194.31,109.72Z" transform="translate(-64.55 -29.96)"/><path class="cls-5" d="M190.59,51.79c1,1.48,1.9,2.94,2.73,4.38h4V40.79H181.94v.79A58.75,58.75,0,0,1,190.59,51.79Z" transform="translate(-64.55 -29.96)"/><rect class="cls-6" x="147.55" y="47.92" width="12.49" height="12.49"/><rect class="cls-7" x="142.46" y="5.75" width="10.17" height="10.17"/><polygon class="cls-6" points="96.28 64.45 96.28 72.78 125.08 72.78 125.08 43.97 101.89 43.97 101.89 64.45 96.28 64.45"/><polygon class="cls-8" points="91.01 64.45 96.28 64.45 96.28 43.97 101.89 43.97 101.89 40.22 77.66 40.22 77.66 49.85 91.01 49.85 91.01 64.45"/><rect class="cls-6" x="96.28" y="43.97" width="5.61" height="20.48"/><rect class="cls-8" x="96.28" y="43.97" width="5.61" height="20.48"/><polygon class="cls-9" points="93.92 19.33 87.05 19.33 87.05 33.06 106.43 33.06 106.43 13.67 93.92 13.67 93.92 19.33"/><path class="cls-4" d="M192.18,95.39v14.33h2.13a110.59,110.59,0,0,0,4.82-14.33Z" transform="translate(-64.55 -29.96)"/><path class="cls-5" d="M193.32,56.17c-.83-1.44-1.73-2.9-2.73-4.38a58.75,58.75,0,0,0-8.65-10.21V56.17Z" transform="translate(-64.55 -29.96)"/><polygon class="cls-10" points="93.92 13.67 93.92 0 74.59 0 74.59 19.33 87.05 19.33 87.05 13.67 93.92 13.67"/><rect class="cls-9" x="87.05" y="13.67" width="6.88" height="5.66"/><rect class="cls-10" x="87.05" y="13.67" width="6.88" height="5.66"/><path class="cls-11" d="M96.79,163.87V137.44H74.7a2.83,2.83,0,0,0,.16.36c1.11,2.08-.42,2.63.42,4.71s3,4.15,4.15,7.06-3.93,8,.54,15c2.81,4.38,7.77,3.16,18,3.3,1.69,0,3.17,0,4.48,0v-4Z" transform="translate(-64.55 -29.96)"/><polygon class="cls-12" points="44.58 107.47 44.58 127.33 64.11 127.33 64.11 112.47 70.38 112.47 70.38 101.6 44.58 101.6 44.58 107.47"/><polygon class="cls-11" points="32.24 133.91 37.92 133.91 37.92 127.33 44.58 127.33 44.58 107.47 32.24 107.47 32.24 133.91"/><polygon class="cls-12" points="32.24 133.91 37.92 133.91 37.92 127.33 44.58 127.33 44.58 107.47 32.24 107.47 32.24 133.91"/><path class="cls-8" d="M96.79,125.73h7V97.1H76.11C72.72,103,64.83,117,64.61,118.69c-.27,2.22.28,4.71,3.6,5.54s7.76,1.25,7.62,3.6a26,26,0,0,1-1.52,6,5.83,5.83,0,0,0,.39,3.65H96.79Z" transform="translate(-64.55 -29.96)"/><polygon class="cls-12" points="39.27 95.77 32.24 95.77 32.24 107.47 44.58 107.47 44.58 101.6 39.27 101.6 39.27 95.77"/><polygon class="cls-8" points="39.27 95.77 32.24 95.77 32.24 107.47 44.58 107.47 44.58 101.6 39.27 101.6 39.27 95.77"/><polygon class="cls-9" points="49.52 30.05 49.52 49.85 71.6 49.85 71.6 39.3 70.86 39.3 70.86 26.81 71.6 26.81 71.6 22.83 50.72 22.83 50.72 30.05 49.52 30.05"/><polygon class="cls-5" points="49.52 59.61 49.52 67.14 44.58 67.14 44.58 95.77 70.38 95.77 70.38 101.6 91.01 101.6 91.01 99.85 87.05 99.85 87.05 75.57 91.01 75.57 91.01 64.45 77.66 64.45 77.66 49.85 71.6 49.85 71.6 59.61 49.52 59.61"/><rect class="cls-8" x="77.66" y="49.86" width="13.35" height="14.6"/><rect class="cls-5" x="77.66" y="49.86" width="13.35" height="14.6"/><rect class="cls-12" x="44.57" y="95.77" width="25.8" height="5.83"/><rect class="cls-5" x="44.57" y="95.77" width="25.8" height="5.83"/><rect class="cls-8" x="39.27" y="67.14" width="5.31" height="28.63"/><rect class="cls-5" x="39.27" y="67.14" width="5.31" height="28.63"/><rect class="cls-12" x="39.27" y="95.77" width="5.31" height="5.83"/><rect class="cls-8" x="39.27" y="95.77" width="5.31" height="5.83"/><rect class="cls-5" x="39.27" y="95.77" width="5.31" height="5.83"/><rect class="cls-9" x="49.53" y="49.86" width="22.07" height="9.75"/><rect class="cls-5" x="49.53" y="49.86" width="22.07" height="9.75"/><polygon class="cls-13" points="84.05 127.33 84.05 135.16 91.11 135.16 91.11 112.47 70.38 112.47 70.38 127.33 84.05 127.33"/><rect class="cls-12" x="64.12" y="112.47" width="6.26" height="14.86"/><rect class="cls-13" x="64.12" y="112.47" width="6.26" height="14.86"/><rect class="cls-7" x="97.64" y="105.94" width="20.12" height="20.13"/><rect class="cls-9" x="91.01" y="75.57" width="20.32" height="24.28"/><rect class="cls-5" x="87.05" y="75.57" width="3.96" height="24.28"/><rect class="cls-9" x="87.05" y="75.57" width="3.96" height="24.28"/><path class="cls-3" d="M99.37,60H83.5c-2.79,6.31-7.66,20.28-7.33,24.29a11.22,11.22,0,0,0,.42,2.15H99.37Z" transform="translate(-64.55 -29.96)"/><path class="cls-8" d="M103.82,89.57H99.37V86.45H76.59c.93,3.06,2.83,4.89,1,8L76.11,97.1h27.71Z" transform="translate(-64.55 -29.96)"/><path class="cls-3" d="M103.82,89.57H99.37V86.45H76.59c.93,3.06,2.83,4.89,1,8L76.11,97.1h27.71Z" transform="translate(-64.55 -29.96)"/><polygon class="cls-9" points="34.82 56.48 39.27 56.48 39.27 49.85 49.52 49.85 49.52 30.05 34.82 30.05 34.82 56.48"/><polygon class="cls-3" points="34.82 56.48 39.27 56.48 39.27 49.85 49.52 49.85 49.52 30.05 34.82 30.05 34.82 56.48"/><rect class="cls-8" x="34.82" y="56.48" width="4.45" height="3.13"/><rect class="cls-9" x="34.82" y="56.48" width="4.45" height="3.13"/><rect class="cls-3" x="34.82" y="56.48" width="4.45" height="3.13"/><rect class="cls-5" x="44.57" y="59.61" width="4.95" height="7.53"/><rect class="cls-3" x="44.57" y="59.61" width="4.95" height="7.53"/><rect class="cls-8" x="39.27" y="59.61" width="5.31" height="7.53"/><rect class="cls-5" x="39.27" y="59.61" width="5.31" height="7.53"/><rect class="cls-3" x="39.27" y="59.61" width="5.31" height="7.53"/><polygon class="cls-9" points="39.27 56.48 44.58 56.48 44.58 59.61 49.52 59.61 49.52 49.85 39.27 49.85 39.27 56.48"/><polygon class="cls-5" points="39.27 56.48 44.58 56.48 44.58 59.61 49.52 59.61 49.52 49.85 39.27 49.85 39.27 56.48"/><polygon class="cls-3" points="39.27 56.48 44.58 56.48 44.58 59.61 49.52 59.61 49.52 49.85 39.27 49.85 39.27 56.48"/><rect class="cls-8" x="39.27" y="56.48" width="5.31" height="3.13"/><rect class="cls-9" x="39.27" y="56.48" width="5.31" height="3.13"/><rect class="cls-5" x="39.27" y="56.48" width="5.31" height="3.13"/><rect class="cls-3" x="39.27" y="56.48" width="5.31" height="3.13"/><path class="cls-4" d="M85.13,56.83H99.37v-4h15.9V32.66C99,38.4,88.45,51.44,85.13,56.83Z" transform="translate(-64.55 -29.96)"/><polygon class="cls-9" points="34.82 26.87 49.52 26.87 49.52 30.05 50.72 30.05 50.72 22.83 34.82 22.83 34.82 26.87"/><polygon class="cls-4" points="34.82 26.87 49.52 26.87 49.52 30.05 50.72 30.05 50.72 22.83 34.82 22.83 34.82 26.87"/><path class="cls-3" d="M99.37,56.83H85.13c-.29.47-.53.89-.71,1.24-.27.51-.58,1.17-.92,1.94H99.37Z" transform="translate(-64.55 -29.96)"/><path class="cls-4" d="M99.37,56.83H85.13c-.29.47-.53.89-.71,1.24-.27.51-.58,1.17-.92,1.94H99.37Z" transform="translate(-64.55 -29.96)"/><rect class="cls-9" x="34.82" y="26.87" width="14.71" height="3.17"/><rect class="cls-3" x="34.82" y="26.87" width="14.71" height="3.17"/><rect class="cls-4" x="34.82" y="26.87" width="14.71" height="3.17"/><rect class="cls-6" x="71.6" y="26.81" width="11.75" height="12.49"/><rect class="cls-6" x="70.86" y="26.81" width="0.74" height="12.49"/><path class="cls-14" d="M148.6,189.36h-6.39V169.43H128.67v-5.56H109.13v4.8c2.16,1,3.74,3.18,5.75,7.91,3.12,7.34,7,20.3,8.84,26.85H148.6Z" transform="translate(-64.55 -29.96)"/><path class="cls-11" d="M102.47,167.84c2.9,0,5,0,6.66.83v-4.8h-6.66Z" transform="translate(-64.55 -29.96)"/><path class="cls-14" d="M102.47,167.84c2.9,0,5,0,6.66.83v-4.8h-6.66Z" transform="translate(-64.55 -29.96)"/><rect class="cls-12" x="44.57" y="127.33" width="19.54" height="6.57"/><rect class="cls-14" x="44.57" y="127.33" width="19.54" height="6.57"/><rect class="cls-11" x="37.92" y="127.33" width="6.66" height="6.57"/><rect class="cls-12" x="37.92" y="127.33" width="6.66" height="6.57"/><rect class="cls-14" x="37.92" y="127.33" width="6.66" height="6.57"/><polygon class="cls-13" points="84.05 135.16 84.05 127.33 70.38 127.33 70.38 133.91 64.11 133.91 64.11 139.46 77.66 139.46 77.66 135.16 84.05 135.16"/><polygon class="cls-14" points="84.05 135.16 84.05 127.33 70.38 127.33 70.38 133.91 64.11 133.91 64.11 139.46 77.66 139.46 77.66 135.16 84.05 135.16"/><rect class="cls-12" x="64.12" y="127.33" width="6.26" height="6.57"/><rect class="cls-13" x="64.12" y="127.33" width="6.26" height="6.57"/><rect class="cls-14" x="64.12" y="127.33" width="6.26" height="6.57"/><polygon class="cls-15" points="84.05 139.46 84.05 159.4 101.89 159.4 101.89 135.16 91.11 135.16 91.11 139.46 84.05 139.46"/><rect class="cls-13" x="84.05" y="135.16" width="7.06" height="4.3"/><rect class="cls-15" x="84.05" y="135.16" width="7.06" height="4.3"/><rect class="cls-14" x="77.66" y="139.46" width="6.39" height="19.94"/><rect class="cls-15" x="77.66" y="139.46" width="6.39" height="19.94"/><rect class="cls-13" x="77.66" y="135.16" width="6.39" height="4.3"/><rect class="cls-14" x="77.66" y="135.16" width="6.39" height="4.3"/><rect class="cls-15" x="77.66" y="135.16" width="6.39" height="4.3"/><text class="cls-16" transform="translate(205.24 100.53)">wegner</text><path d="M496.53,122.55c-1.12,4-4.09,7-9.43,7-7.14,0-10.84-5.56-10.84-12.45,0-6.62,3.66-12.62,10.92-12.62,5.49,0,8.61,3.09,9.37,7.17h-2.49c-1-2.94-2.94-5-7-5-5.76,0-8.16,5.25-8.16,10.37s2.33,10.35,8.3,10.35c3.88,0,5.74-2.11,6.83-4.82Z" transform="translate(-64.55 -29.96)"/><path d="M510.39,118.13v11.12h-2.5V104.82H517c4.91,0,7.52,2.64,7.52,6.47a5.55,5.55,0,0,1-4.39,5.74c2.28.56,4,2.14,4,6.33v1c0,1.7-.11,3.92.32,4.9H522c-.45-1.05-.38-3-.38-5.16v-.58c0-3.78-1.1-5.38-5.64-5.38Zm0-2.19H516c4.05,0,5.88-1.51,5.88-4.51,0-2.82-1.84-4.42-5.42-4.42h-6.09Z" transform="translate(-64.55 -29.96)"/><path d="M551.34,117.51H539V127h13.51l-.34,2.21H536.55V104.82H552V107H539v8.27h12.32Z" transform="translate(-64.55 -29.96)"/><path d="M566.91,121.31,564,129.25h-2.51l8.85-24.43h3l9.23,24.43h-2.69l-3-7.94Zm9.33-2.21c-2.54-6.88-3.89-10.34-4.4-12.08h0c-.6,2-2.1,6.19-4.16,12.08Z" transform="translate(-64.55 -29.96)"/><path d="M595,107h-8.06v-2.21h18.67V107h-8.08v22.22H595Z" transform="translate(-64.55 -29.96)"/><path d="M618,104.82v24.43h-2.5V104.82Z" transform="translate(-64.55 -29.96)"/><path d="M637.05,129.25l-9-24.43h2.68l4.54,12.51c1.32,3.65,2.73,7.52,3.26,9.65h.07c.52-1.89,2.06-6,3.39-9.52l4.72-12.64h2.6L640,129.25Z" transform="translate(-64.55 -29.96)"/><path d="M674.36,117.51H662V127h13.51l-.34,2.21H659.57V104.82H675V107H662v8.27h12.32Z" transform="translate(-64.55 -29.96)"/></g></g></svg>