<svg xmlns="http://www.w3.org/2000/svg" xmlns:xlink="http://www.w3.org/1999/xlink" viewBox="0 0 1111.34 962.54"><defs><style>.cls-1,.cls-38{fill:none;}.cls-2{fill:#e4efff;}.cls-3{fill:#0054df;}.cls-4{fill:#88bdda;}.cls-5{fill:#acd5f4;}.cls-6{fill:#001f46;}.cls-7{fill:#367082;}.cls-8{fill:#8cc3ff;}.cls-9{fill:#69adfe;}.cls-10{fill:#e2c59c;}.cls-11{fill:#e8b00e;}.cls-12{fill:#282723;}.cls-13{fill:#e9d6b8;}.cls-14{fill:#387bff;}.cls-15{fill:#fec00f;}.cls-16{fill:#161711;}.cls-17{fill:#194866;}.cls-18{fill:#163f59;}.cls-19{fill:#d0dee6;}.cls-20{fill:#b6c2c9;}.cls-21{fill:#d7dfe2;}.cls-22{fill:#93cef5;}.cls-23{fill:#86bbd8;}.cls-24{fill:#73a9ff;}.cls-25{fill:#0c3475;}.cls-26{fill:#8cb3de;}.cls-27,.cls-39{fill:#a3d1eb;}.cls-28{fill:#2f67d6;}.cls-29{fill:#0b3475;}.cls-30{fill:#e3ffff;}.cls-31{fill:#ffcf24;}.cls-32{fill:#c2d6ff;}.cls-33{fill:#066092;}.cls-34{fill:#87b0ff;}.cls-35{fill:#67caf6;}.cls-36{fill:#e6c232;}.cls-37{fill:#003860;}.cls-38{stroke:#005799;stroke-width:4.28px;}.cls-39{opacity:0.3;}.cls-40{fill:#78a0cc;}.cls-41{fill:#ebb544;}.cls-42{fill:#065887;}.cls-43{clip-path:url(#clip-path);}.cls-44{fill:#47758f;}.cls-45{fill:#709eb7;}</style><clipPath id="clip-path" transform="translate(-444.27 -359.34)"><polygon class="cls-1" points="867.19 633.79 867.19 583.56 867.19 558.4 885.23 540.35 935.55 540.35 935.55 558.99 935.55 583.56 935.55 633.79 867.19 633.79"/></clipPath></defs><g id="Layer_1" data-name="Layer 1"><path id="floor" class="cls-2" d="M1320.46,1174.82c-72.66.94-297.84,2.78-434.73-5.22C631.89,1154.77,426,1195.28,562.9,1232c38.27,10.27-69.47,80.46,199,88.83,235.7,7.36,474.85-27.37,590.64-42.61s168.8-38.4,193.42-48.87C1567.64,1220.2,1574.44,1171.49,1320.46,1174.82Z" transform="translate(-444.27 -359.34)"/><g id="tina_and_desk" data-name="tina and desk"><path class="cls-3" d="M1467.28,1138.62a13.76,13.76,0,0,0,9.12-3.31c4.59-4,6.57-11.08,5.91-21.07-.45-6.75-3.11-13.58-5.92-20.81-4.73-12.17-10.1-26-7.29-44.2l-5.21-.8c-3,19.63,2.86,34.75,7.58,46.91,2.78,7.14,5.18,13.31,5.58,19.25.54,8.1-.86,13.88-4.06,16.7a8.72,8.72,0,0,1-7,2l-1,5.17A11.91,11.91,0,0,0,1467.28,1138.62Z" transform="translate(-444.27 -359.34)"/><path class="cls-4" d="M1426.86,1180.44l-5.14,7.83,43.13,13.81s2.88-2.75-7.7-8.28C1444.83,1187.35,1426.86,1180.44,1426.86,1180.44Z" transform="translate(-444.27 -359.34)"/><path class="cls-4" d="M1419.2,1180.44l5.14,7.83-43.12,13.81s-2.88-2.75,7.7-8.28C1401.24,1187.35,1419.2,1180.44,1419.2,1180.44Z" transform="translate(-444.27 -359.34)"/><rect class="cls-4" x="974.25" y="797.8" width="9.01" height="32.08"/><path class="cls-5" d="M1427.44,1182.09l-4.4,7.47,36.91,13.18s2.47-2.62-6.58-7.91C1442.82,1188.68,1427.44,1182.09,1427.44,1182.09Z" transform="translate(-444.27 -359.34)"/><path class="cls-5" d="M1418.63,1182.09l4.39,7.47-36.91,13.18s-2.47-2.62,6.59-7.91C1403.24,1188.68,1418.63,1182.09,1418.63,1182.09Z" transform="translate(-444.27 -359.34)"/><path class="cls-6" d="M1455.78,1205.71a3.13,3.13,0,1,0,3.13-3.13A3.13,3.13,0,0,0,1455.78,1205.71Z" transform="translate(-444.27 -359.34)"/><path class="cls-6" d="M1384.26,1205.71a3.13,3.13,0,1,0,3.13-3.13A3.13,3.13,0,0,0,1384.26,1205.71Z" transform="translate(-444.27 -359.34)"/><path class="cls-7" d="M1463.36,1205.71a3.13,3.13,0,1,0,3.13-3.13A3.13,3.13,0,0,0,1463.36,1205.71Z" transform="translate(-444.27 -359.34)"/><path class="cls-7" d="M1376.68,1205.71a3.13,3.13,0,1,0,3.13-3.13A3.13,3.13,0,0,0,1376.68,1205.71Z" transform="translate(-444.27 -359.34)"/><rect class="cls-3" x="975.58" y="786.05" width="6.59" height="11.54"/><path class="cls-3" d="M1414.91,1139.3a6.43,6.43,0,0,0,6.43,6.42H1425a6.43,6.43,0,0,0,6.43-6.42h0a6.43,6.43,0,0,0-6.43-6.43h-3.62a6.43,6.43,0,0,0-6.43,6.43Z" transform="translate(-444.27 -359.34)"/><path class="cls-8" d="M1374.16,1133.42c-.15-.76-.25-5.5-.25-6.32,0-5.19,3.35-9.39,7.49-9.39h83.49c4.14,0,7.49,4.2,7.49,9.39,0,.82-.09,5.56-.25,6.32Z" transform="translate(-444.27 -359.34)"/><path class="cls-3" d="M1473.15,1136c0,1.59-.93,2.88-2.07,2.88h-95.86c-1.15,0-2.08-1.29-2.08-2.88h0c0-1.58.93-2.87,2.08-2.87h95.86c1.14,0,2.07,1.29,2.07,2.87Z" transform="translate(-444.27 -359.34)"/><path class="cls-8" d="M1468.48,1085.21c-2.06.16-15.15.39-17.4.42-14.33.17-26.67-2.52-27.35-6.05a122.05,122.05,0,0,1-.37-44.36c.61-3.53,13.13-6.22,27.76-6,2.3,0,15.65.26,17.75.42A120,120,0,0,0,1468.48,1085.21Z" transform="translate(-444.27 -359.34)"/><path class="cls-3" d="M1470.45,1029.59c1.6,0,2.72.79,2.5,1.71a119.81,119.81,0,0,0-.45,52.22c.2.93-.91,1.69-2.48,1.7h0c-1.57,0-3-.71-3.22-1.63a120.13,120.13,0,0,1,.34-52.36c.22-.93,1.7-1.65,3.31-1.64Z" transform="translate(-444.27 -359.34)"/><path class="cls-9" d="M1471.09,1085.19c-.43.13-3.26.24-3.76.25-3.12,0-6.33-2.72-7-6.19a120.38,120.38,0,0,1,.2-43.69,7.69,7.69,0,0,1,7.13-6.18c.51,0,3.39.12,3.83.25A119.91,119.91,0,0,0,1471.09,1085.19Z" transform="translate(-444.27 -359.34)"/><path class="cls-10" d="M1384.22,1043.41s-.1,3.65-17.8,3.66-43.68-4.33-43.68-4.33l40.82-3.86S1379.24,1038.15,1384.22,1043.41Z" transform="translate(-444.27 -359.34)"/><path class="cls-10" d="M1336.67,1044c-8.41.26-11.89,4.59-15.19,6a57.23,57.23,0,0,0-6.56,3.48c1.76-3.66,4.48-3.85,5.8-5.06s1-.61-2-.74c-1.71-.07-4.61,3-6.72,4.76a6.92,6.92,0,0,1-3,1.65,37.65,37.65,0,0,1,4.78-5.64,43.06,43.06,0,0,1,8.3-6.07c1.77-.76,7.39-1.13,11.42-.73C1338.05,1042.15,1342.73,1043.83,1336.67,1044Z" transform="translate(-444.27 -359.34)"/><path class="cls-10" d="M1322.54,1042.57s-6.39,1.84-7.49,2.73c-.77.61-4,4.17-4,4.17a8.37,8.37,0,0,0,3.75-1.81C1316.2,1046.31,1322.54,1042.57,1322.54,1042.57Z" transform="translate(-444.27 -359.34)"/><path class="cls-11" d="M1376.21,1036s16.31.46,15.53,10.16c-.45,5.5-4.1,7.54-9,7.31-9.17-.43-19.57-1.4-19.57-1.4l-5.15-14.85Z" transform="translate(-444.27 -359.34)"/><path class="cls-11" d="M1379.66,1037.22,1393.9,987s2.09-7.36,6-6.12c5.65,1.77,3.09,7.82,2.72,11.37-.75,7.24,0,10.35-4.53,27.89-2.81,10.81-5.13,23.24-7.66,30.37-1.74,4.92-5.23-1.91-10.22-3.68C1370.92,1043.48,1379.66,1037.22,1379.66,1037.22Z" transform="translate(-444.27 -359.34)"/><path class="cls-12" d="M1407.28,970.73a20.74,20.74,0,1,0,15.79-24.33A20.52,20.52,0,0,0,1407.28,970.73Z" transform="translate(-444.27 -359.34)"/><path class="cls-12" d="M1388.2,959.5a15.59,15.59,0,0,0,18.62,11.8l2.18-8.08a15.58,15.58,0,0,0,11.8-18.62l-1.28-5.7a15.57,15.57,0,0,0-18.61-11.8l-3.81.85a15.59,15.59,0,0,0-11.8,18.62Z" transform="translate(-444.27 -359.34)"/><path class="cls-13" d="M1389.26,935.77a31.33,31.33,0,0,0,1.33,4.2c3.72,9.43,11.33,15.52,18,15a47.34,47.34,0,0,0,4.79,11.29c2.08,3.59,7.5,6.64,7.5,6.64,2.63,6.58-23.69,28.6-24.82,28-2.39-1.22,1.9-17,6.2-21.94,2-2.3,4.08-5,4.12-6.55.15-5.43-1.57-6.59-4.18-9.07a12.76,12.76,0,0,0-9.84-2.22,1.78,1.78,0,0,1-1.41-.27,11.33,11.33,0,0,1-1.19-3.08L1387,945.24A11,11,0,0,1,1389.26,935.77Z" transform="translate(-444.27 -359.34)"/><path class="cls-14" d="M1416.56,1075.68s-6.75,6.11-8.64,6.65c-2.54.72-9.65-2.35-9.65-2.35s2-31.66,1.24-44.21-3.68-16.17-3.35-20c.55-6.2-4.48-9.36-3-14.08s5.21-21.7,5.47-19.34c2.19,20.07,9.88,4.59,11.42,2.16C1410.91,983.13,1416.56,1075.68,1416.56,1075.68Z" transform="translate(-444.27 -359.34)"/><path class="cls-15" d="M1402.47,976.91s-8.92,6.55-8.8,9.56-4.61,12-2.7,25.38c2.2,15.33,3,25.62,2.56,35.4s-5,18.25-5.11,30.29c-.12,9.43,2,10.27,2,10.27a7.81,7.81,0,0,0,7.66-1.68c3.5-3.22,2.87-35.5,2.35-43.62s-3.07-27.26-3.66-32.84a59.31,59.31,0,0,1,.73-15.7,66.2,66.2,0,0,1,3.75-13.6c.17-.44,2.49-2.3,2.64-2.64C1404.56,976.27,1403.2,976.09,1402.47,976.91Z" transform="translate(-444.27 -359.34)"/><path class="cls-12" d="M1413.19,998.3a21.66,21.66,0,1,0,16.49-25.42A21.43,21.43,0,0,0,1413.19,998.3Z" transform="translate(-444.27 -359.34)"/><polygon class="cls-13" points="924.37 824.66 928.41 855.71 910.91 863.74 901.2 865.79 918.44 852.92 912.8 824.9 924.37 824.66"/><path class="cls-16" d="M1373.83,1219.73l-3.79,1-2.55-2.29-14,6.79-12.4,2.83a2.29,2.29,0,0,1,.26-1.49c1.56-2,10.24-6.35,10.24-6.35s.15,2.88,1.38,3,12-5.35,14.42-6.86c4.27-2.61,5.07-4.23,5.39-4C1373.66,1212.82,1373.83,1219.73,1373.83,1219.73Z" transform="translate(-444.27 -359.34)"/><polygon class="cls-13" points="882.13 781.48 868.23 807.94 849 807 839.43 804.34 860.67 800.87 872.26 778.25 882.13 781.48"/><path class="cls-16" d="M1311.36,1172l-3.82-.87-1.21-3.22-17.24-.24-10.3-2.34a8.83,8.83,0,0,1,2-1.66c2.3-.92,10.44-1.4,10.44-1.4s-.86,2.26.2,2.9,12.91,1,15.8.82c5-.34,6.44-1.41,6.64-1.08C1314.4,1165.75,1311.36,1172,1311.36,1172Z" transform="translate(-444.27 -359.34)"/><path class="cls-17" d="M1428,1061.7l-10.37,4.51-4.51,13.53-66.73-11s-6.79-2.09-11.12,8.64c-6.16,15.28-21.84,62.79-21.84,62.79l9.93,10.37,31.12-53.67s63.77,29.91,84.8,23.46c8.07-2.48,14.23-16.73,13.08-31.13a183.87,183.87,0,0,0-3.16-21.65Z" transform="translate(-444.27 -359.34)"/><path class="cls-18" d="M1419,1120l-51-3.67,4.39,78.75-15,.48-11.12-92.23s3-13.72,12.74-11.65S1392.22,1111.8,1419,1120Z" transform="translate(-444.27 -359.34)"/><path class="cls-15" d="M1440.78,1136.75s-23-32.07-27.86-49.21c-5.81-20.47-2.06-44.82-2.57-53.09-.94-15.2-.73-44.52-.93-48.17s2.58-7.38,2.58-7.38,2.83-9.3,8-8.61c4.52.6,11.5,6.9,15.88,9.82s3.8,56.42,4,59.11c.77,9.74,6.92,19.18,10.94,28.69,9.46,22.41,9.46,47.49,9.46,47.49S1456.55,1133.45,1440.78,1136.75Z" transform="translate(-444.27 -359.34)"/><path class="cls-13" d="M1425.36,1051.5s-.56,3.91-21.53,1.6-51.27-10.43-51.27-10.43l48.85,1.22S1420.08,1045.18,1425.36,1051.5Z" transform="translate(-444.27 -359.34)"/><path class="cls-13" d="M1368.91,1045.9c-10-.82-14.64,3.38-18.71,4.47a70.74,70.74,0,0,0-8.19,2.89c2.52-3.71,5.76-3.56,7.47-4.69s1.25-.53-2.3-1.06c-2-.31-5.81,2.65-8.52,4.24a8.44,8.44,0,0,1-3.74,1.38,41.65,41.65,0,0,1,6.34-5.44,51.48,51.48,0,0,1,10.56-5.45c2.19-.58,8.9-.25,13.62.72C1370.77,1044.06,1376.12,1046.49,1368.91,1045.9Z" transform="translate(-444.27 -359.34)"/><path class="cls-13" d="M1352.34,1042.46s-7.79,1.15-9.2,2c-1,.56-5.18,4-5.18,4a10.42,10.42,0,0,0,4.65-1.46C1344.38,1045.65,1352.34,1042.46,1352.34,1042.46Z" transform="translate(-444.27 -359.34)"/><path class="cls-11" d="M1409.75,1052.54l26.7-9.57s-1.86,15.47-2.48,21.35.93,14.55-4,15.17-7.43-.31-2.79,3.1,3.1,6.19.93,8.36,5,26.3,5,26.3-.7.36-2.78,1.55c-6.6-10.43-14.78-22.26-17.34-31.26C1409.62,1075.9,1409.41,1063,1409.75,1052.54Z" transform="translate(-444.27 -359.34)"/><path class="cls-15" d="M1416.74,1042.45l2.34-49.57s2.67-10.39,6.56-12.77c4.62-2.83,11,2.41,11,2.41s3.25,7.74,1.07,44.3c-1.46,24.45-3.72,37.11-15.31,35.32-10.82-1.67-23-4.09-23-4.09l-4.34-16.68Z" transform="translate(-444.27 -359.34)"/><path class="cls-19" d="M1375,1054.77a.56.56,0,0,1,0-.08l0-2.46H1273.23v2.46a.1.1,0,0,0,0,.08l.25.46c1.31,2.13,3.66,2.51,6.35,2.51h88.61c2.69,0,5-.38,6.34-2.51Z" transform="translate(-444.27 -359.34)"/><path class="cls-20" d="M1350.51,1055.19s0,0,0,.06l.25.37a4.19,4.19,0,0,0,1.49,1.26h15.48c2.59,0,4.84-.31,6.1-2l.25-.37,0-.06,0-1.21h-23.58Z" transform="translate(-444.27 -359.34)"/><rect class="cls-20" x="841.61" y="693.46" width="50.88" height="1.74"/><path class="cls-21" d="M1349.94,1052.14l-13.2-50a3.33,3.33,0,0,0-3-2.39h-71.43a1.78,1.78,0,0,0-1.76,2.39l13.2,50Z" transform="translate(-444.27 -359.34)"/><path class="cls-20" d="M1309.55,1025.93a3.45,3.45,0,0,1-3.41,4.63,6.44,6.44,0,0,1-5.85-4.63,3.45,3.45,0,0,1,3.41-4.63A6.46,6.46,0,0,1,1309.55,1025.93Z" transform="translate(-444.27 -359.34)"/><polygon class="cls-22" points="705.46 870.26 695.04 870.26 712.24 703.74 727.35 703.74 705.46 870.26"/><polygon class="cls-23" points="726.34 711.41 719.71 761.85 711.85 707.5 712.24 703.74 725.45 703.74 726.34 711.41"/><polygon class="cls-22" points="845.09 870.26 834.66 870.26 851.86 703.74 866.97 703.74 845.09 870.26"/><polygon class="cls-23" points="865.96 711.41 859.34 761.85 851.47 707.5 851.86 703.74 865.07 703.74 865.96 711.41"/><polygon class="cls-22" points="954.5 870.26 964.92 870.26 947.73 703.74 932.62 703.74 954.5 870.26"/><polygon class="cls-23" points="933.63 711.41 953.85 762.81 948.11 707.5 947.73 703.74 934.52 703.74 933.63 711.41"/><rect class="cls-24" x="836.67" y="698.33" width="125.64" height="9.73"/><rect class="cls-8" x="699.81" y="698.33" width="142.67" height="9.73"/><path class="cls-11" d="M1416.64,967.13s-6.81,9-8.05,17.34,2.17,53.55,2.17,53.55l2.43-39.72-1.81-6.1,3.09-.61s2.79-15.48,5-18a13.2,13.2,0,0,0,2.48-3.4Z" transform="translate(-444.27 -359.34)"/><path class="cls-11" d="M1406.4,972.42s-9,19.78-9.26,29.69,3.09,35,3.09,35l-6.2-40.25,2.48-4-1.86-.61s6.48-14.56,7.12-15.17C1405.4,973.54,1406.4,972.42,1406.4,972.42Z" transform="translate(-444.27 -359.34)"/><path class="cls-11" d="M1441.93,1085.68l-11.14,12.07s9.28,21.36,14.86,20.43,5.57-6.5,6.5-11.14S1441.93,1085.68,1441.93,1085.68Z" transform="translate(-444.27 -359.34)"/><path class="cls-11" d="M1396,1043l.73-.78,20.79,1,2.34-49.58a48.31,48.31,0,0,1,2.82-7.77v49.81c0,5.58,4.64,6.5,5.57,8.36s0,2.17-3.4,1.24-2.17-.31-1.55,1.55-1.24,1.24-7.74-1.55c-4.72-2-14.19-.94-19-.2Z" transform="translate(-444.27 -359.34)"/></g></g><g id="Layer_2" data-name="Layer 2"><path class="cls-25" d="M998.76,931.59A17.55,17.55,0,1,1,981.22,914,17.54,17.54,0,0,1,998.76,931.59Z" transform="translate(-444.27 -359.34)"/><rect class="cls-26" x="500.19" y="580.51" width="72.93" height="122.47" rx="17.03"/><path class="cls-27" d="M980.24,939.85H961.49a17,17,0,0,0-17,17v88.41a17,17,0,0,0,17,17h18.75Z" transform="translate(-444.27 -359.34)"/><path class="cls-14" d="M1037,1068.92h-16a9.51,9.51,0,1,1,0-19h16a9.51,9.51,0,0,1,0,19Zm-16-12.87a3.36,3.36,0,0,0,0,6.72h16a3.36,3.36,0,1,0,0-6.72Z" transform="translate(-444.27 -359.34)"/><path class="cls-28" d="M1037,1053.25h-16a6.16,6.16,0,0,0,0,12.31h16a6.16,6.16,0,1,0,0-12.31Zm0,9.52h-16a3.36,3.36,0,0,1,0-6.72h16a3.36,3.36,0,1,1,0,6.72Z" transform="translate(-444.27 -359.34)"/><path class="cls-26" d="M1039.29,1136.44h-10a1.67,1.67,0,0,1,0-3.34h10a1.67,1.67,0,0,1,0,3.34Z" transform="translate(-444.27 -359.34)"/><path class="cls-26" d="M1019.25,1136.44h-10a1.67,1.67,0,0,1,0-3.34h10a1.67,1.67,0,1,1,0,3.34Z" transform="translate(-444.27 -359.34)"/><path class="cls-26" d="M999.21,1136.44h-10a1.67,1.67,0,0,1,0-3.34h10a1.67,1.67,0,0,1,0,3.34Z" transform="translate(-444.27 -359.34)"/><path class="cls-26" d="M979.18,1136.44h-10a1.67,1.67,0,1,1,0-3.34h10a1.67,1.67,0,0,1,0,3.34Z" transform="translate(-444.27 -359.34)"/><path class="cls-26" d="M959.14,1136.44h-10a1.67,1.67,0,1,1,0-3.34h10a1.67,1.67,0,0,1,0,3.34Z" transform="translate(-444.27 -359.34)"/><path class="cls-26" d="M939.11,1136.44h-10a1.67,1.67,0,0,1,0-3.34h10a1.67,1.67,0,0,1,0,3.34Z" transform="translate(-444.27 -359.34)"/><path class="cls-26" d="M919.07,1136.44h-10a1.67,1.67,0,1,1,0-3.34h10a1.67,1.67,0,0,1,0,3.34Z" transform="translate(-444.27 -359.34)"/><path class="cls-26" d="M899,1136.44H889a1.67,1.67,0,1,1,0-3.34h10a1.67,1.67,0,0,1,0,3.34Z" transform="translate(-444.27 -359.34)"/><path class="cls-26" d="M879,1136.44H869a1.67,1.67,0,0,1,0-3.34h10a1.67,1.67,0,0,1,0,3.34Z" transform="translate(-444.27 -359.34)"/><path class="cls-26" d="M859,1136.44h-10a1.67,1.67,0,0,1,0-3.34h10a1.67,1.67,0,0,1,0,3.34Z" transform="translate(-444.27 -359.34)"/><path class="cls-26" d="M838.92,1136.44h-10a1.67,1.67,0,1,1,0-3.34h10a1.67,1.67,0,1,1,0,3.34Z" transform="translate(-444.27 -359.34)"/><path class="cls-26" d="M818.88,1136.44h-10a1.67,1.67,0,1,1,0-3.34h10a1.67,1.67,0,1,1,0,3.34Z" transform="translate(-444.27 -359.34)"/><path class="cls-26" d="M798.85,1136.44h-10a1.67,1.67,0,1,1,0-3.34h10a1.67,1.67,0,0,1,0,3.34Z" transform="translate(-444.27 -359.34)"/><path class="cls-26" d="M778.81,1136.44h-10a1.67,1.67,0,1,1,0-3.34h10a1.67,1.67,0,0,1,0,3.34Z" transform="translate(-444.27 -359.34)"/><path class="cls-26" d="M758.77,1136.44h-10a1.67,1.67,0,1,1,0-3.34h10a1.67,1.67,0,0,1,0,3.34Z" transform="translate(-444.27 -359.34)"/><path class="cls-26" d="M738.74,1136.44h-10a1.67,1.67,0,0,1,0-3.34h10a1.67,1.67,0,0,1,0,3.34Z" transform="translate(-444.27 -359.34)"/><path class="cls-26" d="M718.7,1136.44h-10a1.67,1.67,0,1,1,0-3.34h10a1.67,1.67,0,0,1,0,3.34Z" transform="translate(-444.27 -359.34)"/><path class="cls-26" d="M698.66,1136.44h-10a1.67,1.67,0,1,1,0-3.34h10a1.67,1.67,0,0,1,0,3.34Z" transform="translate(-444.27 -359.34)"/><path class="cls-26" d="M678.62,1136.44h-10a1.67,1.67,0,1,1,0-3.34h10a1.67,1.67,0,0,1,0,3.34Z" transform="translate(-444.27 -359.34)"/><path class="cls-26" d="M1029.16,1078h-10a1.67,1.67,0,1,1,0-3.34h10a1.67,1.67,0,1,1,0,3.34Z" transform="translate(-444.27 -359.34)"/><path class="cls-26" d="M1009.13,1078h-10a1.67,1.67,0,1,1,0-3.34h10a1.67,1.67,0,1,1,0,3.34Z" transform="translate(-444.27 -359.34)"/><path class="cls-26" d="M989.09,1078h-10a1.67,1.67,0,1,1,0-3.34h10a1.67,1.67,0,1,1,0,3.34Z" transform="translate(-444.27 -359.34)"/><path class="cls-26" d="M969.05,1078H959a1.67,1.67,0,1,1,0-3.34h10a1.67,1.67,0,1,1,0,3.34Z" transform="translate(-444.27 -359.34)"/><path class="cls-26" d="M949,1078H939a1.67,1.67,0,1,1,0-3.34h10a1.67,1.67,0,0,1,0,3.34Z" transform="translate(-444.27 -359.34)"/><path class="cls-26" d="M929,1078H919a1.67,1.67,0,1,1,0-3.34h10a1.67,1.67,0,1,1,0,3.34Z" transform="translate(-444.27 -359.34)"/><path class="cls-26" d="M908.94,1078h-10a1.67,1.67,0,1,1,0-3.34h10a1.67,1.67,0,1,1,0,3.34Z" transform="translate(-444.27 -359.34)"/><path class="cls-26" d="M888.91,1078h-10a1.67,1.67,0,1,1,0-3.34h10a1.67,1.67,0,1,1,0,3.34Z" transform="translate(-444.27 -359.34)"/><path class="cls-26" d="M868.87,1078h-10a1.67,1.67,0,1,1,0-3.34h10a1.67,1.67,0,1,1,0,3.34Z" transform="translate(-444.27 -359.34)"/><path class="cls-26" d="M848.83,1078h-10a1.67,1.67,0,1,1,0-3.34h10a1.67,1.67,0,1,1,0,3.34Z" transform="translate(-444.27 -359.34)"/><path class="cls-26" d="M828.8,1078h-10a1.67,1.67,0,1,1,0-3.34h10a1.67,1.67,0,1,1,0,3.34Z" transform="translate(-444.27 -359.34)"/><path class="cls-26" d="M808.76,1078h-10a1.67,1.67,0,1,1,0-3.34h10a1.67,1.67,0,1,1,0,3.34Z" transform="translate(-444.27 -359.34)"/><path class="cls-26" d="M788.72,1078h-10a1.67,1.67,0,1,1,0-3.34h10a1.67,1.67,0,1,1,0,3.34Z" transform="translate(-444.27 -359.34)"/><path class="cls-26" d="M768.69,1078h-10a1.67,1.67,0,1,1,0-3.34h10a1.67,1.67,0,1,1,0,3.34Z" transform="translate(-444.27 -359.34)"/><path class="cls-26" d="M748.65,1078h-10a1.67,1.67,0,1,1,0-3.34h10a1.67,1.67,0,1,1,0,3.34Z" transform="translate(-444.27 -359.34)"/><path class="cls-26" d="M728.61,1078h-10a1.67,1.67,0,1,1,0-3.34h10a1.67,1.67,0,1,1,0,3.34Z" transform="translate(-444.27 -359.34)"/><path class="cls-26" d="M708.57,1078h-10a1.67,1.67,0,1,1,0-3.34h10a1.67,1.67,0,1,1,0,3.34Z" transform="translate(-444.27 -359.34)"/><path class="cls-26" d="M688.54,1078h-10a1.67,1.67,0,1,1,0-3.34h10a1.67,1.67,0,1,1,0,3.34Z" transform="translate(-444.27 -359.34)"/><path class="cls-26" d="M668.5,1078h-10a1.67,1.67,0,1,1,0-3.34h10a1.67,1.67,0,1,1,0,3.34Z" transform="translate(-444.27 -359.34)"/><path class="cls-29" d="M1044.84,1121.94h-5a1.67,1.67,0,1,1,0-3.34h5a1.67,1.67,0,0,1,0,3.34Z" transform="translate(-444.27 -359.34)"/><path class="cls-29" d="M1034.83,1121.94h-5a1.67,1.67,0,1,1,0-3.34h5a1.67,1.67,0,0,1,0,3.34Z" transform="translate(-444.27 -359.34)"/><path class="cls-29" d="M1024.82,1121.94h-5a1.67,1.67,0,1,1,0-3.34h5a1.67,1.67,0,0,1,0,3.34Z" transform="translate(-444.27 -359.34)"/><path class="cls-29" d="M1014.8,1121.94h-5a1.67,1.67,0,1,1,0-3.34h5a1.67,1.67,0,1,1,0,3.34Z" transform="translate(-444.27 -359.34)"/><path class="cls-29" d="M1004.79,1121.94h-5a1.67,1.67,0,0,1,0-3.34h5a1.67,1.67,0,0,1,0,3.34Z" transform="translate(-444.27 -359.34)"/><path class="cls-29" d="M994.78,1121.94h-5a1.67,1.67,0,1,1,0-3.34h5a1.67,1.67,0,1,1,0,3.34Z" transform="translate(-444.27 -359.34)"/><path class="cls-29" d="M984.77,1121.94h-5a1.67,1.67,0,1,1,0-3.34h5a1.67,1.67,0,0,1,0,3.34Z" transform="translate(-444.27 -359.34)"/><path class="cls-29" d="M974.75,1121.94h-5a1.67,1.67,0,1,1,0-3.34h5a1.67,1.67,0,1,1,0,3.34Z" transform="translate(-444.27 -359.34)"/><path class="cls-29" d="M964.74,1121.94h-5a1.67,1.67,0,1,1,0-3.34h5a1.67,1.67,0,1,1,0,3.34Z" transform="translate(-444.27 -359.34)"/><path class="cls-29" d="M954.73,1121.94h-5a1.67,1.67,0,0,1,0-3.34h5a1.67,1.67,0,0,1,0,3.34Z" transform="translate(-444.27 -359.34)"/><path class="cls-29" d="M944.72,1121.94h-5a1.67,1.67,0,1,1,0-3.34h5a1.67,1.67,0,1,1,0,3.34Z" transform="translate(-444.27 -359.34)"/><path class="cls-29" d="M934.71,1121.94h-5a1.67,1.67,0,0,1,0-3.34h5a1.67,1.67,0,0,1,0,3.34Z" transform="translate(-444.27 -359.34)"/><path class="cls-29" d="M924.7,1121.94h-5a1.67,1.67,0,0,1,0-3.34h5a1.67,1.67,0,0,1,0,3.34Z" transform="translate(-444.27 -359.34)"/><path class="cls-29" d="M914.69,1121.94h-5a1.67,1.67,0,1,1,0-3.34h5a1.67,1.67,0,0,1,0,3.34Z" transform="translate(-444.27 -359.34)"/><path class="cls-29" d="M904.68,1121.94h-5a1.67,1.67,0,1,1,0-3.34h5a1.67,1.67,0,0,1,0,3.34Z" transform="translate(-444.27 -359.34)"/><path class="cls-29" d="M894.66,1121.94h-5a1.67,1.67,0,1,1,0-3.34h5a1.67,1.67,0,0,1,0,3.34Z" transform="translate(-444.27 -359.34)"/><path class="cls-29" d="M884.65,1121.94h-5a1.67,1.67,0,1,1,0-3.34h5a1.67,1.67,0,1,1,0,3.34Z" transform="translate(-444.27 -359.34)"/><path class="cls-29" d="M874.64,1121.94h-5a1.67,1.67,0,1,1,0-3.34h5a1.67,1.67,0,0,1,0,3.34Z" transform="translate(-444.27 -359.34)"/><path class="cls-29" d="M864.63,1121.94h-5a1.67,1.67,0,1,1,0-3.34h5a1.67,1.67,0,0,1,0,3.34Z" transform="translate(-444.27 -359.34)"/><path class="cls-29" d="M854.61,1121.94h-5a1.67,1.67,0,1,1,0-3.34h5a1.67,1.67,0,1,1,0,3.34Z" transform="translate(-444.27 -359.34)"/><path class="cls-29" d="M844.6,1121.94h-5a1.67,1.67,0,1,1,0-3.34h5a1.67,1.67,0,1,1,0,3.34Z" transform="translate(-444.27 -359.34)"/><path class="cls-29" d="M834.6,1121.94h-5a1.67,1.67,0,0,1,0-3.34h5a1.67,1.67,0,0,1,0,3.34Z" transform="translate(-444.27 -359.34)"/><path class="cls-29" d="M824.58,1121.94h-5a1.67,1.67,0,0,1,0-3.34h5a1.67,1.67,0,0,1,0,3.34Z" transform="translate(-444.27 -359.34)"/><path class="cls-29" d="M814.57,1121.94h-5a1.67,1.67,0,1,1,0-3.34h5a1.67,1.67,0,0,1,0,3.34Z" transform="translate(-444.27 -359.34)"/><path class="cls-29" d="M804.56,1121.94h-5a1.67,1.67,0,1,1,0-3.34h5a1.67,1.67,0,0,1,0,3.34Z" transform="translate(-444.27 -359.34)"/><path class="cls-29" d="M794.55,1121.94h-5a1.67,1.67,0,1,1,0-3.34h5a1.67,1.67,0,0,1,0,3.34Z" transform="translate(-444.27 -359.34)"/><path class="cls-29" d="M784.53,1121.94h-5a1.67,1.67,0,1,1,0-3.34h5a1.67,1.67,0,0,1,0,3.34Z" transform="translate(-444.27 -359.34)"/><path class="cls-29" d="M774.52,1121.94h-5a1.67,1.67,0,1,1,0-3.34h5a1.67,1.67,0,0,1,0,3.34Z" transform="translate(-444.27 -359.34)"/><path class="cls-29" d="M764.51,1121.94h-5a1.67,1.67,0,1,1,0-3.34h5a1.67,1.67,0,0,1,0,3.34Z" transform="translate(-444.27 -359.34)"/><path class="cls-29" d="M754.5,1121.94h-5a1.67,1.67,0,1,1,0-3.34h5a1.67,1.67,0,0,1,0,3.34Z" transform="translate(-444.27 -359.34)"/><path class="cls-29" d="M744.49,1121.94h-5a1.67,1.67,0,0,1,0-3.34h5a1.67,1.67,0,0,1,0,3.34Z" transform="translate(-444.27 -359.34)"/><path class="cls-29" d="M734.48,1121.94h-5a1.67,1.67,0,0,1,0-3.34h5a1.67,1.67,0,0,1,0,3.34Z" transform="translate(-444.27 -359.34)"/><path class="cls-29" d="M724.47,1121.94h-5a1.67,1.67,0,0,1,0-3.34h5a1.67,1.67,0,0,1,0,3.34Z" transform="translate(-444.27 -359.34)"/><path class="cls-29" d="M714.46,1121.94h-5a1.67,1.67,0,0,1,0-3.34h5a1.67,1.67,0,0,1,0,3.34Z" transform="translate(-444.27 -359.34)"/><path class="cls-29" d="M704.44,1121.94h-5a1.67,1.67,0,0,1,0-3.34h5a1.67,1.67,0,0,1,0,3.34Z" transform="translate(-444.27 -359.34)"/><path class="cls-29" d="M694.43,1121.94h-5a1.67,1.67,0,1,1,0-3.34h5a1.67,1.67,0,0,1,0,3.34Z" transform="translate(-444.27 -359.34)"/><path class="cls-29" d="M684.42,1121.94h-5a1.67,1.67,0,1,1,0-3.34h5a1.67,1.67,0,1,1,0,3.34Z" transform="translate(-444.27 -359.34)"/><path class="cls-29" d="M674.41,1121.94h-5a1.67,1.67,0,1,1,0-3.34h5a1.67,1.67,0,0,1,0,3.34Z" transform="translate(-444.27 -359.34)"/><path class="cls-29" d="M664.39,1121.94h-5a1.67,1.67,0,1,1,0-3.34h5a1.67,1.67,0,0,1,0,3.34Z" transform="translate(-444.27 -359.34)"/><path class="cls-29" d="M1039.68,1093h-5a1.68,1.68,0,0,1,0-3.35h5a1.68,1.68,0,0,1,0,3.35Z" transform="translate(-444.27 -359.34)"/><path class="cls-29" d="M1029.67,1093h-5a1.68,1.68,0,0,1,0-3.35h5a1.68,1.68,0,0,1,0,3.35Z" transform="translate(-444.27 -359.34)"/><path class="cls-29" d="M1019.66,1093h-5a1.68,1.68,0,0,1,0-3.35h5a1.68,1.68,0,0,1,0,3.35Z" transform="translate(-444.27 -359.34)"/><path class="cls-29" d="M1009.65,1093h-5a1.68,1.68,0,0,1,0-3.35h5a1.68,1.68,0,0,1,0,3.35Z" transform="translate(-444.27 -359.34)"/><path class="cls-29" d="M999.63,1093h-5a1.68,1.68,0,0,1,0-3.35h5a1.68,1.68,0,0,1,0,3.35Z" transform="translate(-444.27 -359.34)"/><path class="cls-29" d="M989.62,1093h-5a1.68,1.68,0,0,1,0-3.35h5a1.68,1.68,0,0,1,0,3.35Z" transform="translate(-444.27 -359.34)"/><path class="cls-29" d="M979.61,1093h-5a1.68,1.68,0,0,1,0-3.35h5a1.68,1.68,0,0,1,0,3.35Z" transform="translate(-444.27 -359.34)"/><path class="cls-29" d="M969.6,1093h-5a1.68,1.68,0,0,1,0-3.35h5a1.68,1.68,0,0,1,0,3.35Z" transform="translate(-444.27 -359.34)"/><path class="cls-29" d="M959.59,1093h-5a1.68,1.68,0,0,1,0-3.35h5a1.68,1.68,0,0,1,0,3.35Z" transform="translate(-444.27 -359.34)"/><path class="cls-29" d="M949.58,1093h-5a1.68,1.68,0,0,1,0-3.35h5a1.68,1.68,0,0,1,0,3.35Z" transform="translate(-444.27 -359.34)"/><path class="cls-29" d="M939.57,1093h-5a1.68,1.68,0,0,1,0-3.35h5a1.68,1.68,0,0,1,0,3.35Z" transform="translate(-444.27 -359.34)"/><path class="cls-29" d="M929.56,1093h-5a1.68,1.68,0,0,1,0-3.35h5a1.68,1.68,0,0,1,0,3.35Z" transform="translate(-444.27 -359.34)"/><path class="cls-29" d="M919.54,1093h-5a1.68,1.68,0,0,1,0-3.35h5a1.68,1.68,0,0,1,0,3.35Z" transform="translate(-444.27 -359.34)"/><path class="cls-29" d="M909.53,1093h-5a1.68,1.68,0,0,1,0-3.35h5a1.68,1.68,0,0,1,0,3.35Z" transform="translate(-444.27 -359.34)"/><path class="cls-29" d="M899.52,1093h-5a1.68,1.68,0,0,1,0-3.35h5a1.68,1.68,0,0,1,0,3.35Z" transform="translate(-444.27 -359.34)"/><path class="cls-29" d="M889.51,1093h-5a1.68,1.68,0,0,1,0-3.35h5a1.68,1.68,0,0,1,0,3.35Z" transform="translate(-444.27 -359.34)"/><path class="cls-29" d="M879.49,1093h-5a1.68,1.68,0,0,1,0-3.35h5a1.68,1.68,0,0,1,0,3.35Z" transform="translate(-444.27 -359.34)"/><path class="cls-29" d="M869.48,1093h-5a1.68,1.68,0,0,1,0-3.35h5a1.68,1.68,0,0,1,0,3.35Z" transform="translate(-444.27 -359.34)"/><path class="cls-29" d="M859.47,1093h-5a1.68,1.68,0,0,1,0-3.35h5a1.68,1.68,0,0,1,0,3.35Z" transform="translate(-444.27 -359.34)"/><path class="cls-29" d="M849.46,1093h-5a1.68,1.68,0,1,1,0-3.35h5a1.68,1.68,0,0,1,0,3.35Z" transform="translate(-444.27 -359.34)"/><path class="cls-29" d="M839.45,1093h-5a1.68,1.68,0,0,1,0-3.35h5a1.68,1.68,0,0,1,0,3.35Z" transform="translate(-444.27 -359.34)"/><path class="cls-29" d="M829.43,1093h-5a1.68,1.68,0,0,1,0-3.35h5a1.68,1.68,0,1,1,0,3.35Z" transform="translate(-444.27 -359.34)"/><path class="cls-29" d="M819.42,1093h-5a1.68,1.68,0,0,1,0-3.35h5a1.68,1.68,0,0,1,0,3.35Z" transform="translate(-444.27 -359.34)"/><path class="cls-29" d="M809.41,1093h-5a1.68,1.68,0,1,1,0-3.35h5a1.68,1.68,0,0,1,0,3.35Z" transform="translate(-444.27 -359.34)"/><path class="cls-29" d="M799.4,1093h-5a1.68,1.68,0,0,1,0-3.35h5a1.68,1.68,0,0,1,0,3.35Z" transform="translate(-444.27 -359.34)"/><path class="cls-29" d="M789.39,1093h-5a1.68,1.68,0,1,1,0-3.35h5a1.68,1.68,0,0,1,0,3.35Z" transform="translate(-444.27 -359.34)"/><path class="cls-29" d="M779.38,1093h-5a1.68,1.68,0,0,1,0-3.35h5a1.68,1.68,0,0,1,0,3.35Z" transform="translate(-444.27 -359.34)"/><path class="cls-29" d="M769.37,1093h-5a1.68,1.68,0,0,1,0-3.35h5a1.68,1.68,0,0,1,0,3.35Z" transform="translate(-444.27 -359.34)"/><path class="cls-29" d="M759.35,1093h-5a1.68,1.68,0,0,1,0-3.35h5a1.68,1.68,0,1,1,0,3.35Z" transform="translate(-444.27 -359.34)"/><path class="cls-29" d="M749.34,1093h-5a1.68,1.68,0,0,1,0-3.35h5a1.68,1.68,0,0,1,0,3.35Z" transform="translate(-444.27 -359.34)"/><path class="cls-29" d="M739.33,1093h-5a1.68,1.68,0,1,1,0-3.35h5a1.68,1.68,0,0,1,0,3.35Z" transform="translate(-444.27 -359.34)"/><path class="cls-29" d="M729.32,1093h-5a1.68,1.68,0,0,1,0-3.35h5a1.68,1.68,0,0,1,0,3.35Z" transform="translate(-444.27 -359.34)"/><path class="cls-29" d="M719.31,1093h-5a1.68,1.68,0,0,1,0-3.35h5a1.68,1.68,0,0,1,0,3.35Z" transform="translate(-444.27 -359.34)"/><path class="cls-29" d="M709.3,1093h-5a1.68,1.68,0,0,1,0-3.35h5a1.68,1.68,0,0,1,0,3.35Z" transform="translate(-444.27 -359.34)"/><path class="cls-29" d="M699.29,1093h-5a1.68,1.68,0,0,1,0-3.35h5a1.68,1.68,0,0,1,0,3.35Z" transform="translate(-444.27 -359.34)"/><path class="cls-29" d="M689.28,1093h-5a1.68,1.68,0,0,1,0-3.35h5a1.68,1.68,0,0,1,0,3.35Z" transform="translate(-444.27 -359.34)"/><path class="cls-29" d="M679.26,1093h-5a1.68,1.68,0,0,1,0-3.35h5a1.68,1.68,0,0,1,0,3.35Z" transform="translate(-444.27 -359.34)"/><path class="cls-29" d="M669.25,1093h-5a1.68,1.68,0,0,1,0-3.35h5a1.68,1.68,0,0,1,0,3.35Z" transform="translate(-444.27 -359.34)"/><path class="cls-29" d="M659.23,1093h-5a1.68,1.68,0,0,1,0-3.35h5a1.68,1.68,0,1,1,0,3.35Z" transform="translate(-444.27 -359.34)"/><polygon class="cls-30" points="466.86 196.73 466.86 140.8 466.86 112.76 486.95 92.67 543 92.67 543 113.42 543 140.8 543 196.73 466.86 196.73"/><polygon class="cls-31" points="486.95 112.76 466.86 112.76 486.95 92.67 486.95 112.76"/><polygon class="cls-32" points="466.86 112.76 486.95 112.76 466.86 132.85 466.86 112.76"/><path class="cls-33" d="M929.64,533.69V520.57a12.33,12.33,0,1,0,13.12,13.12Z" transform="translate(-444.27 -359.34)"/><path class="cls-31" d="M942.16,530.58a9.21,9.21,0,0,0-9.22-9.21v9.21Z" transform="translate(-444.27 -359.34)"/><path class="cls-34" d="M935.65,495.6a5.24,5.24,0,0,1-1.17,2l4,5.6a12.3,12.3,0,0,0,4-6.85Z" transform="translate(-444.27 -359.34)"/><path class="cls-31" d="M931.56,488.52a5.48,5.48,0,0,1,4.34,4.87l6.84.75c0-.08,0-.16,0-.23a12.31,12.31,0,0,0-11.2-12.26Z" transform="translate(-444.27 -359.34)"/><path class="cls-14" d="M926.38,490.21a5.5,5.5,0,0,1,2.94-1.69v-6.87a12.32,12.32,0,0,0-8.86,5.07Z" transform="translate(-444.27 -359.34)"/><path class="cls-33" d="M932.66,498.93a5.3,5.3,0,0,1-2.22.48,5.46,5.46,0,0,1-5.19-7.27l-5.93-3.49a12.29,12.29,0,0,0,17.34,15.87Z" transform="translate(-444.27 -359.34)"/><rect class="cls-14" x="504.28" y="122.31" width="29.68" height="3.05"/><rect class="cls-34" x="504.28" y="131.88" width="29.68" height="3.04"/><rect class="cls-34" x="504.28" y="141.45" width="29.68" height="3.04"/><rect class="cls-14" x="504.28" y="161.23" width="20.65" height="3.04"/><rect class="cls-34" x="504.28" y="170.8" width="29.68" height="3.04"/><rect class="cls-34" x="504.28" y="180.37" width="29.68" height="3.05"/><path class="cls-30" d="M822.63,747.87V667.11h59.25L910.73,696v51.92a9.1,9.1,0,0,1-9.08,9.07H817.74C822.9,755.69,822.57,752.48,822.63,747.87Z" transform="translate(-444.27 -359.34)"/><polygon class="cls-14" points="437.61 336.61 466.45 336.61 437.61 307.76 437.61 336.61"/><polygon class="cls-32" points="466.45 336.61 437.61 336.61 466.45 365.45 466.45 336.61"/><path class="cls-14" d="M822.63,751.79v-74.2h-9v75.25a4.1,4.1,0,0,0,4,4.08A5.14,5.14,0,0,0,822.63,751.79Z" transform="translate(-444.27 -359.34)"/><rect class="cls-34" x="386.97" y="358.98" width="30.47" height="2.73"/><rect class="cls-34" x="386.97" y="341.22" width="30.47" height="12.64"/><rect class="cls-34" x="386.97" y="313.7" width="45.75" height="1.19"/><rect class="cls-34" x="386.97" y="335.54" width="45.75" height="1.19"/><rect class="cls-34" x="386.97" y="366.99" width="30.47" height="2.73"/><rect class="cls-34" x="386.97" y="374.99" width="30.47" height="2.73"/><rect class="cls-34" x="386.97" y="382.99" width="30.47" height="2.73"/><rect class="cls-34" x="423.96" y="358.98" width="30.48" height="2.73"/><rect class="cls-34" x="423.96" y="366.99" width="30.48" height="2.73"/><rect class="cls-34" x="423.96" y="374.99" width="30.48" height="2.73"/><rect class="cls-34" x="423.96" y="382.99" width="30.48" height="2.73"/><path class="cls-14" d="M841.22,692.11h-2.75L834.13,683l0,0v9.05H831.3V677.93h2.78l4.33,9.06.06,0v-9h2.75Z" transform="translate(-444.27 -359.34)"/><path class="cls-14" d="M850.92,685.88h-4.76v4h5.6v2.21h-8.37V677.93h8.35v2.21h-5.58v3.53h4.76Z" transform="translate(-444.27 -359.34)"/><path class="cls-14" d="M862.72,687h.06l1.52-9.05H867l-2.74,14.18h-2.58l-2-8.69h-.06l-2,8.69h-2.57l-2.74-14.18H855l1.54,9.05h.05l2-9.05h2Z" transform="translate(-444.27 -359.34)"/><path class="cls-14" d="M874.59,688.41a1.9,1.9,0,0,0-.43-1.31,4.41,4.41,0,0,0-1.51-1,9.79,9.79,0,0,1-3.32-1.75,3.46,3.46,0,0,1-1.1-2.74,3.55,3.55,0,0,1,1.28-2.84,4.89,4.89,0,0,1,3.28-1.1,4.51,4.51,0,0,1,3.29,1.23,3.94,3.94,0,0,1,1.23,3.08l0,.05H874.6a2.45,2.45,0,0,0-.48-1.57,1.68,1.68,0,0,0-1.38-.6,1.62,1.62,0,0,0-1.28.5,1.77,1.77,0,0,0-.47,1.26,1.46,1.46,0,0,0,.51,1.15,7.76,7.76,0,0,0,1.8,1,7.49,7.49,0,0,1,3,1.73,3.88,3.88,0,0,1,1,2.83,3.58,3.58,0,0,1-1.22,2.88,4.88,4.88,0,0,1-3.27,1,5.45,5.45,0,0,1-3.51-1.18,4,4,0,0,1-1.44-3.39l0-.06h2.7a2.64,2.64,0,0,0,.56,1.89,2.22,2.22,0,0,0,1.67.57,1.63,1.63,0,0,0,1.3-.47A1.81,1.81,0,0,0,874.59,688.41Z" transform="translate(-444.27 -359.34)"/><path class="cls-28" d="M816.12,592.12a3.85,3.85,0,0,1-3.85,3.85h-78a3.85,3.85,0,0,1-3.85-3.85V491.51a3.86,3.86,0,0,1,3.85-3.86h78a3.86,3.86,0,0,1,3.85,3.86Z" transform="translate(-444.27 -359.34)"/><path class="cls-14" d="M816.12,589.22a3.85,3.85,0,0,1-3.85,3.85h-78a3.85,3.85,0,0,1-3.85-3.85V488.61a3.85,3.85,0,0,1,3.85-3.85h78a3.85,3.85,0,0,1,3.85,3.85Z" transform="translate(-444.27 -359.34)"/><rect class="cls-30" x="293.05" y="132.35" width="71.86" height="94.45"/><rect class="cls-32" x="293.05" y="223.72" width="71.86" height="3.08"/><path class="cls-35" d="M789.94,496.7v-3.85a2.32,2.32,0,0,0-2.31-2.32H758.88a2.32,2.32,0,0,0-2.31,2.32v3.85Z" transform="translate(-444.27 -359.34)"/><path class="cls-34" d="M789.94,495v-3.85a2.31,2.31,0,0,0-2.31-2.3H758.88a2.31,2.31,0,0,0-2.31,2.3V495Z" transform="translate(-444.27 -359.34)"/><path class="cls-34" d="M778.64,488.61a5.39,5.39,0,1,1-5.39-5.39A5.39,5.39,0,0,1,778.64,488.61Z" transform="translate(-444.27 -359.34)"/><path class="cls-33" d="M775.56,488.61a2.31,2.31,0,1,1-2.31-2.31A2.3,2.3,0,0,1,775.56,488.61Z" transform="translate(-444.27 -359.34)"/><rect class="cls-34" x="310.45" y="157.6" width="44.79" height="2.36"/><rect class="cls-34" x="310.45" y="167.27" width="44.79" height="2.35"/><rect class="cls-34" x="310.45" y="176.94" width="44.79" height="2.35"/><rect class="cls-34" x="310.45" y="186.6" width="44.79" height="2.35"/><path class="cls-36" d="M746.41,520.89a1.08,1.08,0,0,1-.78-.34l-1.76-1.84a1.08,1.08,0,1,1,1.55-1.49l.93,1,3.13-3.81a1.08,1.08,0,1,1,1.66,1.37l-3.89,4.75a1.16,1.16,0,0,1-.8.39Z" transform="translate(-444.27 -359.34)"/><path class="cls-36" d="M746.41,530.18a1.11,1.11,0,0,1-.78-.33L743.87,528a1.08,1.08,0,0,1,1.56-1.48l.92,1,3.13-3.81a1.07,1.07,0,1,1,1.66,1.36l-3.89,4.75a1.06,1.06,0,0,1-.8.4Z" transform="translate(-444.27 -359.34)"/><path class="cls-36" d="M746.41,539.46a1.11,1.11,0,0,1-.78-.33l-1.76-1.85a1.08,1.08,0,0,1,1.56-1.49l.92,1,3.13-3.8a1.07,1.07,0,1,1,1.66,1.36l-3.89,4.75a1.08,1.08,0,0,1-.8.39Z" transform="translate(-444.27 -359.34)"/><path class="cls-14" d="M775.28,573.51h-.13c-.61-.1-.9-.84-1.08-1.46a6.86,6.86,0,0,1,.79-5.5,9.52,9.52,0,0,0-.69-1.61.6.6,0,1,1,1-.59,8.39,8.39,0,0,1,.52,1.09,5.73,5.73,0,0,1,4.07-1.73c2,0,3.81,1.79,4.87,3.46a1,1,0,0,1,.12.19c1.85-1.22,4.3-2.19,5.65-2,1.75.21,1.95,1.89,2,3a5,5,0,0,0,.76-1.47c.45-1.3.9-1.22,3.85-.65l.61.12a.6.6,0,1,1-.22,1.17l-.61-.12a13.55,13.55,0,0,0-2.45-.37h0s0,.14,0,.24a6.21,6.21,0,0,1-1.08,2c-.49.62-.93,1.11-1.48.92s-.54-.77-.53-1.44c0-1.38-.14-2.09-.92-2.19-1.2-.12-3.38.84-4.94,1.9.48,1.08.68,2.21.17,2.88-.2.29-.72.73-1.8.41-1.45-.41-1.36-1.43-1.3-1.73a3.81,3.81,0,0,1,1.41-1.91l-.17-.28c-.85-1.34-2.37-2.9-3.86-2.9a4.51,4.51,0,0,0-3.63,1.85c.7,2.68.45,5.48-.14,6.33A.92.92,0,0,1,775.28,573.51Zm0-5.07a5.72,5.72,0,0,0-.06,3.28l0,.08A10.7,10.7,0,0,0,775.28,568.44Zm9.09.74a2.38,2.38,0,0,0-.78,1.05c0,.06,0,.2.46.34.33.09.49.07.52,0S784.67,570,784.37,569.18Z" transform="translate(-444.27 -359.34)"/><path class="cls-36" d="M856.42,604.3h-7.87a56.85,56.85,0,0,0-2.28-8.06l6.58-3.8a3.33,3.33,0,0,0,1.21-4.52l-6.6-11.42a3.32,3.32,0,0,0-4.51-1.21l-6.84,4a54.88,54.88,0,0,0-6-5.83l3.8-6.59a3.32,3.32,0,0,0-1.22-4.52l-11.42-6.6a3.31,3.31,0,0,0-4.5,1.22l-3.94,6.83a53.64,53.64,0,0,0-8.12-2.06v-7.61a3.31,3.31,0,0,0-3.3-3.31H788.25a3.31,3.31,0,0,0-3.31,3.31V562a55.76,55.76,0,0,0-8.05,2.27l-3.79-6.58a3.32,3.32,0,0,0-4.53-1.21L757.14,563a3.31,3.31,0,0,0-1.2,4.5l3.95,6.85a53,53,0,0,0-5.83,6l-6.59-3.8a3.32,3.32,0,0,0-4.51,1.22l-6.61,11.42a3.3,3.3,0,0,0,1.21,4.51l6.83,3.94a55.21,55.21,0,0,0-2,8.1h-7.6a3.32,3.32,0,0,0-3.31,3.31v13.19a3.31,3.31,0,0,0,3.31,3.3h7.88a53.21,53.21,0,0,0,2.26,8.07l-6.58,3.79a3.31,3.31,0,0,0-1.2,4.51l6.58,11.42a3.32,3.32,0,0,0,4.52,1.22l6.84-3.95a53.3,53.3,0,0,0,6,5.84L757.21,663a3.3,3.3,0,0,0,1.21,4.5l11.43,6.61a3.3,3.3,0,0,0,4.5-1.21l3.95-6.83a53.77,53.77,0,0,0,8.11,2v7.63a3.29,3.29,0,0,0,3.3,3.29h13.2a3.3,3.3,0,0,0,3.3-3.3V667.9a56.49,56.49,0,0,0,8-2.27l3.81,6.57a3.28,3.28,0,0,0,4.5,1.21l11.43-6.6a3.31,3.31,0,0,0,1.2-4.52l-4-6.83a53.21,53.21,0,0,0,5.84-6l6.59,3.81a3.3,3.3,0,0,0,4.51-1.21l6.6-11.43a3.3,3.3,0,0,0-1.2-4.5l-6.84-3.95a54,54,0,0,0,2-8.1h7.62a3.3,3.3,0,0,0,3.29-3.31V607.6A3.28,3.28,0,0,0,856.42,604.3Zm-60.84,37a26.33,26.33,0,1,1,26.31-26.33A26.35,26.35,0,0,1,795.58,641.26Z" transform="translate(-444.27 -359.34)"/><path class="cls-31" d="M794.43,649.12a34.21,34.21,0,0,1,0-68.39v-30h-6.18a3.31,3.31,0,0,0-3.31,3.31V562a55.76,55.76,0,0,0-8.05,2.27l-3.79-6.58a3.32,3.32,0,0,0-4.53-1.21L757.14,563a3.31,3.31,0,0,0-1.2,4.5l3.95,6.85a53,53,0,0,0-5.83,6l-6.59-3.8a3.32,3.32,0,0,0-4.51,1.22l-6.61,11.42a3.3,3.3,0,0,0,1.21,4.51l6.83,3.94a55.21,55.21,0,0,0-2,8.1h-7.6a3.32,3.32,0,0,0-3.31,3.31v13.19a3.31,3.31,0,0,0,3.31,3.3h7.88a53.21,53.21,0,0,0,2.26,8.07l-6.58,3.79a3.31,3.31,0,0,0-1.2,4.51l6.58,11.42a3.32,3.32,0,0,0,4.52,1.22l6.84-3.95a53.3,53.3,0,0,0,6,5.84L757.21,663a3.3,3.3,0,0,0,1.21,4.5l11.43,6.61a3.3,3.3,0,0,0,4.5-1.21l3.95-6.83a53.77,53.77,0,0,0,8.11,2v7.63a3.29,3.29,0,0,0,3.3,3.29h4.72Z" transform="translate(-444.27 -359.34)"/><path class="cls-36" d="M795.57,568.29a46.64,46.64,0,1,0,46.64,46.64A46.64,46.64,0,0,0,795.57,568.29Zm0,84.93a38.3,38.3,0,1,1,38.29-38.29A38.3,38.3,0,0,1,795.58,653.22Z" transform="translate(-444.27 -359.34)"/><path class="cls-31" d="M795.57,568.29l-1.28,0v8.35c.42,0,.85,0,1.29,0a38.3,38.3,0,0,1,0,76.6q-.66,0-1.29,0v8.35c.42,0,.85,0,1.28,0a46.64,46.64,0,0,0,0-93.28Z" transform="translate(-444.27 -359.34)"/><path class="cls-28" d="M836.89,618.11c0-.41.07-.82.09-1.23,0-.65,0-1.3,0-2s0-1.3,0-1.95c0-.4-.06-.81-.09-1.21,0-.22,0-.42,0-.64a41.45,41.45,0,0,0-82.34-1.79.77.77,0,0,0,0,.15c-.07.53-.14,1.07-.19,1.6,0,.26,0,.52,0,.77s-.07.74-.09,1.11c0,.65,0,1.31,0,2s0,1.32,0,2q0,.55.09,1.11c0,.25,0,.51,0,.76.05.53.11,1.06.19,1.59,0,.06,0,.11,0,.17a41.45,41.45,0,0,0,82.35-1.79C836.87,618.52,836.88,618.32,836.89,618.11Z" transform="translate(-444.27 -359.34)"/><path class="cls-14" d="M795.57,573.47a41.51,41.51,0,0,0-41.06,35.86.77.77,0,0,0,0,.15c-.07.53-.14,1.07-.19,1.6,0,.26,0,.52,0,.77s-.07.74-.09,1.11c0,.65,0,1.31,0,2s0,1.32,0,2q0,.55.09,1.11c0,.25,0,.51,0,.76.05.53.11,1.06.19,1.59,0,.06,0,.11,0,.17a41.52,41.52,0,0,0,41.07,35.86" transform="translate(-444.27 -359.34)"/><path class="cls-32" d="M829.37,631.86l-.44.84q-.2.38-.42.75c-.15.28-.3.55-.47.81l-.45.74c-.16.26-.33.53-.51.79s-.32.47-.48.71l-.54.76-.52.68-.57.74-.56.66c-.2.24-.4.47-.61.7l-.58.63c-.21.23-.42.46-.64.68l-.6.61c-.22.21-.45.43-.69.64s-.41.38-.62.58l-.72.61c-.21.19-.42.37-.65.54l-.74.59-.68.5-.77.56-.69.47-.82.52-.7.44-.85.48-.72.4-.88.46-.73.36-.92.41-.74.32-.95.38-.75.28-.17.06c4.58-4.56,8.2-11.52,10.25-19.85h11.48l-.18.37C829.62,631.35,829.49,631.6,829.37,631.86Z" transform="translate(-444.27 -359.34)"/><path class="cls-32" d="M809.11,579.63l.95.38.74.32c.31.13.62.28.92.42s.48.24.73.36.59.29.88.45l.72.4.85.49.7.43.82.52.69.48c.26.18.52.36.77.55l.68.5.74.59c.23.18.44.36.65.54l.72.62.62.57c.24.22.47.43.69.65l.6.6c.22.22.43.45.64.68l.58.63c.21.23.41.47.61.71s.37.44.56.65.38.49.57.74l.52.69.54.76c.16.23.33.46.48.71s.35.52.51.78l.45.74c.17.27.32.54.47.81s.29.5.42.75l.44.85c.12.25.25.51.37.77s.11.24.18.37H818.44c-2.05-8.33-5.68-15.29-10.25-19.85l.17.06Z" transform="translate(-444.27 -359.34)"/><path class="cls-32" d="M816.67,614.92a65.71,65.71,0,0,1-1.12,12.15H797.39V602.78h18.16A65.69,65.69,0,0,1,816.67,614.92Z" transform="translate(-444.27 -359.34)"/><path class="cls-32" d="M814.74,630.71c-3.11,12-9.64,20.69-17.35,21.88V630.71Z" transform="translate(-444.27 -359.34)"/><path class="cls-32" d="M797.39,599.14V577.27c7.71,1.18,14.24,9.82,17.34,21.87Z" transform="translate(-444.27 -359.34)"/><path class="cls-32" d="M833.34,616.64l-.06.86c0,.24,0,.49,0,.73,0,.42-.09.84-.14,1.27v0a39,39,0,0,1-1.75,7.52H819.22a68.21,68.21,0,0,0,0-24.29h12.12a38,38,0,0,1,1.74,7.49.38.38,0,0,1,0,.1c.06.42.1.83.14,1.25,0,.24,0,.49,0,.74l.06.85c0,.57,0,1.14,0,1.71S833.36,616.08,833.34,616.64Z" transform="translate(-444.27 -359.34)"/><path class="cls-30" d="M758.06,619.66a1.94,1.94,0,0,0,0-.24c0-.39-.09-.77-.13-1.15l-.06-.82c0-.26,0-.53,0-.8,0-.57,0-1.14,0-1.73s0-1.15,0-1.73c0-.26,0-.52,0-.79l.06-.82c0-.38.08-.77.13-1.15a1.94,1.94,0,0,0,0-.24,38.33,38.33,0,0,1,1.74-7.41h12.11a68.83,68.83,0,0,0,0,24.29H759.8A38,38,0,0,1,758.06,619.66Z" transform="translate(-444.27 -359.34)"/><path class="cls-30" d="M774.47,614.92a64.84,64.84,0,0,1,1.12-12.14h18.16v24.29H775.59A64.86,64.86,0,0,1,774.47,614.92Z" transform="translate(-444.27 -359.34)"/><path class="cls-30" d="M793.75,577.27v21.87H776.41C779.51,587.09,786,578.45,793.75,577.27Z" transform="translate(-444.27 -359.34)"/><path class="cls-30" d="M793.75,630.71v21.88c-7.71-1.19-14.25-9.83-17.35-21.88Z" transform="translate(-444.27 -359.34)"/><path class="cls-30" d="M783,579.29c-4.58,4.56-8.2,11.53-10.26,19.85H761.23A38,38,0,0,1,783,579.29Z" transform="translate(-444.27 -359.34)"/><path class="cls-30" d="M761.23,630.71h11.46c2,8.33,5.68,15.29,10.26,19.85A38,38,0,0,1,761.23,630.71Z" transform="translate(-444.27 -359.34)"/><rect class="cls-32" x="891.81" y="614.99" width="88.09" height="66.06" transform="translate(-530.36 790.06) rotate(-60.83)"/><rect class="cls-14" x="897.08" y="620.26" width="77.55" height="55.52" transform="translate(-530.38 790.03) rotate(-60.83)"/><polygon class="cls-28" points="496.92 336.06 486.23 241.28 534.71 268.35 496.92 336.06"/><rect class="cls-30" x="873.73" y="660.53" width="109.08" height="81.82" transform="translate(-668.38 502.51) rotate(-45)"/><rect class="cls-31" x="880.26" y="667.05" width="96.03" height="68.76" transform="translate(-668.38 502.5) rotate(-45)"/><polygon class="cls-36" points="474.36 400.35 493.64 283.82 542.26 332.44 474.36 400.35"/><path class="cls-33" d="M952.6,725.73h0c.24-.23.68-.19.44-.43L934.5,706.76a.63.63,0,0,0-.88,0h0a.61.61,0,0,0,0,.88l18.54,18.54c.24.25.2-.2.45-.45Z" transform="translate(-444.27 -359.34)"/><path class="cls-33" d="M946.47,719.65h0a.6.6,0,0,0-.62-.62h-5.71a.62.62,0,0,0-.62.62h0a.63.63,0,0,0,.63.63h5.7a.62.62,0,0,0,.62-.62Z" transform="translate(-444.27 -359.34)"/><path class="cls-33" d="M924.37,719.65a9.14,9.14,0,1,1,8.6,6A9.15,9.15,0,0,1,924.37,719.65Z" transform="translate(-444.27 -359.34)"/><path class="cls-37" d="M941.56,719.65a9.14,9.14,0,0,1-17.19,0" transform="translate(-444.27 -359.34)"/><path class="cls-33" d="M946.53,719.6h0a.63.63,0,0,1-.62-.63v-5.7a.62.62,0,0,1,.62-.63h0a.63.63,0,0,1,.62.63V719a.64.64,0,0,1-.62.63Z" transform="translate(-444.27 -359.34)"/><path class="cls-33" d="M946.53,697.49a9.14,9.14,0,1,0,6,8.59A9.15,9.15,0,0,0,946.53,697.49Z" transform="translate(-444.27 -359.34)"/><path class="cls-37" d="M946.53,714.68a9.14,9.14,0,0,0,0-17.19" transform="translate(-444.27 -359.34)"/><path class="cls-14" d="M924.62,706.2c4.51,12.1-18,9.56-11.86-1.34-6.15,10.9-18.19-8.29-6.34-10.1-11.85,1.81-4.37-19.56,3.93-11.26-8.3-8.3,13.08-15.79,11.27-3.94,1.81-11.85,21,.2,10.1,6.34,10.9-6.14,13.43,16.38,1.33,11.86,5.22,2,5.2,6,3.14,9.08l-2.49,2.5C930.65,711.4,926.57,711.42,924.62,706.2Z" transform="translate(-444.27 -359.34)"/><path class="cls-28" d="M910,683.08c-7.2-8.13,13.45-15.17,11.66-3.52,1.81-11.85,21,.2,10.1,6.34,10.9-6.14,13.43,16.38,1.33,11.86,5.22,2,5.2,6,3.14,9.08L935,708.08Z" transform="translate(-444.27 -359.34)"/><path class="cls-30" d="M925.93,688.79a7.27,7.27,0,1,0,0,10.28A7.29,7.29,0,0,0,925.93,688.79Z" transform="translate(-444.27 -359.34)"/><path class="cls-32" d="M915.65,688.78a7.27,7.27,0,0,1,10.28,10.27Z" transform="translate(-444.27 -359.34)"/><path class="cls-36" d="M825.79,744.28l0,0a10.38,10.38,0,0,1-14.67,0l-31.65-31.8a10.39,10.39,0,0,1,0-14.65l0,0a10.38,10.38,0,0,1,14.68,0l31.65,31.8a10.38,10.38,0,0,1,0,14.66Z" transform="translate(-444.27 -359.34)"/><path class="cls-31" d="M821.28,744.08a4,4,0,0,1-5.67,0L784,712.27a4,4,0,1,1,5.69-5.67l31.64,31.8a4,4,0,0,1,0,5.67Z" transform="translate(-444.27 -359.34)"/><path class="cls-38" d="M771.66,689.84" transform="translate(-444.27 -359.34)"/><path class="cls-39" d="M725.08,643.27a30.17,30.17,0,1,0,42.68,42.66h0a30.17,30.17,0,1,0-42.68-42.66Z" transform="translate(-444.27 -359.34)"/><path class="cls-28" d="M746.49,624a40.32,40.32,0,0,0-28.76,11.9h0A40.55,40.55,0,1,0,746.49,624Zm21.27,61.89a30.13,30.13,0,1,1,8.84-21.27A30.05,30.05,0,0,1,767.76,685.93Z" transform="translate(-444.27 -359.34)"/><path class="cls-28" d="M783.56,702.07a5.18,5.18,0,0,1-7.34,0l-6.46-6.67a5.19,5.19,0,0,1,0-7.33h0a5.2,5.2,0,0,1,7.34,0l6.46,6.67a5.2,5.2,0,0,1,0,7.34Z" transform="translate(-444.27 -359.34)"/><path class="cls-14" d="M746.49,626.34a38.27,38.27,0,0,1-.07,76.53h-.07v-5.11h.06a33.16,33.16,0,0,0,.06-66.32v-5.1Z" transform="translate(-444.27 -359.34)"/><polygon class="cls-26" points="419.07 557.99 368.7 470.75 318.33 383.51 419.07 383.51 519.81 383.51 469.44 470.75 419.07 557.99"/><polygon class="cls-40" points="419.07 557.99 419.07 383.51 519.81 383.51 469.44 470.75 419.07 557.99"/><polygon class="cls-27" points="318.33 366.49 318.33 383.9 419.07 383.9 519.81 383.9 519.81 366.49 318.33 366.49"/><polygon class="cls-26" points="419.19 366.49 419.19 383.9 419.07 383.9 519.81 383.9 519.81 366.49 419.19 366.49"/><polygon class="cls-27" points="448.1 508.18 390.04 508.18 390.04 554.36 390.04 600.54 448.1 600.54 448.1 508.18"/><polygon class="cls-26" points="448.1 508.18 419.19 508.18 419.19 554.36 419.19 600.54 448.1 600.54 448.1 508.18"/><rect class="cls-26" x="382.66" y="599.69" width="72.83" height="19.48" rx="5.08"/><path class="cls-40" d="M899.76,973.43v-9.32H851.49a5.08,5.08,0,0,0-5.08,5.09v9.31h48.27A5.09,5.09,0,0,0,899.76,973.43Z" transform="translate(-444.27 -359.34)"/><path class="cls-41" d="M684.59,590.27a3.77,3.77,0,0,1,.92,5.24l-5.76,8.22a3.75,3.75,0,0,1-5.23.93l-21.06-14.75a3.76,3.76,0,0,1-.92-5.24l5.75-8.22a3.77,3.77,0,0,1,5.24-.92Z" transform="translate(-444.27 -359.34)"/><path class="cls-42" d="M689,520.87a7.1,7.1,0,0,0,0,14.19h0a7.1,7.1,0,0,0,0-14.19Z" transform="translate(-444.27 -359.34)"/><path class="cls-14" d="M642.71,545.81l20.87,20.86,27.84-27.85-32.24-32.23a47.24,47.24,0,0,1-7.53,29.58A40.89,40.89,0,0,1,642.71,545.81Z" transform="translate(-444.27 -359.34)"/><path class="cls-31" d="M643.29,545.09,628,560.39a15,15,0,0,0,0,21.28l7.31,7.31a15.05,15.05,0,0,0,21.29,0l15.29-15.29Z" transform="translate(-444.27 -359.34)"/><path class="cls-31" d="M713.45,558.05a3.69,3.69,0,0,1-5.17-.35l-49-49a3.69,3.69,0,0,1-.35-5.17l2.41-2.41a3.7,3.7,0,0,1,5.18.35l49,49a3.68,3.68,0,0,1,.35,5.17Z" transform="translate(-444.27 -359.34)"/><path class="cls-28" d="M710.32,557.73,684.63,532l-27.84,27.85,14.3,14.31a40.92,40.92,0,0,1,9.64-9A47.28,47.28,0,0,1,710.32,557.73Z" transform="translate(-444.27 -359.34)"/><path class="cls-41" d="M657.44,559.23,631.5,585.18l3.81,3.8a15.05,15.05,0,0,0,21.29,0l15.29-15.29Z" transform="translate(-444.27 -359.34)"/><path class="cls-36" d="M715.51,550.47l-24.66-24.66L683.62,533l24.66,24.66a3.69,3.69,0,0,0,5.17.35l2.41-2.41A3.68,3.68,0,0,0,715.51,550.47Z" transform="translate(-444.27 -359.34)"/><path class="cls-31" d="M662.37,587.69a2.44,2.44,0,0,0-3.38.62h0a2.45,2.45,0,0,0,.63,3.38l15.78,10.85a2.43,2.43,0,0,0,3.38-.63h0a2.43,2.43,0,0,0-.63-3.37Z" transform="translate(-444.27 -359.34)"/><path class="cls-30" d="M698.27,519.76a.77.77,0,0,1-.56-.24.79.79,0,0,1,0-1.12l20.66-20.66a.8.8,0,0,1,1.13,0,.79.79,0,0,1,0,1.12l-20.67,20.66A.77.77,0,0,1,698.27,519.76Z" transform="translate(-444.27 -359.34)"/><path class="cls-30" d="M693.44,515.69a.82.82,0,0,1-.76-1.06L702.12,487a.78.78,0,0,1,1-.49.8.8,0,0,1,.49,1l-9.43,27.66A.79.79,0,0,1,693.44,515.69Z" transform="translate(-444.27 -359.34)"/><path class="cls-30" d="M702.34,524.59a.78.78,0,0,1-.75-.53.79.79,0,0,1,.5-1l27.66-9.43a.77.77,0,0,1,1,.49.78.78,0,0,1-.49,1l-27.66,9.43A.78.78,0,0,1,702.34,524.59Z" transform="translate(-444.27 -359.34)"/><polygon class="cls-30" points="422.91 274.44 422.91 224.22 422.91 199.05 440.96 181.01 491.27 181.01 491.27 199.65 491.27 224.22 491.27 274.44 422.91 274.44"/><polygon class="cls-14" points="440.96 199.05 422.91 199.05 440.96 181.01 440.96 199.05"/><polygon class="cls-32" points="422.91 199.05 440.96 199.05 422.91 217.08 422.91 199.05"/><g class="cls-43"><path class="cls-34" d="M948.69,574.07,937.59,563l-4.66-4.66-44.75,44.75a0,0,0,0,0,0,0l0,20.46,20.47,0v0l44.75-44.75Z" transform="translate(-444.27 -359.34)"/></g><path class="cls-28" d="M930.54,554.45l-44.75,44.74c2.75,2.15,6.2,2.51,8.46.87l41-40.95Z" transform="translate(-444.27 -359.34)"/><path class="cls-14" d="M946.29,570.21l-11.09-11.1-41,40.95h0l0,.07.06-.06c-1.84,2.52-1.17,6.54,1.67,9.4s6.87,3.49,9.39,1.66l-.05.06.06,0h0Z" transform="translate(-444.27 -359.34)"/><path class="cls-28" d="M905.34,611.15c-1.64,2.25-1.27,5.72.87,8.47L951,574.87l-4.67-4.66Z" transform="translate(-444.27 -359.34)"/><path class="cls-32" d="M906.22,619.63c-2.15-2.75-2.52-6.22-.88-8.48h0l-.06,0,.05-.06c-2.52,1.83-6.54,1.18-9.39-1.66s-3.51-6.88-1.67-9.4l-.06.06,0-.07h0c-2.26,1.64-5.73,1.28-8.48-.87l0,20.46Z" transform="translate(-444.27 -359.34)"/><path class="cls-28" d="M885.76,609.61v10h10a37.66,37.66,0,0,0-4.55-5.49A37,37,0,0,0,885.76,609.61Z" transform="translate(-444.27 -359.34)"/><rect class="cls-41" x="931.92" y="550.99" width="6.86" height="6.6" transform="translate(-562.54 463.29) rotate(-44.94)"/><rect class="cls-31" x="939.8" y="554.32" width="6.86" height="15.69" transform="translate(-565.43 472.62) rotate(-45.02)"/><rect class="cls-41" x="947.68" y="566.75" width="6.86" height="6.59" transform="translate(-569.03 479.17) rotate(-44.95)"/><path class="cls-33" d="M889.7,478.92a53.87,53.87,0,1,1-53.87-53.86A53.87,53.87,0,0,1,889.7,478.92Z" transform="translate(-444.27 -359.34)"/><path class="cls-30" d="M875.66,478.92a39.83,39.83,0,1,1-39.83-39.83A39.82,39.82,0,0,1,875.66,478.92Z" transform="translate(-444.27 -359.34)"/><path class="cls-33" d="M861.62,478.92a25.79,25.79,0,1,1-25.79-25.79A25.79,25.79,0,0,1,861.62,478.92Z" transform="translate(-444.27 -359.34)"/><path class="cls-30" d="M847.59,478.92a11.76,11.76,0,1,1-11.76-11.76A11.75,11.75,0,0,1,847.59,478.92Z" transform="translate(-444.27 -359.34)"/><path class="cls-37" d="M835.83,425.06v14a39.83,39.83,0,1,1,0,79.65v14a53.86,53.86,0,1,0,0-107.72Z" transform="translate(-444.27 -359.34)"/><path class="cls-30" d="M835.83,467.16a11.76,11.76,0,1,1,0,23.51" transform="translate(-444.27 -359.34)"/><path class="cls-37" d="M835.83,453.13v14a11.76,11.76,0,1,1,0,23.51v14a25.79,25.79,0,0,0,0-51.58Z" transform="translate(-444.27 -359.34)"/><path class="cls-32" d="M847.59,478.92a11.75,11.75,0,0,0-11.76-11.76v23.51A11.75,11.75,0,0,0,847.59,478.92Z" transform="translate(-444.27 -359.34)"/><path class="cls-32" d="M835.83,439.09v14a25.79,25.79,0,0,1,0,51.58v14a39.83,39.83,0,1,0,0-79.65Z" transform="translate(-444.27 -359.34)"/><polygon class="cls-28" points="440.17 83.77 448.63 75.31 439.11 72.76 436.55 63.23 428.09 71.69 430.16 79.42 401.42 108.16 397.34 100.03 394.69 109.92 392.04 119.82 401.94 117.17 411.84 114.52 403.7 110.44 432.45 81.7 440.17 83.77"/><polygon class="cls-14" points="439.11 72.76 436.55 63.23 428.09 71.69 430.16 79.42 401.42 108.16 397.34 100.03 394.69 109.92 392.04 119.82 439.11 72.76"/><path class="cls-28" d="M880.21,383.66l7.52-20.55,21.57-3.77L950.84,409l-29.09,24.32Zm20.34-12.17a4.46,4.46,0,1,0-.56,6.28A4.45,4.45,0,0,0,900.55,371.49Z" transform="translate(-444.27 -359.34)"/><path class="cls-14" d="M900.15,377.63a4.45,4.45,0,0,0-5.7-6.82L888,363.06l21.33-3.72L950.84,409l-14.38,12Z" transform="translate(-444.27 -359.34)"/><path class="cls-34" d="M900.53,387.61a7.7,7.7,0,0,0,1.52,3c1.18,1.4,2.51,1.5,3.52.65s1.1-2.08.85-4.1c-.48-3.18.48-5.35,1.88-6.52,2.48-2.07,5.92-2.14,8.61,1.07a6.73,6.73,0,0,1,1.48,2.89l-3,1.68a4.82,4.82,0,0,0-1.11-2.39,2.18,2.18,0,0,0-3.19-.56c-.93.77-1,1.63-.65,4.13.49,3.1-.46,5.14-2.09,6.5-2.82,2.36-6.42,1.82-8.93-1.19a8.93,8.93,0,0,1-1.86-3.47Z" transform="translate(-444.27 -359.34)"/><path class="cls-34" d="M917.54,400.4l-2.94-3.51-4.17,3.49,3.31,4-2.61,2.19-5.83-7,15.46-12.92,5.62,6.72-2.62,2.18-3.1-3.71-3.56,3,2.94,3.51Z" transform="translate(-444.27 -359.34)"/><path class="cls-34" d="M928.49,411c-5.83,4.87-9.91,4.78-12.37,1.84-2.93-3.5-.37-8,3.88-11.54s9.27-4.9,12.15-1.46C935.26,403.59,932,408.08,928.49,411Zm-5.93-6.54c-3.51,2.94-4.74,5.1-3.72,6.31s3.77-.15,6.91-2.78c2.71-2.26,4.81-4.73,3.66-6.1C928.42,400.73,925.89,401.72,922.56,404.5Z" transform="translate(-444.27 -359.34)"/><path class="cls-30" d="M914.29,383.93a4.82,4.82,0,0,1,1.11,2.39l3-1.68a6.73,6.73,0,0,0-1.48-2.89c-2.69-3.21-6.13-3.14-8.61-1.07a6,6,0,0,0-2,4.33l4.19,5a8.62,8.62,0,0,0,0-2.52c-.37-2.5-.28-3.36.65-4.13A2.18,2.18,0,0,1,914.29,383.93Z" transform="translate(-444.27 -359.34)"/><polygon class="cls-30" points="475.76 38.97 472.82 35.46 476.38 32.48 479.49 36.2 482.1 34.01 476.49 27.29 468.79 33.73 474.23 40.24 475.76 38.97"/><path class="cls-30" d="M920,401.34h0l2.6,3.13c3.32-2.77,5.83-3.74,6.82-2.55,1.15,1.37-.95,3.84-3.66,6.1l-.1.09,2.59,3.11.25-.19c3.54-3,6.77-7.45,3.66-11.16C929.27,396.44,924.22,397.81,920,401.34Z" transform="translate(-444.27 -359.34)"/><path class="cls-31" d="M1009.51,533.16a48.8,48.8,0,0,0-37.22,80.41l-11.38,21.58L981.6,622a48.82,48.82,0,1,0,27.91-88.87Z" transform="translate(-444.27 -359.34)"/><path class="cls-41" d="M1009.51,533.16l-.5,0v97.64h.5a48.84,48.84,0,0,0,0-97.67Z" transform="translate(-444.27 -359.34)"/><path class="cls-30" d="M1005.12,615.71v-7.85a34.8,34.8,0,0,1-14-3.55l2.48-9.67a29.16,29.16,0,0,0,13.72,3.63c4.79,0,8-1.9,8-5.11s-2.65-5.13-8.85-7.2c-8.84-3-14.87-7.1-14.87-15.11,0-7.36,5.12-13.07,14-14.71v-7.86h8.09v7.27a30,30,0,0,1,12.08,2.73l-2.48,9.34a25.77,25.77,0,0,0-11.91-2.89c-5.36,0-7.1,2.39-7.1,4.7,0,2.65,2.89,4.47,10,7,9.83,3.47,13.72,8,13.72,15.53s-5.13,13.64-14.64,15.21v8.51Z" transform="translate(-444.27 -359.34)"/><path class="cls-32" d="M1014.21,576.46c-2.09-.76-3.8-1.44-5.2-2.1V586.9c4.37,1.76,6.28,3.59,6.28,6.26s-2.46,4.61-6.28,5v17.52h4.28V607.2c9.51-1.57,14.64-7.85,14.64-15.21S1024,579.93,1014.21,576.46Z" transform="translate(-444.27 -359.34)"/><path class="cls-32" d="M1009,548.28v16.63a13.26,13.26,0,0,1,2.3-.18,25.77,25.77,0,0,1,11.91,2.89l2.48-9.34a30,30,0,0,0-12.08-2.73v-7.27Z" transform="translate(-444.27 -359.34)"/><path class="cls-32" d="M1011.91,505.55c-3.52,2.19-8.46-2.75-6.27-6.26,4.08-6,6.48-10,10.3-16.19a78.06,78.06,0,0,1,12.16,12.15C1021.87,499.08,1017.94,501.48,1011.91,505.55Z" transform="translate(-444.27 -359.34)"/><path class="cls-36" d="M1059.91,459c7.26-8.1.43-14.93-7.67-7.66-13.63,12.21-22.33,19.76-36.09,31.82l11.94,11.94C1040.15,481.28,1047.71,472.58,1059.91,459Z" transform="translate(-444.27 -359.34)"/><rect class="cls-28" x="1019.88" y="481.02" width="2.64" height="17.95" transform="translate(-491.71 506.1) rotate(-44.99)"/><path class="cls-36" d="M996.51,504.44c-.59,3-.4,10.58-5.27,11.28,0,0,10.21,2.37,16.61-1a11.78,11.78,0,0,0,3.82-2.93,8.72,8.72,0,1,0-15.16-7.36Z" transform="translate(-444.27 -359.34)"/><path class="cls-30" d="M1010.86,499.63l9-9.06-5.31-5.3c-2.74,4.48-4.87,7.89-7.82,12.32a8.67,8.67,0,0,1,4,1.92Z" transform="translate(-444.27 -359.34)"/><path class="cls-31" d="M1021.78,488.71,1061.46,449c-1.93-1.46-5.43-1.14-9.22,2.26-13.62,12.2-22.32,19.75-36.07,31.81Z" transform="translate(-444.27 -359.34)"/><polygon class="cls-14" points="577.5 129.37 571.89 123.75 571.51 123.37 569.64 125.24 570.33 125.92 575.64 131.23 577.5 129.37"/><path class="cls-31" d="M1001,507.73c2.6-8.82,9.88-8.1,9.88-8.1l-.12-.12a8.71,8.71,0,0,0-14.23,4.93c-.59,3-.4,10.58-5.27,11.28C991.24,515.72,998.38,516.54,1001,507.73Z" transform="translate(-444.27 -359.34)"/><path class="cls-14" d="M755.12,447a151.59,151.59,0,0,1-39.81,0,70.58,70.58,0,0,1,0-30.75,152.46,152.46,0,0,1,39.81,0A70.89,70.89,0,0,1,755.12,447Z" transform="translate(-444.27 -359.34)"/><path class="cls-28" d="M715.31,447a151.59,151.59,0,0,0,39.81,0,71.07,71.07,0,0,0,1.68-15.43H713.62A71.08,71.08,0,0,0,715.31,447Z" transform="translate(-444.27 -359.34)"/><path class="cls-30" d="M743.34,430.71a1,1,0,0,1,0,1.78l-11.51,7.23c-.78.49-1.41.09-1.41-.88V424.37c0-1,.63-1.38,1.41-.89Z" transform="translate(-444.27 -359.34)"/><path class="cls-34" d="M730.42,438.84c0,1,.63,1.37,1.41.88l11.51-7.23a1,1,0,0,0,.58-.95h-13.5Z" transform="translate(-444.27 -359.34)"/><rect class="cls-27" x="205.2" y="618.63" width="400.34" height="239.46" rx="6.68"/><path class="cls-44" d="M669.13,1000.47a6.89,6.89,0,1,1,0-9.74A6.89,6.89,0,0,1,669.13,1000.47Z" transform="translate(-444.27 -359.34)"/><path class="cls-25" d="M670.31,999.29a6.89,6.89,0,1,1,0-9.75A6.9,6.9,0,0,1,670.31,999.29Z" transform="translate(-444.27 -359.34)"/><path class="cls-26" d="M659.9,998.47a6.49,6.49,0,0,0,.67.82,7.29,7.29,0,0,0,.81.66l9.6-9.59a7.49,7.49,0,0,0-.67-.82,8.35,8.35,0,0,0-.81-.66Z" transform="translate(-444.27 -359.34)"/><path class="cls-44" d="M1038.73,1000.47a6.89,6.89,0,1,1,0-9.74A6.89,6.89,0,0,1,1038.73,1000.47Z" transform="translate(-444.27 -359.34)"/><path class="cls-25" d="M1039.91,999.29a6.89,6.89,0,1,1,0-9.75A6.9,6.9,0,0,1,1039.91,999.29Z" transform="translate(-444.27 -359.34)"/><path class="cls-26" d="M1029.5,998.47a6.49,6.49,0,0,0,.67.82,7.29,7.29,0,0,0,.81.66l9.59-9.59a5.65,5.65,0,0,0-.66-.82,8.35,8.35,0,0,0-.81-.66Z" transform="translate(-444.27 -359.34)"/><path class="cls-44" d="M669.13,1206.41a6.89,6.89,0,1,1,0-9.75A6.89,6.89,0,0,1,669.13,1206.41Z" transform="translate(-444.27 -359.34)"/><path class="cls-25" d="M670.31,1205.23a6.89,6.89,0,1,1,0-9.75A6.89,6.89,0,0,1,670.31,1205.23Z" transform="translate(-444.27 -359.34)"/><path class="cls-26" d="M659.9,1204.42a7.19,7.19,0,0,0,.67.81,7.29,7.29,0,0,0,.81.66l9.6-9.6a7.38,7.38,0,0,0-.67-.81,7.09,7.09,0,0,0-.81-.66Z" transform="translate(-444.27 -359.34)"/><path class="cls-44" d="M1038.73,1206.41a6.89,6.89,0,1,1,0-9.75A6.89,6.89,0,0,1,1038.73,1206.41Z" transform="translate(-444.27 -359.34)"/><path class="cls-25" d="M1039.91,1205.23a6.89,6.89,0,1,1,0-9.75A6.89,6.89,0,0,1,1039.91,1205.23Z" transform="translate(-444.27 -359.34)"/><path class="cls-26" d="M1029.5,1204.42a7.19,7.19,0,0,0,.67.81,7.29,7.29,0,0,0,.81.66l9.59-9.6a5.57,5.57,0,0,0-.66-.81,7.09,7.09,0,0,0-.81-.66Z" transform="translate(-444.27 -359.34)"/><path class="cls-27" d="M679.19,1172.56c0,3.69,5.14,6.68,11.48,6.68h5.74c6.34,0,11.48-3,11.48-6.68V1032.79c0-3.68-5.14-6.67-11.48-6.67h-5.74c-6.34,0-11.48,3-11.48,6.67Z" transform="translate(-444.27 -359.34)"/><rect class="cls-44" x="285.18" y="666.77" width="287.31" height="128.62"/><path class="cls-25" d="M680.86,1172.56c0,3.69,5.14,6.68,11.48,6.68h5.74c6.35,0,11.48-3,11.48-6.68V1032.79c0-3.68-5.13-6.67-11.48-6.67h-5.74c-6.34,0-11.48,3-11.48,6.67Z" transform="translate(-444.27 -359.34)"/><rect class="cls-26" x="286.85" y="666.77" width="287.31" height="128.62"/><path class="cls-45" d="M697,1149a7.52,7.52,0,0,1-6.25-3.33l-89.22-133a7.51,7.51,0,1,1,12.48-8.37l89.23,133A7.53,7.53,0,0,1,697,1149Z" transform="translate(-444.27 -359.34)"/><path class="cls-27" d="M699.92,1143.46a2.49,2.49,0,0,1-2.08-1.11l-89.23-133a2.5,2.5,0,1,1,4.16-2.79l89.23,133a2.51,2.51,0,0,1-.69,3.48A2.47,2.47,0,0,1,699.92,1143.46Z" transform="translate(-444.27 -359.34)"/><path class="cls-31" d="M628.2,1003.74A22.55,22.55,0,1,1,599.91,989,22.56,22.56,0,0,1,628.2,1003.74Z" transform="translate(-444.27 -359.34)"/><path class="cls-41" d="M618.91,1022.87a22.54,22.54,0,0,1-28.34-28.12,22.55,22.55,0,1,0,37.68,22.38A22.55,22.55,0,0,1,618.91,1022.87Z" transform="translate(-444.27 -359.34)"/><path class="cls-30" d="M611.1,995.33a4,4,0,1,1-5-2.58A4,4,0,0,1,611.1,995.33Z" transform="translate(-444.27 -359.34)"/><path class="cls-30" d="M613.89,1002.78a1.46,1.46,0,1,1-1.84-.95A1.46,1.46,0,0,1,613.89,1002.78Z" transform="translate(-444.27 -359.34)"/><polygon class="cls-26" points="286.24 552.28 269.1 552.28 269.1 591.6 269.1 618.53 286.24 618.53 286.24 552.28"/><polygon class="cls-14" points="253.11 463.31 253.11 503.14 272.72 503.14 253.11 524.34 253.11 533.35 253.11 591.02 300.92 591.02 300.92 463.31 253.11 463.31"/><polygon class="cls-28" points="300.92 463.31 277.11 463.31 277.11 533.35 277.11 591.02 300.92 591.02 300.92 463.31"/><polygon class="cls-28" points="300.92 463.31 253.02 463.31 253.02 468.7 253.02 473.15 300.92 473.15 300.92 463.31"/><polygon class="cls-14" points="307.81 571.05 307.81 567.89 277.67 567.89 247.52 567.89 247.52 571.05 307.81 571.05"/><polygon class="cls-28" points="307.81 569.22 307.81 562.39 277.67 562.39 247.52 562.39 247.52 569.22 307.81 569.22"/><polygon class="cls-28" points="277.01 434.62 294.57 451.74 312.13 468.86 277.01 468.86 241.89 468.86 259.45 451.74 277.01 434.62"/><polygon class="cls-14" points="277.01 434.62 277.01 468.86 241.89 468.86 259.45 451.74 277.01 434.62"/><polygon class="cls-32" points="148.55 495.79 261.26 511.76 148.55 527.72 148.55 495.79"/><path class="cls-32" d="M614.66,873a48.44,48.44,0,1,1-48.44-48.44A48.45,48.45,0,0,1,614.66,873Z" transform="translate(-444.27 -359.34)"/><path class="cls-32" d="M544.5,870.78a27.29,27.29,0,1,1-27.29-27.29A27.28,27.28,0,0,1,544.5,870.78Z" transform="translate(-444.27 -359.34)"/><path class="cls-32" d="M570.11,849.62a27.28,27.28,0,1,1-27.28-27.29A27.28,27.28,0,0,1,570.11,849.62Z" transform="translate(-444.27 -359.34)"/><path class="cls-32" d="M582.36,827.9a16.7,16.7,0,1,1-16.7-16.7A16.71,16.71,0,0,1,582.36,827.9Z" transform="translate(-444.27 -359.34)"/><path class="cls-32" d="M506.64,917a16.71,16.71,0,1,1-16.71-16.71A16.71,16.71,0,0,1,506.64,917Z" transform="translate(-444.27 -359.34)"/><path class="cls-32" d="M459.86,889.14a7.8,7.8,0,1,1-7.79-7.79A7.8,7.8,0,0,1,459.86,889.14Z" transform="translate(-444.27 -359.34)"/><path class="cls-32" d="M570.11,897.5a26.17,26.17,0,1,1-26.17-26.17A26.17,26.17,0,0,1,570.11,897.5Z" transform="translate(-444.27 -359.34)"/><path class="cls-32" d="M618,890.82a26.17,26.17,0,1,1-26.17-26.17A26.17,26.17,0,0,1,618,890.82Z" transform="translate(-444.27 -359.34)"/><path class="cls-25" d="M741.86,1141.74a.7.7,0,0,1-.37-.11.69.69,0,0,1-.22-1L766.81,1100a.65.65,0,0,1,.46-.31l18.35-3.4,15-21.86a.68.68,0,0,1,.92-.2l18.06,10.7,21.73-34a.7.7,0,0,1,.46-.31.73.73,0,0,1,.55.14l27.6,21.72,39.67-24.85a.69.69,0,0,1,.64-.05l44,18.91,20.83-18.28a.58.58,0,0,1,.24-.14l26.33-8.77a.69.69,0,0,1,.87.43.7.7,0,0,1-.44.88l-26.19,8.73-21,18.48a.67.67,0,0,1-.73.11l-44.05-19-39.77,24.93a.69.69,0,0,1-.79-.05l-27.39-21.54-21.68,33.87a.69.69,0,0,1-.93.22l-18.08-10.72-14.82,21.56a.69.69,0,0,1-.44.29l-18.34,3.4-25.38,40.47A.71.71,0,0,1,741.86,1141.74Z" transform="translate(-444.27 -359.34)"/><rect class="cls-25" x="326.22" y="753.34" width="11.21" height="28.4"/><rect class="cls-25" x="348.65" y="743.03" width="11.21" height="38.71"/><rect class="cls-25" x="371.07" y="752.36" width="11.21" height="29.39"/><rect class="cls-25" x="393.49" y="718.97" width="11.21" height="62.78"/><rect class="cls-25" x="415.92" y="743.94" width="11.21" height="37.81"/><rect class="cls-25" x="438.33" y="724.2" width="11.21" height="57.54"/><rect class="cls-25" x="460.76" y="704.66" width="11.21" height="77.08"/><rect class="cls-25" x="483.18" y="720.18" width="11.21" height="61.56"/><rect class="cls-25" x="505.96" y="729.07" width="11.21" height="52.67"/><rect class="cls-25" x="527.9" y="707.79" width="11.21" height="73.95"/><rect class="cls-25" x="550.68" y="689.17" width="11.21" height="92.57"/><path class="cls-30" d="M744.84,1141.16a3.34,3.34,0,1,1-3.33-3.33A3.33,3.33,0,0,1,744.84,1141.16Z" transform="translate(-444.27 -359.34)"/><path class="cls-25" d="M741.51,1145.19a4,4,0,1,1,4-4A4,4,0,0,1,741.51,1145.19Zm0-6.67a2.65,2.65,0,1,0,2.65,2.64A2.65,2.65,0,0,0,741.51,1138.52Z" transform="translate(-444.27 -359.34)"/><path class="cls-30" d="M771.08,1100.44a3.34,3.34,0,1,1-3.34-3.34A3.34,3.34,0,0,1,771.08,1100.44Z" transform="translate(-444.27 -359.34)"/><path class="cls-25" d="M767.74,1104.46a4,4,0,1,1,4-4A4,4,0,0,1,767.74,1104.46Zm0-6.67a2.65,2.65,0,1,0,2.65,2.65A2.65,2.65,0,0,0,767.74,1097.79Z" transform="translate(-444.27 -359.34)"/><path class="cls-30" d="M789.25,1096.76a3.34,3.34,0,1,1-3.34-3.34A3.33,3.33,0,0,1,789.25,1096.76Z" transform="translate(-444.27 -359.34)"/><path class="cls-25" d="M785.91,1100.78a4,4,0,1,1,4-4A4,4,0,0,1,785.91,1100.78Zm0-6.67a2.65,2.65,0,1,0,2.65,2.65A2.65,2.65,0,0,0,785.91,1094.11Z" transform="translate(-444.27 -359.34)"/><path class="cls-30" d="M804.44,1075.13a3.34,3.34,0,1,1-3.34-3.34A3.33,3.33,0,0,1,804.44,1075.13Z" transform="translate(-444.27 -359.34)"/><path class="cls-25" d="M801.1,1079.15a4,4,0,1,1,4-4A4,4,0,0,1,801.1,1079.15Zm0-6.67a2.65,2.65,0,1,0,2.65,2.65A2.65,2.65,0,0,0,801.1,1072.48Z" transform="translate(-444.27 -359.34)"/><path class="cls-30" d="M823.31,1085.48a3.34,3.34,0,1,1-3.34-3.33A3.34,3.34,0,0,1,823.31,1085.48Z" transform="translate(-444.27 -359.34)"/><path class="cls-25" d="M820,1089.51a4,4,0,1,1,4-4A4,4,0,0,1,820,1089.51Zm0-6.67a2.65,2.65,0,1,0,2.65,2.64A2.65,2.65,0,0,0,820,1082.84Z" transform="translate(-444.27 -359.34)"/><path class="cls-30" d="M845.16,1051.2a3.34,3.34,0,1,1-3.33-3.34A3.34,3.34,0,0,1,845.16,1051.2Z" transform="translate(-444.27 -359.34)"/><path class="cls-25" d="M841.83,1055.22a4,4,0,1,1,4-4A4,4,0,0,1,841.83,1055.22Zm0-6.67a2.65,2.65,0,1,0,2.65,2.65A2.65,2.65,0,0,0,841.83,1048.55Z" transform="translate(-444.27 -359.34)"/><path class="cls-30" d="M873.26,1073.33a3.34,3.34,0,1,1-3.34-3.34A3.35,3.35,0,0,1,873.26,1073.33Z" transform="translate(-444.27 -359.34)"/><path class="cls-25" d="M869.92,1077.36a4,4,0,1,1,4-4A4,4,0,0,1,869.92,1077.36Zm0-6.67a2.65,2.65,0,1,0,2.65,2.64A2.65,2.65,0,0,0,869.92,1070.69Z" transform="translate(-444.27 -359.34)"/><path class="cls-30" d="M913.34,1048.22a3.34,3.34,0,1,1-3.34-3.34A3.34,3.34,0,0,1,913.34,1048.22Z" transform="translate(-444.27 -359.34)"/><path class="cls-25" d="M910,1052.24a4,4,0,1,1,4-4A4,4,0,0,1,910,1052.24Zm0-6.67a2.65,2.65,0,1,0,2.65,2.65A2.65,2.65,0,0,0,910,1045.57Z" transform="translate(-444.27 -359.34)"/><path class="cls-30" d="M957.72,1067.31a3.34,3.34,0,1,1-3.34-3.34A3.35,3.35,0,0,1,957.72,1067.31Z" transform="translate(-444.27 -359.34)"/><path class="cls-25" d="M954.38,1071.34a4,4,0,1,1,4-4A4,4,0,0,1,954.38,1071.34Zm0-6.67a2.65,2.65,0,1,0,2.65,2.64A2.64,2.64,0,0,0,954.38,1064.67Z" transform="translate(-444.27 -359.34)"/><path class="cls-30" d="M978.88,1048.73a3.34,3.34,0,1,1-3.34-3.33A3.34,3.34,0,0,1,978.88,1048.73Z" transform="translate(-444.27 -359.34)"/><path class="cls-25" d="M975.54,1052.76a4,4,0,1,1,4-4A4,4,0,0,1,975.54,1052.76Zm0-6.67a2.65,2.65,0,1,0,2.65,2.64A2.65,2.65,0,0,0,975.54,1046.09Z" transform="translate(-444.27 -359.34)"/><path class="cls-30" d="M1005.2,1040a3.34,3.34,0,1,1-3.34-3.33A3.34,3.34,0,0,1,1005.2,1040Z" transform="translate(-444.27 -359.34)"/><path class="cls-25" d="M1001.86,1044a4,4,0,1,1,4-4A4,4,0,0,1,1001.86,1044Zm0-6.68a2.65,2.65,0,1,0,2.65,2.65A2.65,2.65,0,0,0,1001.86,1037.31Z" transform="translate(-444.27 -359.34)"/><path class="cls-27" d="M949.63,911.25c-11.35,0-16-8-10.31-17.87l31.73-55c5.68-9.83,15-9.83,20.64,0l31.74,55c5.68,9.83,1,17.87-10.32,17.87Z" transform="translate(-444.27 -359.34)"/><rect class="cls-27" x="522.65" y="445.3" width="28.9" height="51.6"/><path class="cls-26" d="M1023.43,893.38l-27.61-47.82V804.64h-28.9v40.92l-27.6,47.82c-5.68,9.83-1,17.87,10.31,17.87h63.48C1024.46,911.25,1029.11,903.21,1023.43,893.38Z" transform="translate(-444.27 -359.34)"/><path class="cls-30" d="M949.63,903c-3.11,0-4.26-.89-4.39-1.12s-.33-1.68,1.22-4.37l28.72-49.73V812.9h12.38v34.88l28.72,49.73c1.56,2.69,1.36,4.13,1.22,4.37s-1.28,1.12-4.39,1.12Z" transform="translate(-444.27 -359.34)"/><rect class="cls-26" x="519.55" y="443.65" width="35.1" height="13.58" rx="2.82"/><path class="cls-31" d="M946.46,897.51c-1.55,2.69-1.36,4.13-1.22,4.37s1.28,1.12,4.39,1.12h63.48c3.11,0,4.26-.89,4.39-1.12s.34-1.68-1.22-4.37l-14.89-25.78h-40Z" transform="translate(-444.27 -359.34)"/><path class="cls-36" d="M1001.39,871.73H979.31V903h33.8c3.11,0,4.26-.89,4.39-1.12s.34-1.68-1.22-4.37Z" transform="translate(-444.27 -359.34)"/><path class="cls-44" d="M1009.13,929.52H953.61a2.11,2.11,0,0,1-1.52-.66,2,2,0,0,1-.53-1.56,28,28,0,0,1,7.23-16.7,2.06,2.06,0,1,1,3.06,2.76,24.06,24.06,0,0,0-5.9,12h50.84a24.06,24.06,0,0,0-5.9-12,2.06,2.06,0,1,1,3.07-2.76,28.13,28.13,0,0,1,7.23,16.7,2.12,2.12,0,0,1-.54,1.56A2.07,2.07,0,0,1,1009.13,929.52Z" transform="translate(-444.27 -359.34)"/><path class="cls-44" d="M981.37,928.49a2.06,2.06,0,0,1-2.06-2.06V912a2.06,2.06,0,1,1,4.12,0v14.45A2.06,2.06,0,0,1,981.37,928.49Z" transform="translate(-444.27 -359.34)"/><path class="cls-26" d="M1006.66,936.23a3.62,3.62,0,0,1-3.61,3.62H959.7a3.62,3.62,0,0,1-3.62-3.62h0a3.62,3.62,0,0,1,3.62-3.61h43.35a3.61,3.61,0,0,1,3.61,3.61Z" transform="translate(-444.27 -359.34)"/><path class="cls-25" d="M748,1200.37A19.36,19.36,0,1,1,767.31,1181,19.37,19.37,0,0,1,748,1200.37Zm0-34.41A15.06,15.06,0,1,0,763,1181,15.07,15.07,0,0,0,748,1166Z" transform="translate(-444.27 -359.34)"/><path class="cls-25" d="M748,1176.72a4.3,4.3,0,1,0,4.3,4.3,4.3,4.3,0,0,0-4.3-4.3Z" transform="translate(-444.27 -359.34)"/><rect class="cls-25" x="301.53" y="804.47" width="4.3" height="15.77"/><rect class="cls-25" x="732.01" y="1183.52" width="15.77" height="4.3" transform="translate(-938.16 169.79) rotate(-30.02)"/><rect class="cls-25" x="753.88" y="1177.79" width="4.3" height="15.77" transform="translate(-1093.07 888.53) rotate(-60.01)"/><path class="cls-25" d="M795.78,1200.37A19.36,19.36,0,1,1,815.13,1181,19.37,19.37,0,0,1,795.78,1200.37Zm0-34.41A15.06,15.06,0,1,0,810.83,1181,15.07,15.07,0,0,0,795.78,1166Z" transform="translate(-444.27 -359.34)"/><path class="cls-25" d="M795.78,1176.72a4.3,4.3,0,1,0,4.3,4.3,4.3,4.3,0,0,0-4.3-4.3Z" transform="translate(-444.27 -359.34)"/><rect class="cls-25" x="349.36" y="804.47" width="4.3" height="15.77"/><rect class="cls-25" x="779.83" y="1183.52" width="15.77" height="4.3" transform="translate(-931.91 194.02) rotate(-30.03)"/><rect class="cls-25" x="801.7" y="1177.79" width="4.3" height="15.77" transform="matrix(0.5, -0.87, 0.87, 0.5, -1069.17, 929.63)"/><path class="cls-25" d="M843.6,1200.37A19.36,19.36,0,1,1,863,1181,19.37,19.37,0,0,1,843.6,1200.37Zm0-34.41a15.06,15.06,0,1,0,15,15.06A15.07,15.07,0,0,0,843.6,1166Z" transform="translate(-444.27 -359.34)"/><path class="cls-25" d="M843.6,1176.72a4.3,4.3,0,1,0,4.3,4.3,4.29,4.29,0,0,0-4.3-4.3Z" transform="translate(-444.27 -359.34)"/><rect class="cls-25" x="397.18" y="804.47" width="4.3" height="15.77"/><rect class="cls-25" x="827.65" y="1183.52" width="15.77" height="4.3" transform="translate(-925.65 218.31) rotate(-30.05)"/><rect class="cls-25" x="849.52" y="1177.79" width="4.3" height="15.77" transform="translate(-1045.22 971.52) rotate(-60.02)"/><path class="cls-26" d="M1013.52,1176.76a14.63,14.63,0,1,1-18.35-9.55A14.65,14.65,0,0,1,1013.52,1176.76Z" transform="translate(-444.27 -359.34)"/><path class="cls-27" d="M1010.5,1177.71a11.47,11.47,0,1,1-14.38-7.49A11.48,11.48,0,0,1,1010.5,1177.71Z" transform="translate(-444.27 -359.34)"/><path class="cls-31" d="M1009.26,1178.1a10.17,10.17,0,1,1-12.76-6.64A10.17,10.17,0,0,1,1009.26,1178.1Z" transform="translate(-444.27 -359.34)"/><path class="cls-36" d="M1005.07,1186.73a10.16,10.16,0,0,1-12.78-12.68,10.17,10.17,0,1,0,17,10.09A10.11,10.11,0,0,1,1005.07,1186.73Z" transform="translate(-444.27 -359.34)"/><path class="cls-30" d="M1001.55,1174.31a1.79,1.79,0,1,1-2.24-1.17A1.79,1.79,0,0,1,1001.55,1174.31Z" transform="translate(-444.27 -359.34)"/><path class="cls-30" d="M1002.81,1177.67a.66.66,0,1,1-.83-.43A.66.66,0,0,1,1002.81,1177.67Z" transform="translate(-444.27 -359.34)"/><path class="cls-26" d="M978.43,1176.76a14.63,14.63,0,1,1-18.36-9.55A14.66,14.66,0,0,1,978.43,1176.76Z" transform="translate(-444.27 -359.34)"/><path class="cls-27" d="M975.41,1177.71a11.47,11.47,0,1,1-14.39-7.49A11.48,11.48,0,0,1,975.41,1177.71Z" transform="translate(-444.27 -359.34)"/><path class="cls-14" d="M974.17,1178.1a10.17,10.17,0,1,1-12.75-6.64A10.18,10.18,0,0,1,974.17,1178.1Z" transform="translate(-444.27 -359.34)"/><path class="cls-28" d="M970,1186.73a10.17,10.17,0,0,1-12.76-6.64,10,10,0,0,1,0-6,10.17,10.17,0,1,0,17,10.09A10.11,10.11,0,0,1,970,1186.73Z" transform="translate(-444.27 -359.34)"/><path class="cls-30" d="M966.46,1174.31a1.79,1.79,0,1,1-2.25-1.17A1.79,1.79,0,0,1,966.46,1174.31Z" transform="translate(-444.27 -359.34)"/><path class="cls-30" d="M967.72,1177.67a.66.66,0,0,1-.44.82.65.65,0,0,1-.39-1.25A.66.66,0,0,1,967.72,1177.67Z" transform="translate(-444.27 -359.34)"/><polygon class="cls-14" points="561.48 935.65 565.64 935.65 468.95 574.81 464.79 574.81 561.48 935.65"/><polygon class="cls-14" points="504.6 935.65 508.76 935.65 412.08 574.81 407.92 574.81 504.6 935.65"/><polygon class="cls-14" points="472.87 597.18 471.75 593.02 413.49 593.02 414.6 597.18 472.87 597.18"/><polygon class="cls-14" points="481.36 628.92 480.25 624.76 421.99 624.76 423.11 628.92 481.36 628.92"/><polygon class="cls-14" points="489.87 660.65 488.75 656.49 430.49 656.49 431.6 660.65 489.87 660.65"/><polygon class="cls-14" points="498.37 692.38 497.26 688.22 438.99 688.22 440.11 692.38 498.37 692.38"/><polygon class="cls-14" points="506.87 724.11 505.76 719.95 447.49 719.95 448.61 724.11 506.87 724.11"/><polygon class="cls-14" points="515.38 755.84 514.26 751.68 456 751.68 457.11 755.84 515.38 755.84"/><polygon class="cls-14" points="523.88 787.57 522.76 783.41 464.5 783.41 465.61 787.57 523.88 787.57"/><polygon class="cls-14" points="532.38 819.3 531.26 815.15 473 815.15 474.12 819.3 532.38 819.3"/><polygon class="cls-14" points="540.88 851.04 539.77 846.88 481.51 846.88 482.62 851.04 540.88 851.04"/><polygon class="cls-14" points="549.38 882.77 548.27 878.61 490.01 878.61 491.13 882.77 549.38 882.77"/><polygon class="cls-14" points="557.89 914.5 556.77 910.34 498.51 910.34 499.63 914.5 557.89 914.5"/><path class="cls-16" d="M921.35,1012c-.58-.59-.34-2.29-.34-2.29s9.07-1.75,12.06-1.3a15.18,15.18,0,0,1,3.4,1.28c.21.1.63.77.84.87.38.19.55-.19.87,0a10.57,10.57,0,0,1,1.48.85c1.14,4.13.21,5.91.21,5.91s-7.34,2.94-9.18,1.53C926,1015.21,922.6,1013.27,921.35,1012Z" transform="translate(-444.27 -359.34)"/><path class="cls-16" d="M900.27,1004.36l.63,6.93-6.7,1.93s-.64-.82-1.2-.66-.82,1.25-1.48,1.43l-3.59,1-13.44,3.87s-.69-1.3-.46-1.88a6.78,6.78,0,0,1,1.8-1.47c3.18-2,12.2-7.86,13-11.65C889.73,999.27,900.27,1004.36,900.27,1004.36Z" transform="translate(-444.27 -359.34)"/><path class="cls-13" d="M895,781.79l1.08-8.38s-5.72-1.46-5.78-4.83c-.15-6.75,4.94-15.74,7.17-18,6.35-6.39,12.49-19.28,26.44-2.65,5.29,6.33-11.69,22.52-13.91,26.52s-1.59,9.68-1.59,9.68l-5.15,1.69Z" transform="translate(-444.27 -359.34)"/><path class="cls-10" d="M931.2,838.37l-34.84,10.1s20.61,4.59,37.84.9S932.88,838.55,931.2,838.37Z" transform="translate(-444.27 -359.34)"/><path class="cls-18" d="M916.52,923.6s-13.95,17.47-8.86,32.32c9.06,26.42,16.36,47.6,19.38,56.44,1.17,3.43,2.11,2.72,2.11,2.72l7.67.23,3.36-3.42L924.37,951Z" transform="translate(-444.27 -359.34)"/><path class="cls-13" d="M841.56,779.49l-21.48-26s8.24,35.81,19.88,38.7S841.56,779.49,841.56,779.49Z" transform="translate(-444.27 -359.34)"/><path class="cls-14" d="M909.37,783.43s7.67-.88,22.24,27.31,11.44,28,11.44,28l1.56,7-10.75,5.07L919,827.32Z" transform="translate(-444.27 -359.34)"/><path class="cls-18" d="M880.28,873.81s14.23,58.68,33.31,92.11c10.2,17.89,9.55-7.82,9.55-7.82L907.36,852.52l-36.42-1.72S874.74,855.6,880.28,873.81Z" transform="translate(-444.27 -359.34)"/><path class="cls-18" d="M904.61,870.91S875.34,930,873.93,934.2c-6.86,20.58-15.57-4.7-16-9.72s1.49-30.8,8.38-55.58l6.89-24.78Z" transform="translate(-444.27 -359.34)"/><path class="cls-18" d="M874.66,922.7s5,10.17,10.55,23.41c4.07,9.72,12.38,38.44,16.27,58.93.24,1.25-13.52,1.19-13.52,1.19s-20.72-54.51-25.39-66.72S864.13,916.06,874.66,922.7Z" transform="translate(-444.27 -359.34)"/><path class="cls-14" d="M920.27,792l-8.9-9.44-3.76-5.05-16.4-2.29-3.48,5-13.46,4.83s-3.77,5.25-3.36,26.34c.45,23.37-11.19,55.39-6.53,58.89,30.53,22.92,46.7,5,46.7,5S926.68,831.27,920.27,792Z" transform="translate(-444.27 -359.34)"/><path class="cls-14" d="M896.88,788.29s1.84,3.91-9,7c-18.4,5.24-37.69,3.38-41.47,3.13s-9.06-.75-12.63-7.59c-2.73-5.22-3.67-6.94-3.67-6.94l10.37-7.3,2.31,2.81,1,1.74s13.95-.77,27-1.61C901.37,777.57,896.88,788.29,896.88,788.29Z" transform="translate(-444.27 -359.34)"/><path class="cls-17" d="M901.65,754.52s2.4-.55,2.18,1.08-2.42,4.63-3.43,4.63-2.72,4-2.72,4l.89,5.41,12.36,4.19s4.39-.39,5.63-3,10.85-21,10.85-21l-7.14-7.53a60.15,60.15,0,0,0-6.7-5.85c-4.45-3.07-6.37-.79-6.68.63s-1.89,1.06-3.88.39-4.94,0-4.19,1.3c.32.53-2.06,1.07-1.78,2.79.42,2.47,3.94,4.41,3.11,7.87C899.77,751,898.69,756.24,901.65,754.52Z" transform="translate(-444.27 -359.34)"/><path class="cls-13" d="M821.43,760.61s5.18-2.45,5.56-4,1.35-7.53,1.35-7.53l.11-1.53s-1.62-1.08-2.24,2.91-1.38,1.87-1.38,1.87l-.82-3.84-1.37-4.64-.35-2.13s-.1-1.22-.38-1.49c-.78-.79-1.08.1-1.08.1l.65,8.39-2.7-7.6s-.52-.92-1-.85-.42.39-.42.39l1,9.29-1.83-3.76s-.51-.89-1-.85-.74.05-.74.05l5.06,15.46Z" transform="translate(-444.27 -359.34)"/></g></svg>