<svg id="Layer_1" data-name="Layer 1" xmlns="http://www.w3.org/2000/svg" xmlns:xlink="http://www.w3.org/1999/xlink" viewBox="0 0 5000 5000"><defs><style>.cls-1{fill:#fff;}.cls-2{opacity:0.65;}.cls-3{fill:url(#linear-gradient);}.cls-4{fill:url(#linear-gradient-2);}.cls-5{fill:url(#linear-gradient-3);}.cls-6{fill:url(#linear-gradient-4);}.cls-7{fill:url(#linear-gradient-5);}.cls-8{fill:url(#linear-gradient-6);}.cls-9{fill:url(#linear-gradient-7);}.cls-10{fill:url(#linear-gradient-8);}.cls-11{fill:url(#linear-gradient-9);}.cls-12{fill:url(#linear-gradient-10);}.cls-13{fill:url(#linear-gradient-11);}.cls-14{fill:url(#linear-gradient-12);}.cls-15{fill:#003ca5;}</style><linearGradient id="linear-gradient" x1="2008.47" y1="-12742.62" x2="2506.84" y2="-12523.05" gradientTransform="translate(5000 -11382) rotate(180)" gradientUnits="userSpaceOnUse"><stop offset="0" stop-color="#003ca5"/><stop offset="1" stop-color="#00bcff"/></linearGradient><linearGradient id="linear-gradient-2" x1="1854.96" y1="-12700.37" x2="2501.78" y2="-12415.38" xlink:href="#linear-gradient"/><linearGradient id="linear-gradient-3" x1="1853.08" y1="-12970.47" x2="2642.39" y2="-12622.7" xlink:href="#linear-gradient"/><linearGradient id="linear-gradient-4" x1="1848.3" y1="-13212.05" x2="2763.43" y2="-12808.85" xlink:href="#linear-gradient"/><linearGradient id="linear-gradient-5" x1="1829.42" y1="-13489.47" x2="2886.4" y2="-13023.77" xlink:href="#linear-gradient"/><linearGradient id="linear-gradient-6" x1="1773.33" y1="-13700.32" x2="2961.07" y2="-13177.01" xlink:href="#linear-gradient"/><linearGradient id="linear-gradient-7" x1="1679.25" y1="-13926.56" x2="3047.37" y2="-13323.77" xlink:href="#linear-gradient"/><linearGradient id="linear-gradient-8" x1="1548.54" y1="-14138.48" x2="3121.62" y2="-13445.39" xlink:href="#linear-gradient"/><linearGradient id="linear-gradient-9" x1="1362.26" y1="-14399.87" x2="3196.02" y2="-13591.93" xlink:href="#linear-gradient"/><linearGradient id="linear-gradient-10" x1="1049.69" y1="-14630.81" x2="3215.81" y2="-13676.43" xlink:href="#linear-gradient"/><linearGradient id="linear-gradient-11" x1="411.15" y1="-15022.76" x2="3251.43" y2="-13771.35" xlink:href="#linear-gradient"/><linearGradient id="linear-gradient-12" x1="-1061.16" y1="-15753.22" x2="3272.65" y2="-13843.77" xlink:href="#linear-gradient"/></defs><rect class="cls-1" width="5000" height="5000"/><g class="cls-2"><path class="cls-3" d="M3548.29,818.61l-1090.81,1094s886.71-690.62,1013-868.12S3548.29,818.61,3548.29,818.61Z"/><path class="cls-4" d="M4187.28,725l-1804,1310.26,1517.37-939.13S4264.73,886.38,4187.28,725Z"/><path class="cls-5" d="M4135.64,1189.74c-9.47-48.23-1775,887.49-1775,887.49l1468.39-590.58S4171.14,1370.47,4135.64,1189.74Z"/><path class="cls-6" d="M4000.1,1567.33,2341.3,2109.51l1326.39-300.14S4010.05,1725.26,4000.1,1567.33Z"/><path class="cls-7" d="M2299.35,2157.91C2351,2148.23,3758.06,1932,3758.06,1932s-45.19,138.77-635.77,177.5S2299.35,2157.91,2299.35,2157.91Z"/><path class="cls-8" d="M2244.48,2209.55c9.69,0,1397.39-32.27,1397.39-32.27s-12.9,129.09-761.62,71Z"/><path class="cls-9" d="M2225.12,2246.66c6.46-3.22,1219.89,167.82,1219.89,167.82s-46.79,100-501.83,0S2225.12,2246.66,2225.12,2246.66Z"/><path class="cls-10" d="M2183.17,2274.09l1052.07,309.82s-90.36,88.75-513.13-82.3S2183.17,2274.09,2183.17,2274.09Z"/><path class="cls-11" d="M2133.14,2301.53c9.69,4.84,929.45,430.83,929.45,430.83s-119.41,66.16-371.13-87.13S2133.14,2301.53,2133.14,2301.53Z"/><path class="cls-12" d="M2086.35,2340.25c4.84,3.23,719.67,461.5,719.67,461.5s-58.09,38.72-264.63-111.34S2086.35,2340.25,2086.35,2340.25Z"/><path class="cls-13" d="M2046,2375.75l569.61,519.59s-79.07,38.72-284.81-182.34Z"/><path class="cls-14" d="M2008.9,2409.64c30.65,27.43,406.63,519.58,406.63,519.58s-59.71,23.5-156.52-123S2008.9,2409.64,2008.9,2409.64Z"/><path class="cls-15" d="M801.91,1753.43s393.72,12.91,602.42,109.73,213,285,215.15,383.46-2.15,335.14,249.57,636.34S2521,3435.9,2341.3,4275c0,0,250.59-444.21,293.68-1290.9,0,0-172.12,232.37-525-107.57s-262.49-573.37-197.94-575,107.57-74.77,174.27-169.43,138.77-114,138.77-114-108.65-109.73-216.22-219.46-161.37-210.84-344.24-124.78-245.27,92.51-507.75,71S801.91,1753.43,801.91,1753.43Zm864.9,33.35a51.64,51.64,0,1,1,51.64,51.64A51.63,51.63,0,0,1,1666.81,1786.78Z"/></g></svg>