<svg xmlns="http://www.w3.org/2000/svg" viewBox="0 0 186.15 276.03"><defs><style>.cls-1{isolation:isolate;}.cls-14,.cls-2{fill:#90278e;}.cls-3{fill:#b9d432;mix-blend-mode:darken;}.cls-13,.cls-4,.cls-9{fill:#26a9e0;}.cls-10,.cls-12,.cls-14,.cls-15,.cls-4,.cls-8{mix-blend-mode:multiply;}.cls-15,.cls-5{fill:#faaf40;}.cls-13,.cls-5{mix-blend-mode:overlay;}.cls-6{fill:#506fb5;}.cls-7,.cls-8{fill:#db256b;}.cls-10{fill:#652d90;}.cls-11{fill:#7f3f97;}.cls-12{fill:#742776;}.cls-16{font-size:48px;font-family:Montserrat-Bold, Montserrat;font-weight:700;letter-spacing:-0.01em;}.cls-16,.cls-17{fill:#fff;}</style></defs><g class="cls-1"><g id="Layer_1" data-name="Layer 1"><rect class="cls-2" x="140.15" y="95.77" width="11.34" height="11.34"/><rect class="cls-3" x="152.52" y="25.9" width="14.32" height="14.32"/><path class="cls-4" d="M304.31,210.23h12.2V195.9h-7.38A111.1,111.1,0,0,1,304.31,210.23Z" transform="translate(-161.5 -130.47)"/><path class="cls-5" d="M300.59,152.29c1,1.49,1.9,3,2.73,4.39h4V141.3H291.94v.79A58.66,58.66,0,0,1,300.59,152.29Z" transform="translate(-161.5 -130.47)"/><rect class="cls-6" x="160.6" y="47.92" width="12.49" height="12.49"/><rect class="cls-7" x="155.52" y="5.75" width="10.17" height="10.17"/><polygon class="cls-6" points="109.33 64.45 109.33 72.78 138.13 72.78 138.13 43.97 114.94 43.97 114.94 64.45 109.33 64.45"/><polygon class="cls-8" points="104.06 64.45 109.33 64.45 109.33 43.97 114.94 43.97 114.94 40.22 90.71 40.22 90.71 49.85 104.06 49.85 104.06 64.45"/><rect class="cls-6" x="109.33" y="43.97" width="5.61" height="20.48"/><rect class="cls-8" x="109.33" y="43.97" width="5.61" height="20.48"/><polygon class="cls-9" points="106.97 19.33 100.1 19.33 100.1 33.06 119.49 33.06 119.49 13.67 106.97 13.67 106.97 19.33"/><path class="cls-4" d="M302.18,195.9v14.33h2.13a111.1,111.1,0,0,0,4.82-14.33Z" transform="translate(-161.5 -130.47)"/><path class="cls-5" d="M303.32,156.68c-.83-1.44-1.73-2.9-2.73-4.39a58.66,58.66,0,0,0-8.65-10.2v14.59Z" transform="translate(-161.5 -130.47)"/><polygon class="cls-10" points="106.97 13.67 106.97 0 87.65 0 87.65 19.33 100.1 19.33 100.1 13.67 106.97 13.67"/><rect class="cls-9" x="100.1" y="13.67" width="6.88" height="5.66"/><rect class="cls-10" x="100.1" y="13.67" width="6.88" height="5.66"/><path class="cls-11" d="M206.79,264.38V237.94H184.7a2.43,2.43,0,0,0,.16.37c1.11,2.08-.42,2.63.42,4.71s3,4.15,4.15,7.06-3.93,8,.54,15c2.81,4.38,7.77,3.17,18,3.31,1.69,0,3.17,0,4.48,0v-4Z" transform="translate(-161.5 -130.47)"/><polygon class="cls-12" points="57.63 107.47 57.63 127.33 77.17 127.33 77.17 112.47 83.43 112.47 83.43 101.6 57.63 101.6 57.63 107.47"/><polygon class="cls-11" points="45.3 133.91 50.97 133.91 50.97 127.33 57.63 127.33 57.63 107.47 45.3 107.47 45.3 133.91"/><polygon class="cls-12" points="45.3 133.91 50.97 133.91 50.97 127.33 57.63 127.33 57.63 107.47 45.3 107.47 45.3 133.91"/><path class="cls-8" d="M206.79,226.24h7V197.61H186.11c-3.39,5.92-11.28,19.85-11.5,21.59-.27,2.22.28,4.71,3.6,5.54s7.76,1.24,7.62,3.6a26,26,0,0,1-1.52,5.95,5.83,5.83,0,0,0,.39,3.65h22.09Z" transform="translate(-161.5 -130.47)"/><polygon class="cls-12" points="52.32 95.77 45.3 95.77 45.3 107.47 57.63 107.47 57.63 101.6 52.32 101.6 52.32 95.77"/><polygon class="cls-8" points="52.32 95.77 45.3 95.77 45.3 107.47 57.63 107.47 57.63 101.6 52.32 101.6 52.32 95.77"/><polygon class="cls-9" points="62.58 30.05 62.58 49.85 84.65 49.85 84.65 39.3 83.91 39.3 83.91 26.81 84.65 26.81 84.65 22.83 63.77 22.83 63.77 30.05 62.58 30.05"/><polygon class="cls-5" points="62.58 59.61 62.58 67.14 57.63 67.14 57.63 95.77 83.43 95.77 83.43 101.6 104.06 101.6 104.06 99.85 100.1 99.85 100.1 75.57 104.06 75.57 104.06 64.45 90.71 64.45 90.71 49.85 84.65 49.85 84.65 59.61 62.58 59.61"/><rect class="cls-8" x="90.71" y="49.86" width="13.35" height="14.6"/><rect class="cls-5" x="90.71" y="49.86" width="13.35" height="14.6"/><rect class="cls-12" x="57.63" y="95.77" width="25.8" height="5.83"/><rect class="cls-5" x="57.63" y="95.77" width="25.8" height="5.83"/><rect class="cls-8" x="52.32" y="67.14" width="5.31" height="28.63"/><rect class="cls-5" x="52.32" y="67.14" width="5.31" height="28.63"/><rect class="cls-12" x="52.32" y="95.77" width="5.31" height="5.83"/><rect class="cls-8" x="52.32" y="95.77" width="5.31" height="5.83"/><rect class="cls-5" x="52.32" y="95.77" width="5.31" height="5.83"/><rect class="cls-9" x="62.58" y="49.86" width="22.07" height="9.75"/><rect class="cls-5" x="62.58" y="49.86" width="22.07" height="9.75"/><polygon class="cls-13" points="97.1 127.33 97.1 135.16 104.16 135.16 104.16 112.47 83.43 112.47 83.43 127.33 97.1 127.33"/><rect class="cls-12" x="77.17" y="112.47" width="6.26" height="14.86"/><rect class="cls-13" x="77.17" y="112.47" width="6.26" height="14.86"/><rect class="cls-7" x="110.69" y="105.94" width="20.12" height="20.13"/><rect class="cls-9" x="104.06" y="75.57" width="20.32" height="24.28"/><rect class="cls-5" x="100.1" y="75.57" width="3.96" height="24.28"/><rect class="cls-9" x="100.1" y="75.57" width="3.96" height="24.28"/><path class="cls-3" d="M209.37,160.52H193.5c-2.79,6.31-7.66,20.28-7.33,24.29a11,11,0,0,0,.42,2.14h22.78Z" transform="translate(-161.5 -130.47)"/><path class="cls-8" d="M213.82,190.08h-4.45V187H186.59c.93,3.07,2.83,4.89,1,8l-1.52,2.64h27.71Z" transform="translate(-161.5 -130.47)"/><path class="cls-3" d="M213.82,190.08h-4.45V187H186.59c.93,3.07,2.83,4.89,1,8l-1.52,2.64h27.71Z" transform="translate(-161.5 -130.47)"/><polygon class="cls-9" points="47.87 56.48 52.32 56.48 52.32 49.85 62.58 49.85 62.58 30.05 47.87 30.05 47.87 56.48"/><polygon class="cls-3" points="47.87 56.48 52.32 56.48 52.32 49.85 62.58 49.85 62.58 30.05 47.87 30.05 47.87 56.48"/><rect class="cls-8" x="47.87" y="56.48" width="4.45" height="3.13"/><rect class="cls-9" x="47.87" y="56.48" width="4.45" height="3.13"/><rect class="cls-3" x="47.87" y="56.48" width="4.45" height="3.13"/><rect class="cls-5" x="57.63" y="59.61" width="4.95" height="7.53"/><rect class="cls-3" x="57.63" y="59.61" width="4.95" height="7.53"/><rect class="cls-8" x="52.32" y="59.61" width="5.31" height="7.53"/><rect class="cls-5" x="52.32" y="59.61" width="5.31" height="7.53"/><rect class="cls-3" x="52.32" y="59.61" width="5.31" height="7.53"/><polygon class="cls-9" points="52.32 56.48 57.63 56.48 57.63 59.61 62.58 59.61 62.58 49.85 52.32 49.85 52.32 56.48"/><polygon class="cls-5" points="52.32 56.48 57.63 56.48 57.63 59.61 62.58 59.61 62.58 49.85 52.32 49.85 52.32 56.48"/><polygon class="cls-3" points="52.32 56.48 57.63 56.48 57.63 59.61 62.58 59.61 62.58 49.85 52.32 49.85 52.32 56.48"/><rect class="cls-8" x="52.32" y="56.48" width="5.31" height="3.13"/><rect class="cls-9" x="52.32" y="56.48" width="5.31" height="3.13"/><rect class="cls-5" x="52.32" y="56.48" width="5.31" height="3.13"/><rect class="cls-3" x="52.32" y="56.48" width="5.31" height="3.13"/><path class="cls-4" d="M195.13,157.34h14.24v-4h15.9V133.17C209,138.91,198.45,151.94,195.13,157.34Z" transform="translate(-161.5 -130.47)"/><polygon class="cls-9" points="47.87 26.87 62.58 26.87 62.58 30.05 63.77 30.05 63.77 22.83 47.87 22.83 47.87 26.87"/><polygon class="cls-4" points="47.87 26.87 62.58 26.87 62.58 30.05 63.77 30.05 63.77 22.83 47.87 22.83 47.87 26.87"/><path class="cls-3" d="M209.37,157.34H195.13c-.29.47-.53.89-.71,1.23-.27.51-.58,1.18-.92,2h15.87Z" transform="translate(-161.5 -130.47)"/><path class="cls-4" d="M209.37,157.34H195.13c-.29.47-.53.89-.71,1.23-.27.51-.58,1.18-.92,2h15.87Z" transform="translate(-161.5 -130.47)"/><rect class="cls-9" x="47.87" y="26.87" width="14.71" height="3.17"/><rect class="cls-3" x="47.87" y="26.87" width="14.71" height="3.17"/><rect class="cls-4" x="47.87" y="26.87" width="14.71" height="3.17"/><rect class="cls-6" x="84.65" y="26.81" width="11.75" height="12.49"/><rect class="cls-6" x="83.91" y="26.81" width="0.74" height="12.49"/><path class="cls-14" d="M258.6,289.87h-6.39V269.93H238.67v-5.55H219.13v4.79c2.16,1,3.74,3.19,5.75,7.91,3.12,7.35,7,20.31,8.84,26.85H258.6Z" transform="translate(-161.5 -130.47)"/><path class="cls-11" d="M212.47,268.35c2.9,0,5,0,6.66.82v-4.79h-6.66Z" transform="translate(-161.5 -130.47)"/><path class="cls-14" d="M212.47,268.35c2.9,0,5,0,6.66.82v-4.79h-6.66Z" transform="translate(-161.5 -130.47)"/><rect class="cls-12" x="57.63" y="127.33" width="19.54" height="6.57"/><rect class="cls-14" x="57.63" y="127.33" width="19.54" height="6.57"/><rect class="cls-11" x="50.97" y="127.33" width="6.66" height="6.57"/><rect class="cls-12" x="50.97" y="127.33" width="6.66" height="6.57"/><rect class="cls-14" x="50.97" y="127.33" width="6.66" height="6.57"/><polygon class="cls-13" points="97.1 135.16 97.1 127.33 83.43 127.33 83.43 133.91 77.17 133.91 77.17 139.46 90.71 139.46 90.71 135.16 97.1 135.16"/><polygon class="cls-14" points="97.1 135.16 97.1 127.33 83.43 127.33 83.43 133.91 77.17 133.91 77.17 139.46 90.71 139.46 90.71 135.16 97.1 135.16"/><rect class="cls-12" x="77.17" y="127.33" width="6.26" height="6.57"/><rect class="cls-13" x="77.17" y="127.33" width="6.26" height="6.57"/><rect class="cls-14" x="77.17" y="127.33" width="6.26" height="6.57"/><polygon class="cls-15" points="97.1 139.46 97.1 159.4 114.94 159.4 114.94 135.16 104.16 135.16 104.16 139.46 97.1 139.46"/><rect class="cls-13" x="97.1" y="135.16" width="7.06" height="4.3"/><rect class="cls-15" x="97.1" y="135.16" width="7.06" height="4.3"/><rect class="cls-14" x="90.71" y="139.46" width="6.39" height="19.94"/><rect class="cls-15" x="90.71" y="139.46" width="6.39" height="19.94"/><rect class="cls-13" x="90.71" y="135.16" width="6.39" height="4.3"/><rect class="cls-14" x="90.71" y="135.16" width="6.39" height="4.3"/><rect class="cls-15" x="90.71" y="135.16" width="6.39" height="4.3"/><text class="cls-16" transform="translate(0 238.47)">wegner</text><path class="cls-17" d="M189.65,400.91a7.26,7.26,0,0,1-7.54,5.59c-5.72,0-8.67-4.45-8.67-10,0-5.29,2.92-10.09,8.73-10.09,4.39,0,6.89,2.47,7.5,5.74h-2a5.33,5.33,0,0,0-5.59-4c-4.62,0-6.53,4.2-6.53,8.3s1.86,8.27,6.64,8.27a5.42,5.42,0,0,0,5.46-3.85Z" transform="translate(-161.5 -130.47)"/><path class="cls-17" d="M200.74,397.38v8.89h-2V386.73H206c3.93,0,6,2.11,6,5.17a4.44,4.44,0,0,1-3.51,4.59c1.82.46,3.18,1.71,3.18,5.07v.79a13.2,13.2,0,0,0,.26,3.92h-2a13.19,13.19,0,0,1-.3-4.13v-.47c0-3-.88-4.29-4.51-4.29Zm0-1.75h4.51c3.23,0,4.7-1.22,4.7-3.62,0-2.25-1.47-3.53-4.34-3.53h-4.87Z" transform="translate(-161.5 -130.47)"/><path class="cls-17" d="M233.5,396.88h-9.86v7.62h10.81l-.27,1.77H221.67V386.73H234v1.76H223.64v6.62h9.86Z" transform="translate(-161.5 -130.47)"/><path class="cls-17" d="M246,399.92l-2.32,6.35h-2l7.07-19.54h2.43l7.38,19.54h-2.15L254,399.92Zm7.46-1.77c-2-5.51-3.11-8.27-3.52-9.66h0c-.47,1.56-1.68,4.95-3.32,9.66Z" transform="translate(-161.5 -130.47)"/><path class="cls-17" d="M268.43,388.49H262v-1.76h14.94v1.76h-6.47v17.78h-2Z" transform="translate(-161.5 -130.47)"/><path class="cls-17" d="M286.8,386.73v19.54h-2V386.73Z" transform="translate(-161.5 -130.47)"/><path class="cls-17" d="M302.07,406.27l-7.2-19.54H297l3.63,10c1.06,2.92,2.18,6,2.61,7.73h.05c.42-1.52,1.66-4.77,2.72-7.63l3.77-10.1h2.09l-7.46,19.54Z" transform="translate(-161.5 -130.47)"/><path class="cls-17" d="M331.92,396.88h-9.86v7.62h10.81l-.27,1.77H320.09V386.73H332.4v1.76H322.06v6.62h9.86Z" transform="translate(-161.5 -130.47)"/></g></g></svg>